<svg xmlns="http://www.w3.org/2000/svg" xmlns:xlink="http://www.w3.org/1999/xlink" contentStyleType="text/css" height="605px" preserveAspectRatio="none" style="width:757px;height:605px;background:#FFFFFF;" version="1.1" viewBox="0 0 757 605" width="757px" zoomAndPan="magnify"><title>Architecture Globale &#8212; MecaRage</title><defs/><g><text fill="#000000" font-family="Arial" font-size="14" font-weight="bold" lengthAdjust="spacing" textLength="228.7373" x="184.6313" y="33.1318">Architecture Globale &#8212; MecaRage</text><!--entity ang--><g id="elem_ang"><rect fill="#EFF6FF" height="77.5977" rx="2.5" ry="2.5" style="stroke:#1D4ED8;stroke-width:0.5;" width="136.0078" x="258.7072" y="69.0986"/><rect fill="#EFF6FF" height="10" style="stroke:#1D4ED8;stroke-width:0.5;" width="15" x="374.7151" y="74.0986"/><rect fill="#EFF6FF" height="2" style="stroke:#1D4ED8;stroke-width:0.5;" width="4" x="372.7151" y="76.0986"/><rect fill="#EFF6FF" height="2" style="stroke:#1D4ED8;stroke-width:0.5;" width="4" x="372.7151" y="80.0986"/><text fill="#000000" font-family="Arial" font-size="12" font-weight="bold" lengthAdjust="spacing" textLength="62.0156" x="283.7072" y="110.3545">Angular 21</text><text fill="#000000" font-family="Arial" font-size="12" font-weight="bold" lengthAdjust="spacing" textLength="76.0078" x="283.7072" y="124.1533">Tailwind CSS</text></g><!--entity api--><g id="elem_api"><rect fill="#EFF6FF" height="77.5977" rx="2.5" ry="2.5" style="stroke:#1D4ED8;stroke-width:0.5;" width="155.0156" x="249.2072" y="220.0986"/><rect fill="#EFF6FF" height="10" style="stroke:#1D4ED8;stroke-width:0.5;" width="15" x="384.2229" y="225.0986"/><rect fill="#EFF6FF" height="2" style="stroke:#1D4ED8;stroke-width:0.5;" width="4" x="382.2229" y="227.0986"/><rect fill="#EFF6FF" height="2" style="stroke:#1D4ED8;stroke-width:0.5;" width="4" x="382.2229" y="231.0986"/><text fill="#000000" font-family="Arial" font-size="12" font-weight="bold" lengthAdjust="spacing" textLength="92.6895" x="274.2072" y="261.3545">ASP.NET Core 9</text><text fill="#000000" font-family="Arial" font-size="12" font-weight="bold" lengthAdjust="spacing" textLength="95.0156" x="274.2072" y="275.1533">CQRS + MediatR</text></g><!--entity mysql--><g id="elem_mysql"><rect fill="#EFF6FF" height="77.5977" rx="2.5" ry="2.5" style="stroke:#1D4ED8;stroke-width:0.5;" width="111.3457" x="122.2072" y="522.0986"/><rect fill="#EFF6FF" height="10" style="stroke:#1D4ED8;stroke-width:0.5;" width="15" x="213.5529" y="527.0986"/><rect fill="#EFF6FF" height="2" style="stroke:#1D4ED8;stroke-width:0.5;" width="4" x="211.5529" y="529.0986"/><rect fill="#EFF6FF" height="2" style="stroke:#1D4ED8;stroke-width:0.5;" width="4" x="211.5529" y="533.0986"/><text fill="#000000" font-family="Arial" font-size="12" font-weight="bold" lengthAdjust="spacing" textLength="51.3457" x="147.2072" y="563.3545">MySQL 8</text><text fill="#000000" font-family="Arial" font-size="12" font-weight="bold" lengthAdjust="spacing" textLength="46.0078" x="147.2072" y="577.1533">EF Core</text></g><!--entity redis--><g id="elem_redis"><rect fill="#EFF6FF" height="77.5977" rx="2.5" ry="2.5" style="stroke:#1D4ED8;stroke-width:0.5;" width="102.6855" x="130.2072" y="371.0986"/><rect fill="#EFF6FF" height="10" style="stroke:#1D4ED8;stroke-width:0.5;" width="15" x="212.8928" y="376.0986"/><rect fill="#EFF6FF" height="2" style="stroke:#1D4ED8;stroke-width:0.5;" width="4" x="210.8928" y="378.0986"/><rect fill="#EFF6FF" height="2" style="stroke:#1D4ED8;stroke-width:0.5;" width="4" x="210.8928" y="382.0986"/><text fill="#000000" font-family="Arial" font-size="12" font-weight="bold" lengthAdjust="spacing" textLength="42.6855" x="155.2072" y="412.3545">Redis 7</text><text fill="#000000" font-family="Arial" font-size="12" font-weight="bold" lengthAdjust="spacing" textLength="36.0176" x="155.2072" y="426.1533">Cache</text></g><!--entity ia--><g id="elem_ia"><rect fill="#EFF6FF" height="77.5977" rx="2.5" ry="2.5" style="stroke:#1D4ED8;stroke-width:0.5;" width="158.373" x="251.7072" y="371.0986"/><rect fill="#EFF6FF" height="10" style="stroke:#1D4ED8;stroke-width:0.5;" width="15" x="390.0803" y="376.0986"/><rect fill="#EFF6FF" height="2" style="stroke:#1D4ED8;stroke-width:0.5;" width="4" x="388.0803" y="378.0986"/><rect fill="#EFF6FF" height="2" style="stroke:#1D4ED8;stroke-width:0.5;" width="4" x="388.0803" y="382.0986"/><text fill="#000000" font-family="Arial" font-size="12" font-weight="bold" lengthAdjust="spacing" textLength="98.373" x="276.7072" y="412.3545">FastAPI + Ollama</text><text fill="#000000" font-family="Arial" font-size="12" font-weight="bold" lengthAdjust="spacing" textLength="62.0098" x="276.7072" y="426.1533">RAG BM25</text></g><!--entity mob--><g id="elem_mob"><rect fill="#EFF6FF" height="77.5977" rx="2.5" ry="2.5" style="stroke:#1D4ED8;stroke-width:0.5;" width="136.0195" x="471.7072" y="69.0986"/><rect fill="#EFF6FF" height="10" style="stroke:#1D4ED8;stroke-width:0.5;" width="15" x="587.7268" y="74.0986"/><rect fill="#EFF6FF" height="2" style="stroke:#1D4ED8;stroke-width:0.5;" width="4" x="585.7268" y="76.0986"/><rect fill="#EFF6FF" height="2" style="stroke:#1D4ED8;stroke-width:0.5;" width="4" x="585.7268" y="80.0986"/><text fill="#000000" font-family="Arial" font-size="12" font-weight="bold" lengthAdjust="spacing" textLength="76.0195" x="496.7072" y="110.3545">Android Java</text><text fill="#000000" font-family="Arial" font-size="12" font-weight="bold" lengthAdjust="spacing" textLength="52.6699" x="496.7072" y="124.1533">Retrofit 2</text></g><!--entity sqlite--><g id="elem_sqlite"><rect fill="#EFF6FF" height="77.5977" rx="2.5" ry="2.5" style="stroke:#1D4ED8;stroke-width:0.5;" width="112.0078" x="561.7072" y="220.0986"/><rect fill="#EFF6FF" height="10" style="stroke:#1D4ED8;stroke-width:0.5;" width="15" x="653.7151" y="225.0986"/><rect fill="#EFF6FF" height="2" style="stroke:#1D4ED8;stroke-width:0.5;" width="4" x="651.7151" y="227.0986"/><rect fill="#EFF6FF" height="2" style="stroke:#1D4ED8;stroke-width:0.5;" width="4" x="651.7151" y="231.0986"/><text fill="#000000" font-family="Arial" font-size="12" font-weight="bold" lengthAdjust="spacing" textLength="38.6719" x="586.7072" y="261.3545">SQLite</text><text fill="#000000" font-family="Arial" font-size="12" font-weight="bold" lengthAdjust="spacing" textLength="52.0078" x="586.7072" y="275.1533">Local DB</text></g><!--entity sync--><g id="elem_sync"><rect fill="#EFF6FF" height="77.5977" rx="2.5" ry="2.5" style="stroke:#1D4ED8;stroke-width:0.5;" width="136.6934" x="578.2072" y="371.0986"/><rect fill="#EFF6FF" height="10" style="stroke:#1D4ED8;stroke-width:0.5;" width="15" x="694.9006" y="376.0986"/><rect fill="#EFF6FF" height="2" style="stroke:#1D4ED8;stroke-width:0.5;" width="4" x="692.9006" y="378.0986"/><rect fill="#EFF6FF" height="2" style="stroke:#1D4ED8;stroke-width:0.5;" width="4" x="692.9006" y="382.0986"/><text fill="#000000" font-family="Arial" font-size="12" font-weight="bold" lengthAdjust="spacing" textLength="76.6934" x="603.2072" y="412.3545">FastAPI Sync</text><text fill="#000000" font-family="Arial" font-size="12" font-weight="bold" lengthAdjust="spacing" textLength="76.0137" x="603.2072" y="426.1533">MySQL Inject</text></g><!--entity mon--><g id="elem_mon"><rect fill="#EFF6FF" height="77.5977" rx="2.5" ry="2.5" style="stroke:#1D4ED8;stroke-width:0.5;" width="129.3516" x="431.2072" y="371.0986"/><rect fill="#EFF6FF" height="10" style="stroke:#1D4ED8;stroke-width:0.5;" width="15" x="540.5588" y="376.0986"/><rect fill="#EFF6FF" height="2" style="stroke:#1D4ED8;stroke-width:0.5;" width="4" x="538.5588" y="378.0986"/><rect fill="#EFF6FF" height="2" style="stroke:#1D4ED8;stroke-width:0.5;" width="4" x="538.5588" y="382.0986"/><text fill="#000000" font-family="Arial" font-size="12" font-weight="bold" lengthAdjust="spacing" textLength="69.3516" x="456.2072" y="412.3545">Prometheus</text><text fill="#000000" font-family="Arial" font-size="12" font-weight="bold" lengthAdjust="spacing" textLength="45.3516" x="456.2072" y="426.1533">Grafana</text></g><polygon fill="#374151" points="326.7072,219.8575,330.7072,210.8575,326.7072,214.8575,322.7072,210.8575,326.7072,219.8575" style="stroke:#374151;stroke-width:1;"/><path d="M326.7072,147.4698 C326.7072,169.7161 326.7072,191.6333 326.7072,213.8575 " fill="none" style="stroke:#374151;stroke-width:1.5;"/><text fill="#1E3A8A" font-family="Arial" font-size="12" font-weight="bold" lengthAdjust="spacing" textLength="81.3398" x="338.7072" y="188.3545">REST / HTTPS</text><polygon fill="#374151" points="121.9352,537.4509,115.6536,529.8653,117.457,535.227,112.0953,537.0304,121.9352,537.4509" style="stroke:#374151;stroke-width:1;"/><path d="M249.1441,264.1796 C176.3657,272.6183 71.2288,297.6845 19.7072,371.0986 C-0.2069,399.4747 3.7239,418.3365 19.7072,449.0986 C41.1139,490.2988 80.2304,516.7399 116.5613,534.7822 " fill="none" style="stroke:#374151;stroke-width:1.5;"/><text fill="#1E3A8A" font-family="Arial" font-size="12" font-weight="bold" lengthAdjust="spacing" textLength="77.3379" x="31.7072" y="414.8545">EF Core ORM</text><polygon fill="#374151" points="182.1335,370.8243,187.0948,362.3164,182.6809,365.8544,179.1429,361.4404,182.1335,370.8243" style="stroke:#374151;stroke-width:1;"/><path d="M248.9742,281.5412 C231.2144,289.754 213.9791,300.9453 201.7072,316.0986 C189.3387,331.3713 184.8044,346.5766 182.7904,364.8604 " fill="none" style="stroke:#374151;stroke-width:1.5;"/><text fill="#1E3A8A" font-family="Arial" font-size="12" font-weight="bold" lengthAdjust="spacing" textLength="98.7129" x="213.7072" y="339.3545">Cache / Sessions</text><polygon fill="#374151" points="328.4397,370.8508,331.9976,361.667,328.1967,365.8567,324.0071,362.0558,328.4397,370.8508" style="stroke:#374151;stroke-width:1;"/><path d="M326.7489,298.1148 C326.8621,314.9634 327.1262,335.0236 327.7072,353.0986 C327.8918,358.84 327.8591,358.9165 328.1481,364.8579 " fill="none" style="stroke:#374151;stroke-width:1.5;"/><text fill="#1E3A8A" font-family="Arial" font-size="12" font-weight="bold" lengthAdjust="spacing" textLength="126.6797" x="339.7072" y="339.3545">HTTP POST /diagnose</text><polygon fill="#374151" points="404.2186,223.8308,414.0093,222.7624,408.5404,221.3164,409.9863,215.8475,404.2186,223.8308" style="stroke:#374151;stroke-width:1;"/><path d="M483.7915,147.3793 C476.768,153.0196 469.8886,158.9958 463.7072,165.0986 C449.0321,179.5874 451.4962,188.8324 435.7072,202.0986 C426.1784,210.105 420.4988,214.3592 409.4047,220.8136 " fill="none" style="stroke:#374151;stroke-width:1.5;"/><text fill="#1E3A8A" font-family="Arial" font-size="12" font-weight="bold" lengthAdjust="spacing" textLength="84.668" x="475.7072" y="188.3545">Retrofit / REST</text><polygon fill="#374151" points="601.9801,219.9277,602.0625,210.0792,599.9877,215.3418,594.7251,213.2671,601.9801,219.9277" style="stroke:#374151;stroke-width:1;"/><path d="M565.2568,147.2072 C568.9082,153.1129 572.5065,159.2085 575.7072,165.0986 C585.2656,182.6884 592.1781,197.3667 599.5892,214.4246 " fill="none" style="stroke:#374151;stroke-width:1.5;"/><text fill="#1E3A8A" font-family="Arial" font-size="12" font-weight="bold" lengthAdjust="spacing" textLength="84.0352" x="605.7072" y="188.3545">Stockage local</text><polygon fill="#374151" points="639.2643,370.8575,641.4712,361.259,638.3091,365.9496,633.6186,362.7874,639.2643,370.8575" style="stroke:#374151;stroke-width:1;"/><path d="M625.1755,298.4698 C629.5053,320.7161 633.7926,342.7439 638.1181,364.968 " fill="none" style="stroke:#374151;stroke-width:1.5;"/><text fill="#1E3A8A" font-family="Arial" font-size="12" font-weight="bold" lengthAdjust="spacing" textLength="92.0215" x="646.7072" y="339.3545">sync p&#233;riodique</text><polygon fill="#374151" points="233.4244,547.5707,243.0999,549.4107,238.2924,546.4294,241.2738,541.6219,233.4244,547.5707" style="stroke:#374151;stroke-width:1;"/><path d="M578.0957,445.3402 C574.9425,446.6557 571.8029,447.9158 568.7072,449.0986 C452.1999,493.6152 316.0274,528.204 239.266,546.2011 " fill="none" style="stroke:#374151;stroke-width:1.5;"/><text fill="#1E3A8A" font-family="Arial" font-size="12" font-weight="bold" lengthAdjust="spacing" textLength="92.0215" x="529.7072" y="490.3545">injection directe</text><polygon fill="#374151" points="496.6724,370.9877,499.9568,361.7026,496.2817,366.003,491.9813,362.3278,496.6724,370.9877" style="stroke:#374151;stroke-width:1;"/><path d="M404.4758,272.781 C431.2695,280.9106 459.1697,294.2423 477.7072,316.0986 C490.4722,331.1489 494.7562,346.5424 496.2035,365.006 " fill="none" style="stroke:#374151;stroke-width:1.5;"/><text fill="#1E3A8A" font-family="Arial" font-size="12" font-weight="bold" lengthAdjust="spacing" textLength="56.6777" x="506.7072" y="339.3545">M&#233;triques</text><!--SRC=[VPDDSjf048NtSufEPPco7M4JOozI9J0YJXc39UrG5eqqY0cZ6JmQsKLMEKGkuNFu9Zb9MWC6p4-qGTNlc-xtUj27kS6yG92uq9M5ik0M5R9o9jGS3HOmndIM6rsfhAEbDl0nSCyMaV49Lj86MjbxB3ZuHg0yh4VY5mUliILsT37NYYlRrYRZPZN3kxdethGEOhjska7mvPsTDUe6seNaCDOoEqhiMVADqS-hxkUN5rxJsnNZgKXdYfSbUAVDNV4_JOywMgjl-RldVilV0aAUqhtaahzRqvwx7UoOpmssTxbNWH-qjz1OMCataIuEIeSYpJ7BXCh1-yoOhKaAcKw5fT6LuT2JUenK_Flx3_HvYY7cdB6Hh_9Aee66bwWOXNmMAeDE5Fq0B84i4n4DJ- -xCLqYTRbALESXZE0JzSW4sd39pGKRzHVHmnsq4jKD7EkKOb4-IZOA2IxXaWvZEbqgfYwnKO2bzOUtr70W9HQOgD3lGRlVQ3fAO6qnCrfay1sVQfbReoV2GcCvG8_PY0PJpaJTwHGbtBITGeEfk9aGBLIQgANBM_MJrhB4gCn6GwFfGvpoganKp-24FibLUyKOhG5EJhxMCU4QmcuKmnbyY-DXnEfIBRcS9Awomo3ihpMNb3INdKv6zFyGMfLhG22fTJyO3khUjDXSwP8p2hSz-2tvcVEmLfT12OYiJcTqhI3hFR1LtI4KaW3tCtzzCK9duh7Yp1Ms_Gkt6787cJ3qnZS9gNOD_TSNQ-gZ9Vi7]--></g></svg>