<svg xmlns="http://www.w3.org/2000/svg" xmlns:xlink="http://www.w3.org/1999/xlink" contentStyleType="text/css" height="3036px" preserveAspectRatio="none" style="width:499px;height:3036px;background:#FFFFFF;" version="1.1" viewBox="0 0 499 3036" width="499px" zoomAndPan="magnify"><title>Diagramme de Classes Global &#8212; MecaRage</title><defs/><g><text fill="#000000" font-family="Arial" font-size="14" font-weight="bold" lengthAdjust="spacing" textLength="291.7852" x="99.8574" y="33.1318">Diagramme de Classes Global &#8212; MecaRage</text><!--class Tenant--><g id="elem_Tenant"><rect codeLine="29" fill="#EFF6FF" height="246.4932" id="Tenant" rx="2.5" ry="2.5" style="stroke:#1D4ED8;stroke-width:1.5;" width="100.1055" x="294" y="69.0986"/><ellipse cx="316.4377" cy="89.8481" fill="#ADD1B2" rx="9" ry="9" style="stroke:#181818;stroke-width:1;"/><path d="M317.9689,87.1138 Q318.0627,86.9731 318.1877,86.9106 Q318.3127,86.8325 318.4533,86.8325 Q318.6877,86.8325 318.8439,87.0044 Q319.0002,87.1763 319.0002,87.5669 L319.0002,88.5044 Q319.0002,88.895 318.8439,89.0669 Q318.6877,89.2388 318.4533,89.2388 Q318.2346,89.2388 318.0939,89.1138 Q317.9533,88.9888 317.8908,88.6606 Q317.8596,88.4263 317.7502,88.3013 Q317.5314,88.0669 317.1252,87.9263 Q316.7346,87.77 316.3439,87.77 Q315.8439,87.77 315.4221,87.9888 Q315.0158,88.2075 314.6877,88.6919 Q314.3752,89.1763 314.3752,89.8325 L314.3752,90.5513 Q314.3752,91.3481 314.9533,91.8794 Q315.5314,92.4106 316.5627,92.4106 Q317.1721,92.4106 317.5939,92.2388 Q317.8439,92.145 318.1252,91.8638 Q318.2971,91.6919 318.3908,91.645 Q318.4846,91.5825 318.6096,91.5825 Q318.8283,91.5825 319.0002,91.7544 Q319.1721,91.9263 319.1721,92.145 Q319.1721,92.3638 318.9377,92.6294 Q318.6096,93.0044 318.0939,93.2231 Q317.4064,93.5044 316.5627,93.5044 Q315.5939,93.5044 314.8127,93.1138 Q314.1721,92.7856 313.7189,92.0981 Q313.2814,91.395 313.2814,90.5669 L313.2814,89.8169 Q313.2814,88.9575 313.6721,88.2231 Q314.0783,87.4731 314.7814,87.0825 Q315.5002,86.6763 316.2971,86.6763 Q316.7658,86.6763 317.1877,86.7856 Q317.6096,86.895 317.9689,87.1138 Z " fill="#000000"/><text fill="#111827" font-family="Arial" font-size="10" lengthAdjust="spacing" textLength="31.1328" x="340.535" y="93.4785">Tenant</text><line style="stroke:#1D4ED8;stroke-width:1.5;" x1="295" x2="393.1055" y1="110.5977" y2="110.5977"/><text fill="#000000" font-family="Arial" font-size="10" lengthAdjust="spacing" textLength="43.0811" x="310" y="133.9775">+id : Guid</text><text fill="#000000" font-family="Arial" font-size="10" lengthAdjust="spacing" textLength="65.3125" x="310" y="165.4766">+name : String</text><text fill="#000000" font-family="Arial" font-size="10" lengthAdjust="spacing" textLength="58.6426" x="310" y="196.9756">+slug : String</text><text fill="#000000" font-family="Arial" font-size="10" lengthAdjust="spacing" textLength="64.1943" x="310" y="228.4746">+email : String</text><text fill="#000000" font-family="Arial" font-size="10" lengthAdjust="spacing" textLength="68.1055" x="310" y="259.9736">+phone : String</text><text fill="#000000" font-family="Arial" font-size="10" lengthAdjust="spacing" textLength="67.5342" x="310" y="291.4727">+isActive : bool</text><line style="stroke:#1D4ED8;stroke-width:1.5;" x1="295" x2="393.1055" y1="307.5918" y2="307.5918"/></g><!--class Garage--><g id="elem_Garage"><rect codeLine="38" fill="#EFF6FF" height="372.4893" id="Garage" rx="2.5" ry="2.5" style="stroke:#1D4ED8;stroke-width:1.5;" width="122.3564" x="283" y="389.0986"/><ellipse cx="314.4509" cy="409.8481" fill="#ADD1B2" rx="9" ry="9" style="stroke:#181818;stroke-width:1;"/><path d="M315.9821,407.1138 Q316.0759,406.9731 316.2009,406.9106 Q316.3259,406.8325 316.4665,406.8325 Q316.7009,406.8325 316.8571,407.0044 Q317.0134,407.1763 317.0134,407.5669 L317.0134,408.5044 Q317.0134,408.895 316.8571,409.0669 Q316.7009,409.2388 316.4665,409.2388 Q316.2478,409.2388 316.1071,409.1138 Q315.9665,408.9888 315.904,408.6606 Q315.8728,408.4263 315.7634,408.3013 Q315.5446,408.0669 315.1384,407.9263 Q314.7478,407.77 314.3571,407.77 Q313.8571,407.77 313.4353,407.9888 Q313.029,408.2075 312.7009,408.6919 Q312.3884,409.1763 312.3884,409.8325 L312.3884,410.5513 Q312.3884,411.3481 312.9665,411.8794 Q313.5446,412.4106 314.5759,412.4106 Q315.1853,412.4106 315.6071,412.2388 Q315.8571,412.145 316.1384,411.8638 Q316.3103,411.6919 316.404,411.645 Q316.4978,411.5825 316.6228,411.5825 Q316.8415,411.5825 317.0134,411.7544 Q317.1853,411.9263 317.1853,412.145 Q317.1853,412.3638 316.9509,412.6294 Q316.6228,413.0044 316.1071,413.2231 Q315.4196,413.5044 314.5759,413.5044 Q313.6071,413.5044 312.8259,413.1138 Q312.1853,412.7856 311.7321,412.0981 Q311.2946,411.395 311.2946,410.5669 L311.2946,409.8169 Q311.2946,408.9575 311.6853,408.2231 Q312.0915,407.4731 312.7946,407.0825 Q313.5134,406.6763 314.3103,406.6763 Q314.779,406.6763 315.2009,406.7856 Q315.6228,406.895 315.9821,407.1138 Z " fill="#000000"/><text fill="#111827" font-family="Arial" font-size="10" lengthAdjust="spacing" textLength="33.3545" x="340.5511" y="413.4785">Garage</text><line style="stroke:#1D4ED8;stroke-width:1.5;" x1="284" x2="404.3564" y1="430.5977" y2="430.5977"/><text fill="#000000" font-family="Arial" font-size="10" lengthAdjust="spacing" textLength="43.0811" x="299" y="453.9775">+id : Guid</text><text fill="#000000" font-family="Arial" font-size="10" lengthAdjust="spacing" textLength="71.4404" x="299" y="485.4766">+tenantId : Guid</text><text fill="#000000" font-family="Arial" font-size="10" lengthAdjust="spacing" textLength="65.3125" x="299" y="516.9756">+name : String</text><text fill="#000000" font-family="Arial" font-size="10" lengthAdjust="spacing" textLength="75.874" x="299" y="548.4746">+address : String</text><text fill="#000000" font-family="Arial" font-size="10" lengthAdjust="spacing" textLength="55.2979" x="299" y="579.9736">+city : String</text><text fill="#000000" font-family="Arial" font-size="10" lengthAdjust="spacing" textLength="68.1055" x="299" y="611.4727">+phone : String</text><text fill="#000000" font-family="Arial" font-size="10" lengthAdjust="spacing" textLength="82.0117" x="299" y="642.9717">+latitude : double?</text><text fill="#000000" font-family="Arial" font-size="10" lengthAdjust="spacing" textLength="90.3564" x="299" y="674.4707">+longitude : double?</text><text fill="#000000" font-family="Arial" font-size="10" lengthAdjust="spacing" textLength="76.4355" x="299" y="705.9697">+adminId : Guid?</text><text fill="#000000" font-family="Arial" font-size="10" lengthAdjust="spacing" textLength="67.5342" x="299" y="737.4688">+isActive : bool</text><line style="stroke:#1D4ED8;stroke-width:1.5;" x1="284" x2="404.3564" y1="753.5879" y2="753.5879"/></g><!--class User--><g id="elem_User"><rect codeLine="51" fill="#EFF6FF" height="372.4893" id="User" rx="2.5" ry="2.5" style="stroke:#1D4ED8;stroke-width:1.5;" width="138.4404" x="177" y="835.0986"/><ellipse cx="221.9136" cy="855.8481" fill="#ADD1B2" rx="9" ry="9" style="stroke:#181818;stroke-width:1;"/><path d="M223.4448,853.1138 Q223.5386,852.9731 223.6636,852.9106 Q223.7886,852.8325 223.9292,852.8325 Q224.1636,852.8325 224.3198,853.0044 Q224.4761,853.1763 224.4761,853.5669 L224.4761,854.5044 Q224.4761,854.895 224.3198,855.0669 Q224.1636,855.2388 223.9292,855.2388 Q223.7104,855.2388 223.5698,855.1138 Q223.4292,854.9888 223.3667,854.6606 Q223.3354,854.4263 223.2261,854.3013 Q223.0073,854.0669 222.6011,853.9263 Q222.2104,853.77 221.8198,853.77 Q221.3198,853.77 220.8979,853.9888 Q220.4917,854.2075 220.1636,854.6919 Q219.8511,855.1763 219.8511,855.8325 L219.8511,856.5513 Q219.8511,857.3481 220.4292,857.8794 Q221.0073,858.4106 222.0386,858.4106 Q222.6479,858.4106 223.0698,858.2388 Q223.3198,858.145 223.6011,857.8638 Q223.7729,857.6919 223.8667,857.645 Q223.9604,857.5825 224.0854,857.5825 Q224.3042,857.5825 224.4761,857.7544 Q224.6479,857.9263 224.6479,858.145 Q224.6479,858.3638 224.4136,858.6294 Q224.0854,859.0044 223.5698,859.2231 Q222.8823,859.5044 222.0386,859.5044 Q221.0698,859.5044 220.2886,859.1138 Q219.6479,858.7856 219.1948,858.0981 Q218.7573,857.395 218.7573,856.5669 L218.7573,855.8169 Q218.7573,854.9575 219.1479,854.2231 Q219.5542,853.4731 220.2573,853.0825 Q220.9761,852.6763 221.7729,852.6763 Q222.2417,852.6763 222.6636,852.7856 Q223.0854,852.895 223.4448,853.1138 Z " fill="#000000"/><text fill="#111827" font-family="Arial" font-size="10" lengthAdjust="spacing" textLength="21.1133" x="249.4136" y="859.4785">User</text><line style="stroke:#1D4ED8;stroke-width:1.5;" x1="178" x2="314.4404" y1="876.5977" y2="876.5977"/><text fill="#000000" font-family="Arial" font-size="10" lengthAdjust="spacing" textLength="43.0811" x="193" y="899.9775">+id : Guid</text><text fill="#000000" font-family="Arial" font-size="10" lengthAdjust="spacing" textLength="83.0811" x="193" y="931.4766">+firstName : String</text><text fill="#000000" font-family="Arial" font-size="10" lengthAdjust="spacing" textLength="82.5342" x="193" y="962.9756">+lastName : String</text><text fill="#000000" font-family="Arial" font-size="10" lengthAdjust="spacing" textLength="64.1943" x="193" y="994.4746">+email : String</text><text fill="#000000" font-family="Arial" font-size="10" lengthAdjust="spacing" textLength="106.4404" x="193" y="1025.9736">+passwordHash : String</text><text fill="#000000" font-family="Arial" font-size="10" lengthAdjust="spacing" textLength="72.5293" x="193" y="1057.4727">+role : UserRole</text><text fill="#000000" font-family="Arial" font-size="10" lengthAdjust="spacing" textLength="77.002" x="193" y="1088.9717">+tenantId : Guid?</text><text fill="#000000" font-family="Arial" font-size="10" lengthAdjust="spacing" textLength="80.3369" x="193" y="1120.4707">+garageId : Guid?</text><text fill="#000000" font-family="Arial" font-size="10" lengthAdjust="spacing" textLength="104.7754" x="193" y="1151.9697">+refreshToken : String?</text><text fill="#000000" font-family="Arial" font-size="10" lengthAdjust="spacing" textLength="67.5342" x="193" y="1183.4688">+isActive : bool</text><line style="stroke:#1D4ED8;stroke-width:1.5;" x1="178" x2="314.4404" y1="1199.5879" y2="1199.5879"/></g><!--class UserRole--><g id="elem_UserRole"><rect codeLine="64" fill="#EFF6FF" height="214.9941" id="UserRole" rx="2.5" ry="2.5" style="stroke:#1D4ED8;stroke-width:1.5;" width="105.9209" x="59" y="1328.0986"/><ellipse cx="79.3085" cy="1348.8481" fill="#EB937F" rx="9" ry="9" style="stroke:#181818;stroke-width:1;"/><path d="M78.4804,1349.6294 L78.4804,1351.2544 L81.2929,1351.2544 L81.2929,1350.645 Q81.2929,1350.2544 81.4335,1350.0825 Q81.5898,1349.9106 81.8398,1349.9106 Q82.0898,1349.9106 82.2304,1350.0825 Q82.3867,1350.2544 82.3867,1350.645 L82.3867,1352.3481 L77.1992,1352.3481 Q76.8085,1352.3481 76.6367,1352.1919 Q76.4648,1352.0356 76.4648,1351.8013 Q76.4648,1351.5513 76.6367,1351.4106 Q76.8085,1351.2544 77.1992,1351.2544 L77.371,1351.2544 L77.371,1346.9419 L77.1992,1346.9419 Q76.8085,1346.9419 76.6367,1346.7856 Q76.4648,1346.6294 76.4648,1346.3794 Q76.4648,1346.145 76.6367,1345.9888 Q76.8085,1345.8325 77.1992,1345.8325 L82.1523,1345.8325 L82.1523,1347.52 Q82.1523,1347.9106 81.996,1348.0825 Q81.8398,1348.2388 81.6054,1348.2388 Q81.3554,1348.2388 81.1992,1348.0825 Q81.0429,1347.9106 81.0429,1347.52 L81.0429,1346.9419 L78.4804,1346.9419 L78.4804,1348.5356 L79.4492,1348.5356 Q79.4492,1348.0981 79.5273,1347.9731 Q79.6992,1347.7075 79.996,1347.7075 Q80.246,1347.7075 80.3867,1347.8794 Q80.5429,1348.0513 80.5429,1348.4419 L80.5429,1349.7231 Q80.5429,1350.0825 80.4648,1350.1919 Q80.2929,1350.4575 79.996,1350.4575 Q79.6992,1350.4575 79.5273,1350.1919 Q79.4492,1350.0669 79.4492,1349.6294 L78.4804,1349.6294 Z " fill="#000000"/><text fill="#111827" font-family="Arial" font-size="10" lengthAdjust="spacing" textLength="41.6797" x="102.9327" y="1352.4785">UserRole</text><line style="stroke:#1D4ED8;stroke-width:1.5;" x1="60" x2="163.9209" y1="1369.5977" y2="1369.5977"/><text fill="#000000" font-family="Arial" font-size="10" lengthAdjust="spacing" textLength="55.0293" x="75" y="1392.9775">SuperAdmin</text><text fill="#000000" font-family="Arial" font-size="10" lengthAdjust="spacing" textLength="73.9209" x="75" y="1424.4766">AdminEntreprise</text><text fill="#000000" font-family="Arial" font-size="10" lengthAdjust="spacing" textLength="49.4678" x="75" y="1455.9756">ChefAtelier</text><text fill="#000000" font-family="Arial" font-size="10" lengthAdjust="spacing" textLength="50.5811" x="75" y="1487.4746">Mecanicien</text><text fill="#000000" font-family="Arial" font-size="10" lengthAdjust="spacing" textLength="25.5664" x="75" y="1518.9736">Client</text><line style="stroke:#1D4ED8;stroke-width:1.5;" x1="60" x2="163.9209" y1="1535.0928" y2="1535.0928"/></g><!--class Vehicle--><g id="elem_Vehicle"><rect codeLine="72" fill="#EFF6FF" height="309.4912" id="Vehicle" rx="2.5" ry="2.5" style="stroke:#1D4ED8;stroke-width:1.5;" width="126.2188" x="183" y="1281.0986"/><ellipse cx="216.4394" cy="1301.8481" fill="#ADD1B2" rx="9" ry="9" style="stroke:#181818;stroke-width:1;"/><path d="M217.9707,1299.1138 Q218.0644,1298.9731 218.1894,1298.9106 Q218.3144,1298.8325 218.455,1298.8325 Q218.6894,1298.8325 218.8457,1299.0044 Q219.0019,1299.1763 219.0019,1299.5669 L219.0019,1300.5044 Q219.0019,1300.895 218.8457,1301.0669 Q218.6894,1301.2388 218.455,1301.2388 Q218.2363,1301.2388 218.0957,1301.1138 Q217.955,1300.9888 217.8925,1300.6606 Q217.8613,1300.4263 217.7519,1300.3013 Q217.5332,1300.0669 217.1269,1299.9263 Q216.7363,1299.77 216.3457,1299.77 Q215.8457,1299.77 215.4238,1299.9888 Q215.0175,1300.2075 214.6894,1300.6919 Q214.3769,1301.1763 214.3769,1301.8325 L214.3769,1302.5513 Q214.3769,1303.3481 214.955,1303.8794 Q215.5332,1304.4106 216.5644,1304.4106 Q217.1738,1304.4106 217.5957,1304.2388 Q217.8457,1304.145 218.1269,1303.8638 Q218.2988,1303.6919 218.3925,1303.645 Q218.4863,1303.5825 218.6113,1303.5825 Q218.83,1303.5825 219.0019,1303.7544 Q219.1738,1303.9263 219.1738,1304.145 Q219.1738,1304.3638 218.9394,1304.6294 Q218.6113,1305.0044 218.0957,1305.2231 Q217.4082,1305.5044 216.5644,1305.5044 Q215.5957,1305.5044 214.8144,1305.1138 Q214.1738,1304.7856 213.7207,1304.0981 Q213.2832,1303.395 213.2832,1302.5669 L213.2832,1301.8169 Q213.2832,1300.9575 213.6738,1300.2231 Q214.08,1299.4731 214.7832,1299.0825 Q215.5019,1298.6763 216.2988,1298.6763 Q216.7675,1298.6763 217.1894,1298.7856 Q217.6113,1298.895 217.9707,1299.1138 Z " fill="#000000"/><text fill="#111827" font-family="Arial" font-size="10" lengthAdjust="spacing" textLength="32.7979" x="242.9815" y="1305.4785">Vehicle</text><line style="stroke:#1D4ED8;stroke-width:1.5;" x1="184" x2="308.2188" y1="1322.5977" y2="1322.5977"/><text fill="#000000" font-family="Arial" font-size="10" lengthAdjust="spacing" textLength="43.0811" x="199" y="1345.9775">+id : Guid</text><text fill="#000000" font-family="Arial" font-size="10" lengthAdjust="spacing" textLength="66.9824" x="199" y="1377.4766">+clientId : Guid</text><text fill="#000000" font-family="Arial" font-size="10" lengthAdjust="spacing" textLength="65.874" x="199" y="1408.9756">+brand : String</text><text fill="#000000" font-family="Arial" font-size="10" lengthAdjust="spacing" textLength="67.5342" x="199" y="1440.4746">+model : String</text><text fill="#000000" font-family="Arial" font-size="10" lengthAdjust="spacing" textLength="44.1895" x="199" y="1471.9736">+year : int</text><text fill="#000000" font-family="Arial" font-size="10" lengthAdjust="spacing" textLength="94.2188" x="199" y="1503.4727">+licensePlate : String</text><text fill="#000000" font-family="Arial" font-size="10" lengthAdjust="spacing" textLength="78.6523" x="199" y="1534.9717">+fuelType : String</text><text fill="#000000" font-family="Arial" font-size="10" lengthAdjust="spacing" textLength="59.7559" x="199" y="1566.4707">+mileage : int</text><line style="stroke:#1D4ED8;stroke-width:1.5;" x1="184" x2="308.2188" y1="1582.5898" y2="1582.5898"/></g><!--class SparePart--><g id="elem_SparePart"><rect codeLine="83" fill="#EFF6FF" height="309.4912" id="SparePart" rx="2.5" ry="2.5" style="stroke:#1D4ED8;stroke-width:1.5;" width="119.5391" x="333" y="866.5986"/><ellipse cx="357.9316" cy="887.3481" fill="#ADD1B2" rx="9" ry="9" style="stroke:#181818;stroke-width:1;"/><path d="M359.4628,884.6138 Q359.5566,884.4731 359.6816,884.4106 Q359.8066,884.3325 359.9472,884.3325 Q360.1816,884.3325 360.3378,884.5044 Q360.4941,884.6763 360.4941,885.0669 L360.4941,886.0044 Q360.4941,886.395 360.3378,886.5669 Q360.1816,886.7388 359.9472,886.7388 Q359.7285,886.7388 359.5878,886.6138 Q359.4472,886.4888 359.3847,886.1606 Q359.3535,885.9263 359.2441,885.8013 Q359.0253,885.5669 358.6191,885.4263 Q358.2285,885.27 357.8378,885.27 Q357.3378,885.27 356.916,885.4888 Q356.5097,885.7075 356.1816,886.1919 Q355.8691,886.6763 355.8691,887.3325 L355.8691,888.0513 Q355.8691,888.8481 356.4472,889.3794 Q357.0253,889.9106 358.0566,889.9106 Q358.666,889.9106 359.0878,889.7388 Q359.3378,889.645 359.6191,889.3638 Q359.791,889.1919 359.8847,889.145 Q359.9785,889.0825 360.1035,889.0825 Q360.3222,889.0825 360.4941,889.2544 Q360.666,889.4263 360.666,889.645 Q360.666,889.8638 360.4316,890.1294 Q360.1035,890.5044 359.5878,890.7231 Q358.9003,891.0044 358.0566,891.0044 Q357.0878,891.0044 356.3066,890.6138 Q355.666,890.2856 355.2128,889.5981 Q354.7753,888.895 354.7753,888.0669 L354.7753,887.3169 Q354.7753,886.4575 355.166,885.7231 Q355.5722,884.9731 356.2753,884.5825 Q356.9941,884.1763 357.791,884.1763 Q358.2597,884.1763 358.6816,884.2856 Q359.1035,884.395 359.4628,884.6138 Z " fill="#000000"/><text fill="#111827" font-family="Arial" font-size="10" lengthAdjust="spacing" textLength="45.0244" x="382.5831" y="890.9785">SparePart</text><line style="stroke:#1D4ED8;stroke-width:1.5;" x1="334" x2="451.5391" y1="908.0977" y2="908.0977"/><text fill="#000000" font-family="Arial" font-size="10" lengthAdjust="spacing" textLength="43.0811" x="349" y="931.4775">+id : Guid</text><text fill="#000000" font-family="Arial" font-size="10" lengthAdjust="spacing" textLength="74.7754" x="349" y="962.9766">+garageId : Guid</text><text fill="#000000" font-family="Arial" font-size="10" lengthAdjust="spacing" textLength="61.9824" x="349" y="994.4756">+code : String</text><text fill="#000000" font-family="Arial" font-size="10" lengthAdjust="spacing" textLength="65.3125" x="349" y="1025.9746">+name : String</text><text fill="#000000" font-family="Arial" font-size="10" lengthAdjust="spacing" textLength="78.6523" x="349" y="1057.4736">+category : String</text><text fill="#000000" font-family="Arial" font-size="10" lengthAdjust="spacing" textLength="87.5391" x="349" y="1088.9727">+unitPrice : decimal</text><text fill="#000000" font-family="Arial" font-size="10" lengthAdjust="spacing" textLength="63.6328" x="349" y="1120.4717">+stockQty : int</text><text fill="#000000" font-family="Arial" font-size="10" lengthAdjust="spacing" textLength="80.8789" x="349" y="1151.9707">+reorderLevel : int</text><line style="stroke:#1D4ED8;stroke-width:1.5;" x1="334" x2="451.5391" y1="1168.0898" y2="1168.0898"/></g><!--class SymptomReport--><g id="elem_SymptomReport"><rect codeLine="94" fill="#EFF6FF" height="309.4912" id="SymptomReport" rx="2.5" ry="2.5" style="stroke:#1D4ED8;stroke-width:1.5;" width="173.4502" x="159.5" y="1664.0986"/><ellipse cx="196.4418" cy="1684.8481" fill="#ADD1B2" rx="9" ry="9" style="stroke:#181818;stroke-width:1;"/><path d="M197.9731,1682.1138 Q198.0668,1681.9731 198.1918,1681.9106 Q198.3168,1681.8325 198.4575,1681.8325 Q198.6918,1681.8325 198.8481,1682.0044 Q199.0043,1682.1763 199.0043,1682.5669 L199.0043,1683.5044 Q199.0043,1683.895 198.8481,1684.0669 Q198.6918,1684.2388 198.4575,1684.2388 Q198.2387,1684.2388 198.0981,1684.1138 Q197.9575,1683.9888 197.895,1683.6606 Q197.8637,1683.4263 197.7543,1683.3013 Q197.5356,1683.0669 197.1293,1682.9263 Q196.7387,1682.77 196.3481,1682.77 Q195.8481,1682.77 195.4262,1682.9888 Q195.02,1683.2075 194.6918,1683.6919 Q194.3793,1684.1763 194.3793,1684.8325 L194.3793,1685.5513 Q194.3793,1686.3481 194.9575,1686.8794 Q195.5356,1687.4106 196.5668,1687.4106 Q197.1762,1687.4106 197.5981,1687.2388 Q197.8481,1687.145 198.1293,1686.8638 Q198.3012,1686.6919 198.395,1686.645 Q198.4887,1686.5825 198.6137,1686.5825 Q198.8325,1686.5825 199.0043,1686.7544 Q199.1762,1686.9263 199.1762,1687.145 Q199.1762,1687.3638 198.9418,1687.6294 Q198.6137,1688.0044 198.0981,1688.2231 Q197.4106,1688.5044 196.5668,1688.5044 Q195.5981,1688.5044 194.8168,1688.1138 Q194.1762,1687.7856 193.7231,1687.0981 Q193.2856,1686.395 193.2856,1685.5669 L193.2856,1684.8169 Q193.2856,1683.9575 193.6762,1683.2231 Q194.0825,1682.4731 194.7856,1682.0825 Q195.5043,1681.6763 196.3012,1681.6763 Q196.77,1681.6763 197.1918,1681.7856 Q197.6137,1681.895 197.9731,1682.1138 Z " fill="#000000"/><text fill="#111827" font-family="Arial" font-size="10" lengthAdjust="spacing" textLength="72.2461" x="223.7623" y="1688.4785">SymptomReport</text><line style="stroke:#1D4ED8;stroke-width:1.5;" x1="160.5" x2="331.9502" y1="1705.5977" y2="1705.5977"/><text fill="#000000" font-family="Arial" font-size="10" lengthAdjust="spacing" textLength="43.0811" x="175.5" y="1728.9775">+id : Guid</text><text fill="#000000" font-family="Arial" font-size="10" lengthAdjust="spacing" textLength="66.9824" x="175.5" y="1760.4766">+clientId : Guid</text><text fill="#000000" font-family="Arial" font-size="10" lengthAdjust="spacing" textLength="74.7656" x="175.5" y="1791.9756">+vehicleId : Guid</text><text fill="#000000" font-family="Arial" font-size="10" lengthAdjust="spacing" textLength="135.8789" x="175.5" y="1823.4746">+symptomsDescription : String</text><text fill="#000000" font-family="Arial" font-size="10" lengthAdjust="spacing" textLength="119.79" x="175.5" y="1854.9736">+aiPredictedIssue : String?</text><text fill="#000000" font-family="Arial" font-size="10" lengthAdjust="spacing" textLength="123.1348" x="175.5" y="1886.4727">+aiConfidenceScore : float?</text><text fill="#000000" font-family="Arial" font-size="10" lengthAdjust="spacing" textLength="141.4502" x="175.5" y="1917.9717">+status : SymptomReportStatus</text><text fill="#000000" font-family="Arial" font-size="10" lengthAdjust="spacing" textLength="110.3223" x="175.5" y="1949.4707">+submittedAt : DateTime</text><line style="stroke:#1D4ED8;stroke-width:1.5;" x1="160.5" x2="331.9502" y1="1965.5898" y2="1965.5898"/></g><!--class Appointment--><g id="elem_Appointment"><rect codeLine="105" fill="#EFF6FF" height="277.9922" id="Appointment" rx="2.5" ry="2.5" style="stroke:#1D4ED8;stroke-width:1.5;" width="157.3516" x="167.5" y="2047.0986"/><ellipse cx="204.4418" cy="2067.8481" fill="#ADD1B2" rx="9" ry="9" style="stroke:#181818;stroke-width:1;"/><path d="M205.9731,2065.1138 Q206.0668,2064.9731 206.1918,2064.9106 Q206.3168,2064.8325 206.4575,2064.8325 Q206.6918,2064.8325 206.8481,2065.0044 Q207.0043,2065.1763 207.0043,2065.5669 L207.0043,2066.5044 Q207.0043,2066.895 206.8481,2067.0669 Q206.6918,2067.2388 206.4575,2067.2388 Q206.2387,2067.2388 206.0981,2067.1138 Q205.9575,2066.9888 205.895,2066.6606 Q205.8637,2066.4263 205.7543,2066.3013 Q205.5356,2066.0669 205.1293,2065.9263 Q204.7387,2065.77 204.3481,2065.77 Q203.8481,2065.77 203.4262,2065.9888 Q203.02,2066.2075 202.6918,2066.6919 Q202.3793,2067.1763 202.3793,2067.8325 L202.3793,2068.5513 Q202.3793,2069.3481 202.9575,2069.8794 Q203.5356,2070.4106 204.5668,2070.4106 Q205.1762,2070.4106 205.5981,2070.2388 Q205.8481,2070.145 206.1293,2069.8638 Q206.3012,2069.6919 206.395,2069.645 Q206.4887,2069.5825 206.6137,2069.5825 Q206.8325,2069.5825 207.0043,2069.7544 Q207.1762,2069.9263 207.1762,2070.145 Q207.1762,2070.3638 206.9418,2070.6294 Q206.6137,2071.0044 206.0981,2071.2231 Q205.4106,2071.5044 204.5668,2071.5044 Q203.5981,2071.5044 202.8168,2071.1138 Q202.1762,2070.7856 201.7231,2070.0981 Q201.2856,2069.395 201.2856,2068.5669 L201.2856,2067.8169 Q201.2856,2066.9575 201.6762,2066.2231 Q202.0825,2065.4731 202.7856,2065.0825 Q203.5043,2064.6763 204.3012,2064.6763 Q204.77,2064.6763 205.1918,2064.7856 Q205.6137,2064.895 205.9731,2065.1138 Z " fill="#000000"/><text fill="#111827" font-family="Arial" font-size="10" lengthAdjust="spacing" textLength="56.1475" x="231.7623" y="2071.4785">Appointment</text><line style="stroke:#1D4ED8;stroke-width:1.5;" x1="168.5" x2="323.8516" y1="2088.5977" y2="2088.5977"/><text fill="#000000" font-family="Arial" font-size="10" lengthAdjust="spacing" textLength="43.0811" x="183.5" y="2111.9775">+id : Guid</text><text fill="#000000" font-family="Arial" font-size="10" lengthAdjust="spacing" textLength="66.9824" x="183.5" y="2143.4766">+clientId : Guid</text><text fill="#000000" font-family="Arial" font-size="10" lengthAdjust="spacing" textLength="74.7656" x="183.5" y="2174.9756">+vehicleId : Guid</text><text fill="#000000" font-family="Arial" font-size="10" lengthAdjust="spacing" textLength="74.7754" x="183.5" y="2206.4746">+garageId : Guid</text><text fill="#000000" font-family="Arial" font-size="10" lengthAdjust="spacing" textLength="119.7754" x="183.5" y="2237.9736">+symptomReportId : Guid?</text><text fill="#000000" font-family="Arial" font-size="10" lengthAdjust="spacing" textLength="119.2188" x="183.5" y="2269.4727">+preferredDate : DateTime</text><text fill="#000000" font-family="Arial" font-size="10" lengthAdjust="spacing" textLength="125.3516" x="183.5" y="2300.9717">+status : AppointmentStatus</text><line style="stroke:#1D4ED8;stroke-width:1.5;" x1="168.5" x2="323.8516" y1="2317.0908" y2="2317.0908"/></g><!--class RepairTask--><g id="elem_RepairTask"><rect codeLine="115" fill="#EFF6FF" height="246.4932" id="RepairTask" rx="2.5" ry="2.5" style="stroke:#1D4ED8;stroke-width:1.5;" width="152.3418" x="6" y="2415.0986"/><ellipse cx="42.9462" cy="2435.8481" fill="#ADD1B2" rx="9" ry="9" style="stroke:#181818;stroke-width:1;"/><path d="M44.4775,2433.1138 Q44.5712,2432.9731 44.6962,2432.9106 Q44.8212,2432.8325 44.9619,2432.8325 Q45.1962,2432.8325 45.3525,2433.0044 Q45.5087,2433.1763 45.5087,2433.5669 L45.5087,2434.5044 Q45.5087,2434.895 45.3525,2435.0669 Q45.1962,2435.2388 44.9619,2435.2388 Q44.7431,2435.2388 44.6025,2435.1138 Q44.4619,2434.9888 44.3994,2434.6606 Q44.3681,2434.4263 44.2587,2434.3013 Q44.04,2434.0669 43.6337,2433.9263 Q43.2431,2433.77 42.8525,2433.77 Q42.3525,2433.77 41.9306,2433.9888 Q41.5244,2434.2075 41.1962,2434.6919 Q40.8837,2435.1763 40.8837,2435.8325 L40.8837,2436.5513 Q40.8837,2437.3481 41.4619,2437.8794 Q42.04,2438.4106 43.0712,2438.4106 Q43.6806,2438.4106 44.1025,2438.2388 Q44.3525,2438.145 44.6337,2437.8638 Q44.8056,2437.6919 44.8994,2437.645 Q44.9931,2437.5825 45.1181,2437.5825 Q45.3369,2437.5825 45.5087,2437.7544 Q45.6806,2437.9263 45.6806,2438.145 Q45.6806,2438.3638 45.4462,2438.6294 Q45.1181,2439.0044 44.6025,2439.2231 Q43.915,2439.5044 43.0712,2439.5044 Q42.1025,2439.5044 41.3212,2439.1138 Q40.6806,2438.7856 40.2275,2438.0981 Q39.79,2437.395 39.79,2436.5669 L39.79,2435.8169 Q39.79,2434.9575 40.1806,2434.2231 Q40.5869,2433.4731 41.29,2433.0825 Q42.0087,2432.6763 42.8056,2432.6763 Q43.2744,2432.6763 43.6962,2432.7856 Q44.1181,2432.895 44.4775,2433.1138 Z " fill="#000000"/><text fill="#111827" font-family="Arial" font-size="10" lengthAdjust="spacing" textLength="51.1279" x="70.2676" y="2439.4785">RepairTask</text><line style="stroke:#1D4ED8;stroke-width:1.5;" x1="7" x2="157.3418" y1="2456.5977" y2="2456.5977"/><text fill="#000000" font-family="Arial" font-size="10" lengthAdjust="spacing" textLength="43.0811" x="22" y="2479.9775">+id : Guid</text><text fill="#000000" font-family="Arial" font-size="10" lengthAdjust="spacing" textLength="98.6768" x="22" y="2511.4766">+appointmentId : Guid</text><text fill="#000000" font-family="Arial" font-size="10" lengthAdjust="spacing" textLength="77.5293" x="22" y="2542.9756">+taskTitle : String</text><text fill="#000000" font-family="Arial" font-size="10" lengthAdjust="spacing" textLength="120.332" x="22" y="2574.4746">+status : RepairTaskStatus</text><text fill="#000000" font-family="Arial" font-size="10" lengthAdjust="spacing" textLength="106.9971" x="22" y="2605.9736">+assignedAt : DateTime</text><text fill="#000000" font-family="Arial" font-size="10" lengthAdjust="spacing" textLength="120.3418" x="22" y="2637.4727">+completionNotes : String?</text><line style="stroke:#1D4ED8;stroke-width:1.5;" x1="7" x2="157.3418" y1="2653.5918" y2="2653.5918"/></g><!--class Invoice--><g id="elem_Invoice"><rect codeLine="124" fill="#EFF6FF" height="246.4932" id="Invoice" rx="2.5" ry="2.5" style="stroke:#1D4ED8;stroke-width:1.5;" width="138.9922" x="176.5" y="2415.0986"/><ellipse cx="216.4038" cy="2435.8481" fill="#ADD1B2" rx="9" ry="9" style="stroke:#181818;stroke-width:1;"/><path d="M217.9351,2433.1138 Q218.0288,2432.9731 218.1538,2432.9106 Q218.2788,2432.8325 218.4194,2432.8325 Q218.6538,2432.8325 218.8101,2433.0044 Q218.9663,2433.1763 218.9663,2433.5669 L218.9663,2434.5044 Q218.9663,2434.895 218.8101,2435.0669 Q218.6538,2435.2388 218.4194,2435.2388 Q218.2007,2435.2388 218.0601,2435.1138 Q217.9194,2434.9888 217.8569,2434.6606 Q217.8257,2434.4263 217.7163,2434.3013 Q217.4976,2434.0669 217.0913,2433.9263 Q216.7007,2433.77 216.3101,2433.77 Q215.8101,2433.77 215.3882,2433.9888 Q214.9819,2434.2075 214.6538,2434.6919 Q214.3413,2435.1763 214.3413,2435.8325 L214.3413,2436.5513 Q214.3413,2437.3481 214.9194,2437.8794 Q215.4976,2438.4106 216.5288,2438.4106 Q217.1382,2438.4106 217.5601,2438.2388 Q217.8101,2438.145 218.0913,2437.8638 Q218.2632,2437.6919 218.3569,2437.645 Q218.4507,2437.5825 218.5757,2437.5825 Q218.7944,2437.5825 218.9663,2437.7544 Q219.1382,2437.9263 219.1382,2438.145 Q219.1382,2438.3638 218.9038,2438.6294 Q218.5757,2439.0044 218.0601,2439.2231 Q217.3726,2439.5044 216.5288,2439.5044 Q215.5601,2439.5044 214.7788,2439.1138 Q214.1382,2438.7856 213.6851,2438.0981 Q213.2476,2437.395 213.2476,2436.5669 L213.2476,2435.8169 Q213.2476,2434.9575 213.6382,2434.2231 Q214.0444,2433.4731 214.7476,2433.0825 Q215.4663,2432.6763 216.2632,2432.6763 Q216.7319,2432.6763 217.1538,2432.7856 Q217.5757,2432.895 217.9351,2433.1138 Z " fill="#000000"/><text fill="#111827" font-family="Arial" font-size="10" lengthAdjust="spacing" textLength="31.6846" x="243.9038" y="2439.4785">Invoice</text><line style="stroke:#1D4ED8;stroke-width:1.5;" x1="177.5" x2="314.4922" y1="2456.5977" y2="2456.5977"/><text fill="#000000" font-family="Arial" font-size="10" lengthAdjust="spacing" textLength="43.0811" x="192.5" y="2479.9775">+id : Guid</text><text fill="#000000" font-family="Arial" font-size="10" lengthAdjust="spacing" textLength="98.6768" x="192.5" y="2511.4766">+appointmentId : Guid</text><text fill="#000000" font-family="Arial" font-size="10" lengthAdjust="spacing" textLength="106.9922" x="192.5" y="2542.9756">+invoiceNumber : String</text><text fill="#000000" font-family="Arial" font-size="10" lengthAdjust="spacing" textLength="101.9971" x="192.5" y="2574.4746">+totalAmount : decimal</text><text fill="#000000" font-family="Arial" font-size="10" lengthAdjust="spacing" textLength="100.8887" x="192.5" y="2605.9736">+status : InvoiceStatus</text><text fill="#000000" font-family="Arial" font-size="10" lengthAdjust="spacing" textLength="99.2334" x="192.5" y="2637.4727">+clientApproved : bool</text><line style="stroke:#1D4ED8;stroke-width:1.5;" x1="177.5" x2="314.4922" y1="2653.5918" y2="2653.5918"/></g><!--class InvoiceLineItem--><g id="elem_InvoiceLineItem"><rect codeLine="133" fill="#EFF6FF" height="277.9922" id="InvoiceLineItem" rx="2.5" ry="2.5" style="stroke:#1D4ED8;stroke-width:1.5;" width="124.5537" x="183.5" y="2751.0986"/><ellipse cx="199.4316" cy="2771.8481" fill="#ADD1B2" rx="9" ry="9" style="stroke:#181818;stroke-width:1;"/><path d="M200.9628,2769.1138 Q201.0566,2768.9731 201.1816,2768.9106 Q201.3066,2768.8325 201.4472,2768.8325 Q201.6816,2768.8325 201.8378,2769.0044 Q201.9941,2769.1763 201.9941,2769.5669 L201.9941,2770.5044 Q201.9941,2770.895 201.8378,2771.0669 Q201.6816,2771.2388 201.4472,2771.2388 Q201.2285,2771.2388 201.0878,2771.1138 Q200.9472,2770.9888 200.8847,2770.6606 Q200.8535,2770.4263 200.7441,2770.3013 Q200.5253,2770.0669 200.1191,2769.9263 Q199.7285,2769.77 199.3378,2769.77 Q198.8378,2769.77 198.416,2769.9888 Q198.0097,2770.2075 197.6816,2770.6919 Q197.3691,2771.1763 197.3691,2771.8325 L197.3691,2772.5513 Q197.3691,2773.3481 197.9472,2773.8794 Q198.5253,2774.4106 199.5566,2774.4106 Q200.166,2774.4106 200.5878,2774.2388 Q200.8378,2774.145 201.1191,2773.8638 Q201.291,2773.6919 201.3847,2773.645 Q201.4785,2773.5825 201.6035,2773.5825 Q201.8222,2773.5825 201.9941,2773.7544 Q202.166,2773.9263 202.166,2774.145 Q202.166,2774.3638 201.9316,2774.6294 Q201.6035,2775.0044 201.0878,2775.2231 Q200.4003,2775.5044 199.5566,2775.5044 Q198.5878,2775.5044 197.8066,2775.1138 Q197.166,2774.7856 196.7128,2774.0981 Q196.2753,2773.395 196.2753,2772.5669 L196.2753,2771.8169 Q196.2753,2770.9575 196.666,2770.2231 Q197.0722,2769.4731 197.7753,2769.0825 Q198.4941,2768.6763 199.291,2768.6763 Q199.7597,2768.6763 200.1816,2768.7856 Q200.6035,2768.895 200.9628,2769.1138 Z " fill="#000000"/><text fill="#111827" font-family="Arial" font-size="10" lengthAdjust="spacing" textLength="70.0391" x="222.0831" y="2775.4785">InvoiceLineItem</text><line style="stroke:#1D4ED8;stroke-width:1.5;" x1="184.5" x2="307.0537" y1="2792.5977" y2="2792.5977"/><text fill="#000000" font-family="Arial" font-size="10" lengthAdjust="spacing" textLength="43.0811" x="199.5" y="2815.9775">+id : Guid</text><text fill="#000000" font-family="Arial" font-size="10" lengthAdjust="spacing" textLength="74.7656" x="199.5" y="2847.4766">+invoiceId : Guid</text><text fill="#000000" font-family="Arial" font-size="10" lengthAdjust="spacing" textLength="92.5537" x="199.5" y="2878.9756">+sparePartId : Guid?</text><text fill="#000000" font-family="Arial" font-size="10" lengthAdjust="spacing" textLength="88.6572" x="199.5" y="2910.4746">+description : String</text><text fill="#000000" font-family="Arial" font-size="10" lengthAdjust="spacing" textLength="59.7607" x="199.5" y="2941.9736">+quantity : int</text><text fill="#000000" font-family="Arial" font-size="10" lengthAdjust="spacing" textLength="87.5391" x="199.5" y="2973.4727">+unitPrice : decimal</text><text fill="#000000" font-family="Arial" font-size="10" lengthAdjust="spacing" textLength="86.4307" x="199.5" y="3004.9717">+lineTotal : decimal</text><line style="stroke:#1D4ED8;stroke-width:1.5;" x1="184.5" x2="307.0537" y1="3021.0908" y2="3021.0908"/></g><!--class Intervention--><g id="elem_Intervention"><rect codeLine="143" fill="#EFF6FF" height="277.9922" id="Intervention" rx="2.5" ry="2.5" style="stroke:#1D4ED8;stroke-width:1.5;" width="159.0117" x="333.5" y="2399.0986"/><ellipse cx="373.1279" cy="2419.8481" fill="#ADD1B2" rx="9" ry="9" style="stroke:#181818;stroke-width:1;"/><path d="M374.6592,2417.1138 Q374.7529,2416.9731 374.8779,2416.9106 Q375.0029,2416.8325 375.1436,2416.8325 Q375.3779,2416.8325 375.5342,2417.0044 Q375.6904,2417.1763 375.6904,2417.5669 L375.6904,2418.5044 Q375.6904,2418.895 375.5342,2419.0669 Q375.3779,2419.2388 375.1436,2419.2388 Q374.9248,2419.2388 374.7842,2419.1138 Q374.6436,2418.9888 374.5811,2418.6606 Q374.5498,2418.4263 374.4404,2418.3013 Q374.2217,2418.0669 373.8154,2417.9263 Q373.4248,2417.77 373.0342,2417.77 Q372.5342,2417.77 372.1123,2417.9888 Q371.7061,2418.2075 371.3779,2418.6919 Q371.0654,2419.1763 371.0654,2419.8325 L371.0654,2420.5513 Q371.0654,2421.3481 371.6436,2421.8794 Q372.2217,2422.4106 373.2529,2422.4106 Q373.8623,2422.4106 374.2842,2422.2388 Q374.5342,2422.145 374.8154,2421.8638 Q374.9873,2421.6919 375.0811,2421.645 Q375.1748,2421.5825 375.2998,2421.5825 Q375.5186,2421.5825 375.6904,2421.7544 Q375.8623,2421.9263 375.8623,2422.145 Q375.8623,2422.3638 375.6279,2422.6294 Q375.2998,2423.0044 374.7842,2423.2231 Q374.0967,2423.5044 373.2529,2423.5044 Q372.2842,2423.5044 371.5029,2423.1138 Q370.8623,2422.7856 370.4092,2422.0981 Q369.9717,2421.395 369.9717,2420.5669 L369.9717,2419.8169 Q369.9717,2418.9575 370.3623,2418.2231 Q370.7686,2417.4731 371.4717,2417.0825 Q372.1904,2416.6763 372.9873,2416.6763 Q373.4561,2416.6763 373.8779,2416.7856 Q374.2998,2416.895 374.6592,2417.1138 Z " fill="#000000"/><text fill="#111827" font-family="Arial" font-size="10" lengthAdjust="spacing" textLength="52.2559" x="400.6279" y="2423.4785">Intervention</text><line style="stroke:#1D4ED8;stroke-width:1.5;" x1="334.5" x2="491.5117" y1="2440.5977" y2="2440.5977"/><text fill="#000000" font-family="Arial" font-size="10" lengthAdjust="spacing" textLength="43.0811" x="349.5" y="2463.9775">+id : Guid</text><text fill="#000000" font-family="Arial" font-size="10" lengthAdjust="spacing" textLength="104.2383" x="349.5" y="2495.4766">+appointmentId : Guid?</text><text fill="#000000" font-family="Arial" font-size="10" lengthAdjust="spacing" textLength="80.3271" x="349.5" y="2526.9756">+invoiceId : Guid?</text><text fill="#000000" font-family="Arial" font-size="10" lengthAdjust="spacing" textLength="96.4355" x="349.5" y="2558.4746">+repairTaskId : Guid?</text><text fill="#000000" font-family="Arial" font-size="10" lengthAdjust="spacing" textLength="108.1104" x="349.5" y="2589.9736">+status : LifecycleStatus</text><text fill="#000000" font-family="Arial" font-size="10" lengthAdjust="spacing" textLength="127.0117" x="349.5" y="2621.4727">+paymentAmount : decimal?</text><text fill="#000000" font-family="Arial" font-size="10" lengthAdjust="spacing" textLength="117.5684" x="349.5" y="2652.9717">+paymentMethod : String?</text><line style="stroke:#1D4ED8;stroke-width:1.5;" x1="334.5" x2="491.5117" y1="2669.0908" y2="2669.0908"/></g><!--class Notification--><g id="elem_Notification"><rect codeLine="153" fill="#EFF6FF" height="246.4932" id="Notification" rx="2.5" ry="2.5" style="stroke:#1D4ED8;stroke-width:1.5;" width="132.3223" x="327" y="1312.5986"/><ellipse cx="355.6845" cy="1333.3481" fill="#ADD1B2" rx="9" ry="9" style="stroke:#181818;stroke-width:1;"/><path d="M357.2158,1330.6138 Q357.3095,1330.4731 357.4345,1330.4106 Q357.5595,1330.3325 357.7001,1330.3325 Q357.9345,1330.3325 358.0908,1330.5044 Q358.247,1330.6763 358.247,1331.0669 L358.247,1332.0044 Q358.247,1332.395 358.0908,1332.5669 Q357.9345,1332.7388 357.7001,1332.7388 Q357.4814,1332.7388 357.3408,1332.6138 Q357.2001,1332.4888 357.1376,1332.1606 Q357.1064,1331.9263 356.997,1331.8013 Q356.7783,1331.5669 356.372,1331.4263 Q355.9814,1331.27 355.5908,1331.27 Q355.0908,1331.27 354.6689,1331.4888 Q354.2626,1331.7075 353.9345,1332.1919 Q353.622,1332.6763 353.622,1333.3325 L353.622,1334.0513 Q353.622,1334.8481 354.2001,1335.3794 Q354.7783,1335.9106 355.8095,1335.9106 Q356.4189,1335.9106 356.8408,1335.7388 Q357.0908,1335.645 357.372,1335.3638 Q357.5439,1335.1919 357.6376,1335.145 Q357.7314,1335.0825 357.8564,1335.0825 Q358.0751,1335.0825 358.247,1335.2544 Q358.4189,1335.4263 358.4189,1335.645 Q358.4189,1335.8638 358.1845,1336.1294 Q357.8564,1336.5044 357.3408,1336.7231 Q356.6533,1337.0044 355.8095,1337.0044 Q354.8408,1337.0044 354.0595,1336.6138 Q353.4189,1336.2856 352.9658,1335.5981 Q352.5283,1334.895 352.5283,1334.0669 L352.5283,1333.3169 Q352.5283,1332.4575 352.9189,1331.7231 Q353.3251,1330.9731 354.0283,1330.5825 Q354.747,1330.1763 355.5439,1330.1763 Q356.0126,1330.1763 356.4345,1330.2856 Q356.8564,1330.395 357.2158,1330.6138 Z " fill="#000000"/><text fill="#111827" font-family="Arial" font-size="10" lengthAdjust="spacing" textLength="49.4678" x="381.17" y="1336.9785">Notification</text><line style="stroke:#1D4ED8;stroke-width:1.5;" x1="328" x2="458.3223" y1="1354.0977" y2="1354.0977"/><text fill="#000000" font-family="Arial" font-size="10" lengthAdjust="spacing" textLength="43.0811" x="343" y="1377.4775">+id : Guid</text><text fill="#000000" font-family="Arial" font-size="10" lengthAdjust="spacing" textLength="81.4355" x="343" y="1408.9766">+recipientId : Guid</text><text fill="#000000" font-family="Arial" font-size="10" lengthAdjust="spacing" textLength="55.8594" x="343" y="1440.4756">+title : String</text><text fill="#000000" font-family="Arial" font-size="10" lengthAdjust="spacing" textLength="80.874" x="343" y="1471.9746">+message : String</text><text fill="#000000" font-family="Arial" font-size="10" lengthAdjust="spacing" textLength="64.209" x="343" y="1503.4736">+isRead : bool</text><text fill="#000000" font-family="Arial" font-size="10" lengthAdjust="spacing" textLength="100.3223" x="343" y="1534.9727">+createdAt : DateTime</text><line style="stroke:#1D4ED8;stroke-width:1.5;" x1="328" x2="458.3223" y1="1551.0918" y2="1551.0918"/></g><polygon fill="#374151" points="344,388.8259,348,379.8259,344,383.8259,340,379.8259,344,388.8259" style="stroke:#374151;stroke-width:1;"/><path d="M344,315.2215 C344,338.7286 344,357.8373 344,382.8259 " fill="none" style="stroke:#374151;stroke-width:1.5;"/><text fill="#B91C1C" font-family="Arial" font-size="13" font-weight="bold" lengthAdjust="spacing" textLength="52.7427" x="356" y="357.2925">poss&#232;de</text><text fill="#B91C1C" font-family="Arial" font-size="13" font-weight="bold" lengthAdjust="spacing" textLength="19.5127" x="314" y="376.0198">0..*</text><text fill="#B91C1C" font-family="Arial" font-size="13" font-weight="bold" lengthAdjust="spacing" textLength="7.23" x="326" y="338.4154">1</text><polygon fill="#374151" points="279.1919,834.9593,284.8875,826.9244,280.1775,830.0574,277.0445,825.3474,279.1919,834.9593" style="stroke:#374151;stroke-width:1;"/><path d="M295.0758,761.277 C293.6741,767.281 292.3115,773.2334 291,779.0986 C286.9596,797.1675 284.1758,810.172 280.3746,829.077 " fill="none" style="stroke:#374151;stroke-width:1.5;"/><text fill="#B91C1C" font-family="Arial" font-size="13" font-weight="bold" lengthAdjust="spacing" textLength="49.1245" x="303" y="803.2925">emploie</text><text fill="#B91C1C" font-family="Arial" font-size="13" font-weight="bold" lengthAdjust="spacing" textLength="19.5127" x="249.1919" y="822.1531">0..*</text><text fill="#B91C1C" font-family="Arial" font-size="13" font-weight="bold" lengthAdjust="spacing" textLength="7.23" x="277.0758" y="784.4708">1</text><polygon fill="#374151" points="246,1280.9175,250,1271.9175,246,1275.9175,242,1271.9175,246,1280.9175" style="stroke:#374151;stroke-width:1;"/><path d="M246,1207.2329 C246,1231.8635 246,1250.9 246,1274.9175 " fill="none" style="stroke:#374151;stroke-width:1.5;"/><text fill="#B91C1C" font-family="Arial" font-size="13" font-weight="bold" lengthAdjust="spacing" textLength="52.7427" x="258" y="1249.2925">poss&#232;de</text><text fill="#B91C1C" font-family="Arial" font-size="13" font-weight="bold" lengthAdjust="spacing" textLength="19.5127" x="216" y="1268.1114">0..*</text><text fill="#B91C1C" font-family="Arial" font-size="13" font-weight="bold" lengthAdjust="spacing" textLength="7.23" x="228" y="1230.4267">1</text><polygon fill="#374151" points="146.6489,1327.937,153.2338,1320.6131,148.1937,1323.1816,145.6252,1318.1415,146.6489,1327.937" style="stroke:#374151;stroke-width:1;"/><path d="M185.8594,1207.2329 C172.4313,1248.5695 160.4855,1285.3429 148.5026,1322.2305 " fill="none" style="stroke:#374151;stroke-width:1.5;stroke-dasharray:7.0,7.0;"/><text fill="#B91C1C" font-family="Arial" font-size="13" font-weight="bold" lengthAdjust="spacing" textLength="36.8608" x="191" y="1249.2925">&#171;use&#187;</text><polygon fill="#374151" points="376.0248,866.2824,379.0134,856.8979,375.4763,861.3126,371.0617,857.7755,376.0248,866.2824" style="stroke:#374151;stroke-width:1;"/><path d="M364.4256,761.1795 C368.2858,796.1576 371.6267,826.43 375.3666,860.3186 " fill="none" style="stroke:#374151;stroke-width:1.5;"/><text fill="#B91C1C" font-family="Arial" font-size="13" font-weight="bold" lengthAdjust="spacing" textLength="41.1899" x="382" y="803.2925">stocke</text><text fill="#B91C1C" font-family="Arial" font-size="13" font-weight="bold" lengthAdjust="spacing" textLength="19.5127" x="346.0248" y="853.4762">0..*</text><text fill="#B91C1C" font-family="Arial" font-size="13" font-weight="bold" lengthAdjust="spacing" textLength="7.23" x="375.4256" y="784.3734">1</text><polygon fill="#374151" points="246,1663.8729,250,1654.8729,246,1658.8729,242,1654.8729,246,1663.8729" style="stroke:#374151;stroke-width:1;"/><path d="M246,1590.1933 C246,1614.4749 246,1633.5883 246,1657.8729 " fill="none" style="stroke:#374151;stroke-width:1.5;"/><text fill="#B91C1C" font-family="Arial" font-size="13" font-weight="bold" lengthAdjust="spacing" textLength="35.4009" x="258" y="1632.2925">d&#233;crit</text><text fill="#B91C1C" font-family="Arial" font-size="13" font-weight="bold" lengthAdjust="spacing" textLength="19.5127" x="216" y="1651.0668">0..*</text><text fill="#B91C1C" font-family="Arial" font-size="13" font-weight="bold" lengthAdjust="spacing" textLength="7.23" x="228" y="1613.3872">1</text><polygon fill="#374151" points="246,2046.8175,250,2037.8175,246,2041.8175,242,2037.8175,246,2046.8175" style="stroke:#374151;stroke-width:1;"/><path d="M246,1973.2795 C246,1997.6828 246,2016.7958 246,2040.8175 " fill="none" style="stroke:#374151;stroke-width:1.5;"/><text fill="#B91C1C" font-family="Arial" font-size="13" font-weight="bold" lengthAdjust="spacing" textLength="42.6309" x="258" y="2015.2925">g&#233;n&#232;re</text><text fill="#B91C1C" font-family="Arial" font-size="13" font-weight="bold" lengthAdjust="spacing" textLength="19.5127" x="216" y="2034.0113">0..*</text><text fill="#B91C1C" font-family="Arial" font-size="13" font-weight="bold" lengthAdjust="spacing" textLength="21.6836" x="214" y="1996.4734">0..1</text><polygon fill="#374151" points="139.256,2414.9059,146.6968,2408.4534,141.3775,2410.3783,139.4526,2405.059,139.256,2414.9059" style="stroke:#374151;stroke-width:1;"/><path d="M181.3006,2325.1767 C167.415,2354.8105 155.3818,2380.4911 141.8018,2409.4728 " fill="none" style="stroke:#374151;stroke-width:1.5;"/><text fill="#B91C1C" font-family="Arial" font-size="13" font-weight="bold" lengthAdjust="spacing" textLength="26.749" x="181" y="2367.2925">cr&#233;e</text><text fill="#B91C1C" font-family="Arial" font-size="13" font-weight="bold" lengthAdjust="spacing" textLength="21.6836" x="107.256" y="2402.0998">0..1</text><text fill="#B91C1C" font-family="Arial" font-size="13" font-weight="bold" lengthAdjust="spacing" textLength="7.23" x="163.3006" y="2348.3705">1</text><polygon fill="#374151" points="246,2414.9059,250,2405.9059,246,2409.9059,242,2405.9059,246,2414.9059" style="stroke:#374151;stroke-width:1;"/><path d="M246,2325.1767 C246,2354.8105 246,2379.9242 246,2408.9059 " fill="none" style="stroke:#374151;stroke-width:1.5;"/><text fill="#B91C1C" font-family="Arial" font-size="13" font-weight="bold" lengthAdjust="spacing" textLength="44.7637" x="258" y="2367.2925">produit</text><text fill="#B91C1C" font-family="Arial" font-size="13" font-weight="bold" lengthAdjust="spacing" textLength="21.6836" x="214" y="2402.0998">0..1</text><text fill="#B91C1C" font-family="Arial" font-size="13" font-weight="bold" lengthAdjust="spacing" textLength="7.23" x="228" y="2348.3705">1</text><polygon fill="#374151" points="347.1131,2399.0123,346.8475,2389.167,344.9599,2394.4996,339.6273,2392.6121,347.1131,2399.0123" style="stroke:#374151;stroke-width:1;"/><path d="M311.8829,2325.1767 C323.4683,2349.4573 332.9438,2369.3163 344.5293,2393.5971 " fill="none" style="stroke:#374151;stroke-width:1.5;"/><text fill="#B91C1C" font-family="Arial" font-size="13" font-weight="bold" lengthAdjust="spacing" textLength="54.9199" x="347" y="2367.2925">trac&#233; par</text><text fill="#B91C1C" font-family="Arial" font-size="13" font-weight="bold" lengthAdjust="spacing" textLength="21.6836" x="315.1131" y="2386.2061">0..1</text><text fill="#B91C1C" font-family="Arial" font-size="13" font-weight="bold" lengthAdjust="spacing" textLength="7.23" x="322.8829" y="2348.3705">1</text><polygon fill="#374151" points="246,2661.5116,242,2667.5116,246,2673.5116,250,2667.5116,246,2661.5116" style="stroke:#374151;stroke-width:1;"/><polygon fill="#374151" points="246,2750.8989,250,2741.8989,246,2745.8989,242,2741.8989,246,2750.8989" style="stroke:#374151;stroke-width:1;"/><path d="M246,2673.5116 C246,2702.391 246,2715.3767 246,2744.8989 " fill="none" style="stroke:#374151;stroke-width:1.5;"/><text fill="#B91C1C" font-family="Arial" font-size="13" font-weight="bold" lengthAdjust="spacing" textLength="50.5527" x="258" y="2719.2925">contient</text><text fill="#B91C1C" font-family="Arial" font-size="13" font-weight="bold" lengthAdjust="spacing" textLength="19.5127" x="216" y="2738.0928">1..*</text><text fill="#B91C1C" font-family="Arial" font-size="13" font-weight="bold" lengthAdjust="spacing" textLength="7.23" x="228" y="2684.7055">1</text><polygon fill="#374151" points="355.4653,1312.5609,356.5154,1302.7682,353.9333,1307.8014,348.9001,1305.2193,355.4653,1312.5609" style="stroke:#374151;stroke-width:1;"/><path d="M315.0678,1195.122 C318.832,1205.2395 322.5018,1215.2863 326,1225.0986 C336.0342,1253.2442 344.3558,1278.0459 353.6269,1306.8495 " fill="none" style="stroke:#374151;stroke-width:1.5;"/><text fill="#B91C1C" font-family="Arial" font-size="13" font-weight="bold" lengthAdjust="spacing" textLength="35.4009" x="350" y="1249.2925">re&#231;oit</text><text fill="#B91C1C" font-family="Arial" font-size="13" font-weight="bold" lengthAdjust="spacing" textLength="19.5127" x="325.4653" y="1299.7547">0..*</text><text fill="#B91C1C" font-family="Arial" font-size="13" font-weight="bold" lengthAdjust="spacing" textLength="7.23" x="326.0678" y="1218.3158">1</text><!--SRC=[fLPTRkCs47xNATZqeS0M6qJvtJKM2HmxoGR81cdizfsMnZ9XYbH9oWjlKQ27w1swEOTlqfDqI5asHTFP5irBhE5mvfkFtmpvNQLeKLB2wLBMXkWI31KqqNCcAgfeIIOqcnTArY8VI2uL-VxM_NaUEKnfpSsj5EQHba3wYb4UNn-nBq3Ir5iSSAhrjLGvg7NyT7XwCtmNTndFM3ONe3L93yz2buz0qUKwn7jyTdvoSnrtjfZsbHMuZSoI0vb8dh_Yuyexti4UGhgvlJtVpUM1ITFqtV55p64FWtrZ59lK1hO-HvvFNodvUHtxvE8qFKl3nNtCkiLjq9FeKeoQpUewxVNxT90EF8T7QU0w8gxhpc4vBryUm_SN5qVddiUO6UwLVHfTYY6iQ9upKNIPoZfitcTIkB17IM9iC39aj40_b7aE3VMWoHsN4yh9tt_yIJv1Hfzf0KdY8f4n22eC-IqXv4V2Sj8ZTpNBtPUmpT8Z8ymb2cVHl2ww5YWfurrJDPCYsCTqFpDiOQqJANdoUvlz3cig89hTE63ttq2452ahYeunOsRvJKoS8c5rRgsvh2SShXgp54NCJlEIYGsQgzVB-bc3YXOrPKetGoZ04hF6kCNedr5j7wcUTLUKv7QxpVoCFsCKDg0BHtbWL3156cTZEGUnYRktI11rkSdawXpL5QY-fGW_tFyROHHKYcaBPJ23QTy0Pw3moqfGi8o1THwWKPWjTRy0DZgFIo9plbr9J1GLUPUAKkOGyBO4gj32C9FZcsKWD3oX1WBEfpNmyR8Ah2NZO7NQHDXW7M5BmXDLyVO9Y6uga7aGUbVI6O8gf0eKN0jcdXJYjhg4Z9LuXRcMD3AR_-JqtbQdmCsZ1rWu6hgGbsLbPFaCbTm3EqRoeZcKhb4teVGGTAPOPPWKGM-o9mKvompazrhN40YBie4KKvQ3o62KIMNNfrnISxKkZ9hQDROFUUIiZKCzAPd1u7s3NaDaRSnAs9RQhog9jPSW_cUXiOFKFgYWcIhi9b1O-h2HrmPQfomFthge3NACIfaQKpsF0gVRdLrG1dUuAoMOsctARLoFHap82X6os8Yrh3ZOSxMNdFQERuFqNYoarUH_WicQJOzrEG7LXMgaeRnVueLhTdI-BcATqgkWEKZaKya5v3l3UBtXWGcuDr16iQuX1MVSjdTmlla-mVzQuxXbdLxSrxOSqOnjiPxTGsn0BR0cc-7VKdiLBQGTx-t11miRLX_O5B8bIj_ZjQ9Bco4yZYj_yHEOcSnZqa3Di2d3ORQl28NXgjqMDBi2Bl66RyPlvqtnZE_QzhIT3XJGs3Zu0ONF7GvDw08odB0A7rQKCxDwqSdw1NIG7f2tRo_9mT7XuPk3zcNI8vNKUlKrXsHj2VpSLT_3kxhYaa7YFWENzahpOZctmyFBxItQ8ny-r1ekB_VasTurlMRcGzB63Jqx8nwFRVM2SZL9rswTk_lyUTaZnUf5hBugI7opdmb_UdEgX-olNbxrRcS5qg1aNYEYLvsz5kWHesYsUa7HgQGDOpUySJjI1pziSqI43sltk8WTIaUUFHJZwY-9aFu1]--></g></svg>