<svg xmlns="http://www.w3.org/2000/svg" xmlns:xlink="http://www.w3.org/1999/xlink" contentStyleType="text/css" height="926px" preserveAspectRatio="none" style="width:484px;height:926px;background:#FFFFFF;" version="1.1" viewBox="0 0 484 926" width="484px" zoomAndPan="magnify"><title>Sprint 2 &#8212; Classes : Donn&#233;es de R&#233;f&#233;rence</title><defs/><g><text fill="#000000" font-family="Arial" font-size="14" font-weight="bold" lengthAdjust="spacing" textLength="290.2129" x="92.8936" y="33.1318">Sprint 2 &#8212; Classes : Donn&#233;es de R&#233;f&#233;rence</text><!--class Garage--><g id="elem_Garage"><rect codeLine="27" fill="#EFF6FF" height="403.9883" id="Garage" rx="2.5" ry="2.5" style="stroke:#1D4ED8;stroke-width:1.5;" width="153.9971" x="183.5" y="69.0986"/><ellipse cx="230.0713" cy="89.8481" fill="#ADD1B2" rx="9" ry="9" style="stroke:#181818;stroke-width:1;"/><path d="M231.6025,87.1138 Q231.6963,86.9731 231.8213,86.9106 Q231.9463,86.8325 232.0869,86.8325 Q232.3213,86.8325 232.4775,87.0044 Q232.6338,87.1763 232.6338,87.5669 L232.6338,88.5044 Q232.6338,88.895 232.4775,89.0669 Q232.3213,89.2388 232.0869,89.2388 Q231.8682,89.2388 231.7275,89.1138 Q231.5869,88.9888 231.5244,88.6606 Q231.4932,88.4263 231.3838,88.3013 Q231.165,88.0669 230.7588,87.9263 Q230.3682,87.77 229.9775,87.77 Q229.4775,87.77 229.0557,87.9888 Q228.6494,88.2075 228.3213,88.6919 Q228.0088,89.1763 228.0088,89.8325 L228.0088,90.5513 Q228.0088,91.3481 228.5869,91.8794 Q229.165,92.4106 230.1963,92.4106 Q230.8057,92.4106 231.2275,92.2388 Q231.4775,92.145 231.7588,91.8638 Q231.9307,91.6919 232.0244,91.645 Q232.1182,91.5825 232.2432,91.5825 Q232.4619,91.5825 232.6338,91.7544 Q232.8057,91.9263 232.8057,92.145 Q232.8057,92.3638 232.5713,92.6294 Q232.2432,93.0044 231.7275,93.2231 Q231.04,93.5044 230.1963,93.5044 Q229.2275,93.5044 228.4463,93.1138 Q227.8057,92.7856 227.3525,92.0981 Q226.915,91.395 226.915,90.5669 L226.915,89.8169 Q226.915,88.9575 227.3057,88.2231 Q227.7119,87.4731 228.415,87.0825 Q229.1338,86.6763 229.9307,86.6763 Q230.3994,86.6763 230.8213,86.7856 Q231.2432,86.895 231.6025,87.1138 Z " fill="#000000"/><text fill="#111827" font-family="Arial" font-size="10" lengthAdjust="spacing" textLength="33.3545" x="257.5713" y="93.4785">Garage</text><line style="stroke:#1D4ED8;stroke-width:1.5;" x1="184.5" x2="336.4971" y1="110.5977" y2="110.5977"/><text fill="#000000" font-family="Arial" font-size="10" lengthAdjust="spacing" textLength="43.0811" x="199.5" y="133.9775">+id : Guid</text><text fill="#000000" font-family="Arial" font-size="10" lengthAdjust="spacing" textLength="71.4404" x="199.5" y="165.4766">+tenantId : Guid</text><text fill="#000000" font-family="Arial" font-size="10" lengthAdjust="spacing" textLength="65.3125" x="199.5" y="196.9756">+name : String</text><text fill="#000000" font-family="Arial" font-size="10" lengthAdjust="spacing" textLength="75.874" x="199.5" y="228.4746">+address : String</text><text fill="#000000" font-family="Arial" font-size="10" lengthAdjust="spacing" textLength="55.2979" x="199.5" y="259.9736">+city : String</text><text fill="#000000" font-family="Arial" font-size="10" lengthAdjust="spacing" textLength="68.1055" x="199.5" y="291.4727">+phone : String</text><text fill="#000000" font-family="Arial" font-size="10" lengthAdjust="spacing" textLength="82.0117" x="199.5" y="322.9717">+latitude : double?</text><text fill="#000000" font-family="Arial" font-size="10" lengthAdjust="spacing" textLength="90.3564" x="199.5" y="354.4707">+longitude : double?</text><text fill="#000000" font-family="Arial" font-size="10" lengthAdjust="spacing" textLength="76.4355" x="199.5" y="385.9697">+adminId : Guid?</text><text fill="#000000" font-family="Arial" font-size="10" lengthAdjust="spacing" textLength="67.5342" x="199.5" y="417.4688">+isActive : bool</text><line style="stroke:#1D4ED8;stroke-width:1;stroke-dasharray:1.0,2.0;" x1="184.5" x2="336.4971" y1="433.5879" y2="433.5879"/><text fill="#000000" font-family="Arial" font-size="10" lengthAdjust="spacing" textLength="121.9971" x="199.5" y="456.9678">+CreateGarageCommand()</text></g><!--class Vehicle--><g id="elem_Vehicle"><rect codeLine="42" fill="#EFF6FF" height="372.4893" id="Vehicle" rx="2.5" ry="2.5" style="stroke:#1D4ED8;stroke-width:1.5;" width="153.4404" x="6" y="547.0986"/><ellipse cx="52.5713" cy="567.8481" fill="#ADD1B2" rx="9" ry="9" style="stroke:#181818;stroke-width:1;"/><path d="M54.1025,565.1138 Q54.1963,564.9731 54.3213,564.9106 Q54.4463,564.8325 54.5869,564.8325 Q54.8213,564.8325 54.9775,565.0044 Q55.1338,565.1763 55.1338,565.5669 L55.1338,566.5044 Q55.1338,566.895 54.9775,567.0669 Q54.8213,567.2388 54.5869,567.2388 Q54.3682,567.2388 54.2275,567.1138 Q54.0869,566.9888 54.0244,566.6606 Q53.9932,566.4263 53.8838,566.3013 Q53.665,566.0669 53.2588,565.9263 Q52.8682,565.77 52.4775,565.77 Q51.9775,565.77 51.5557,565.9888 Q51.1494,566.2075 50.8213,566.6919 Q50.5088,567.1763 50.5088,567.8325 L50.5088,568.5513 Q50.5088,569.3481 51.0869,569.8794 Q51.665,570.4106 52.6963,570.4106 Q53.3057,570.4106 53.7275,570.2388 Q53.9775,570.145 54.2588,569.8638 Q54.4307,569.6919 54.5244,569.645 Q54.6182,569.5825 54.7432,569.5825 Q54.9619,569.5825 55.1338,569.7544 Q55.3057,569.9263 55.3057,570.145 Q55.3057,570.3638 55.0713,570.6294 Q54.7432,571.0044 54.2275,571.2231 Q53.54,571.5044 52.6963,571.5044 Q51.7275,571.5044 50.9463,571.1138 Q50.3057,570.7856 49.8525,570.0981 Q49.415,569.395 49.415,568.5669 L49.415,567.8169 Q49.415,566.9575 49.8057,566.2231 Q50.2119,565.4731 50.915,565.0825 Q51.6338,564.6763 52.4307,564.6763 Q52.8994,564.6763 53.3213,564.7856 Q53.7432,564.895 54.1025,565.1138 Z " fill="#000000"/><text fill="#111827" font-family="Arial" font-size="10" lengthAdjust="spacing" textLength="32.7979" x="80.0713" y="571.4785">Vehicle</text><line style="stroke:#1D4ED8;stroke-width:1.5;" x1="7" x2="158.4404" y1="588.5977" y2="588.5977"/><text fill="#000000" font-family="Arial" font-size="10" lengthAdjust="spacing" textLength="43.0811" x="22" y="611.9775">+id : Guid</text><text fill="#000000" font-family="Arial" font-size="10" lengthAdjust="spacing" textLength="66.9824" x="22" y="643.4766">+clientId : Guid</text><text fill="#000000" font-family="Arial" font-size="10" lengthAdjust="spacing" textLength="65.874" x="22" y="674.9756">+brand : String</text><text fill="#000000" font-family="Arial" font-size="10" lengthAdjust="spacing" textLength="67.5342" x="22" y="706.4746">+model : String</text><text fill="#000000" font-family="Arial" font-size="10" lengthAdjust="spacing" textLength="44.1895" x="22" y="737.9736">+year : int</text><text fill="#000000" font-family="Arial" font-size="10" lengthAdjust="spacing" textLength="94.2188" x="22" y="769.4727">+licensePlate : String</text><text fill="#000000" font-family="Arial" font-size="10" lengthAdjust="spacing" textLength="78.6523" x="22" y="800.9717">+fuelType : String</text><text fill="#000000" font-family="Arial" font-size="10" lengthAdjust="spacing" textLength="59.7559" x="22" y="832.4707">+mileage : int</text><text fill="#000000" font-family="Arial" font-size="10" lengthAdjust="spacing" textLength="58.6426" x="22" y="863.9697">+vin : String?</text><line style="stroke:#1D4ED8;stroke-width:1;stroke-dasharray:1.0,2.0;" x1="7" x2="158.4404" y1="880.0889" y2="880.0889"/><text fill="#000000" font-family="Arial" font-size="10" lengthAdjust="spacing" textLength="121.4404" x="22" y="903.4688">+CreateVehicleCommand()</text></g><!--class SparePart--><g id="elem_SparePart"><rect codeLine="56" fill="#EFF6FF" height="372.4893" id="SparePart" rx="2.5" ry="2.5" style="stroke:#1D4ED8;stroke-width:1.5;" width="165.667" x="177.5" y="547.0986"/><ellipse cx="224.0713" cy="567.8481" fill="#ADD1B2" rx="9" ry="9" style="stroke:#181818;stroke-width:1;"/><path d="M225.6025,565.1138 Q225.6963,564.9731 225.8213,564.9106 Q225.9463,564.8325 226.0869,564.8325 Q226.3213,564.8325 226.4775,565.0044 Q226.6338,565.1763 226.6338,565.5669 L226.6338,566.5044 Q226.6338,566.895 226.4775,567.0669 Q226.3213,567.2388 226.0869,567.2388 Q225.8682,567.2388 225.7275,567.1138 Q225.5869,566.9888 225.5244,566.6606 Q225.4932,566.4263 225.3838,566.3013 Q225.165,566.0669 224.7588,565.9263 Q224.3682,565.77 223.9775,565.77 Q223.4775,565.77 223.0557,565.9888 Q222.6494,566.2075 222.3213,566.6919 Q222.0088,567.1763 222.0088,567.8325 L222.0088,568.5513 Q222.0088,569.3481 222.5869,569.8794 Q223.165,570.4106 224.1963,570.4106 Q224.8057,570.4106 225.2275,570.2388 Q225.4775,570.145 225.7588,569.8638 Q225.9307,569.6919 226.0244,569.645 Q226.1182,569.5825 226.2432,569.5825 Q226.4619,569.5825 226.6338,569.7544 Q226.8057,569.9263 226.8057,570.145 Q226.8057,570.3638 226.5713,570.6294 Q226.2432,571.0044 225.7275,571.2231 Q225.04,571.5044 224.1963,571.5044 Q223.2275,571.5044 222.4463,571.1138 Q221.8057,570.7856 221.3525,570.0981 Q220.915,569.395 220.915,568.5669 L220.915,567.8169 Q220.915,566.9575 221.3057,566.2231 Q221.7119,565.4731 222.415,565.0825 Q223.1338,564.6763 223.9307,564.6763 Q224.3994,564.6763 224.8213,564.7856 Q225.2432,564.895 225.6025,565.1138 Z " fill="#000000"/><text fill="#111827" font-family="Arial" font-size="10" lengthAdjust="spacing" textLength="45.0244" x="251.5713" y="571.4785">SparePart</text><line style="stroke:#1D4ED8;stroke-width:1.5;" x1="178.5" x2="342.167" y1="588.5977" y2="588.5977"/><text fill="#000000" font-family="Arial" font-size="10" lengthAdjust="spacing" textLength="43.0811" x="193.5" y="611.9775">+id : Guid</text><text fill="#000000" font-family="Arial" font-size="10" lengthAdjust="spacing" textLength="74.7754" x="193.5" y="643.4766">+garageId : Guid</text><text fill="#000000" font-family="Arial" font-size="10" lengthAdjust="spacing" textLength="61.9824" x="193.5" y="674.9756">+code : String</text><text fill="#000000" font-family="Arial" font-size="10" lengthAdjust="spacing" textLength="65.3125" x="193.5" y="706.4746">+name : String</text><text fill="#000000" font-family="Arial" font-size="10" lengthAdjust="spacing" textLength="78.6523" x="193.5" y="737.9736">+category : String</text><text fill="#000000" font-family="Arial" font-size="10" lengthAdjust="spacing" textLength="87.5391" x="193.5" y="769.4727">+unitPrice : decimal</text><text fill="#000000" font-family="Arial" font-size="10" lengthAdjust="spacing" textLength="63.6328" x="193.5" y="800.9717">+stockQty : int</text><text fill="#000000" font-family="Arial" font-size="10" lengthAdjust="spacing" textLength="80.8789" x="193.5" y="832.4707">+reorderLevel : int</text><text fill="#000000" font-family="Arial" font-size="10" lengthAdjust="spacing" textLength="67.5342" x="193.5" y="863.9697">+isActive : bool</text><line style="stroke:#1D4ED8;stroke-width:1;stroke-dasharray:1.0,2.0;" x1="178.5" x2="342.167" y1="880.0889" y2="880.0889"/><text fill="#000000" font-family="Arial" font-size="10" lengthAdjust="spacing" textLength="133.667" x="193.5" y="903.4688">+CreateSparePartCommand()</text></g><!--class User--><g id="elem_User"><rect codeLine="70" fill="#EFF6FF" height="310.6411" id="User" rx="2.5" ry="2.5" style="stroke:#1D4ED8;stroke-width:1.5;" width="115.0811" x="362" y="577.5986"/><ellipse cx="379.1911" cy="614.6726" fill="#ADD1B2" rx="9" ry="9" style="stroke:#181818;stroke-width:1;"/><path d="M380.7223,611.9382 Q380.8161,611.7976 380.9411,611.7351 Q381.0661,611.657 381.2067,611.657 Q381.4411,611.657 381.5973,611.8289 Q381.7536,612.0007 381.7536,612.3914 L381.7536,613.3289 Q381.7536,613.7195 381.5973,613.8914 Q381.4411,614.0632 381.2067,614.0632 Q380.9879,614.0632 380.8473,613.9382 Q380.7067,613.8132 380.6442,613.4851 Q380.6129,613.2507 380.5036,613.1257 Q380.2848,612.8914 379.8786,612.7507 Q379.4879,612.5945 379.0973,612.5945 Q378.5973,612.5945 378.1754,612.8132 Q377.7692,613.032 377.4411,613.5164 Q377.1286,614.0007 377.1286,614.657 L377.1286,615.3757 Q377.1286,616.1726 377.7067,616.7039 Q378.2848,617.2351 379.3161,617.2351 Q379.9254,617.2351 380.3473,617.0632 Q380.5973,616.9695 380.8786,616.6882 Q381.0504,616.5164 381.1442,616.4695 Q381.2379,616.407 381.3629,616.407 Q381.5817,616.407 381.7536,616.5789 Q381.9254,616.7507 381.9254,616.9695 Q381.9254,617.1882 381.6911,617.4539 Q381.3629,617.8289 380.8473,618.0476 Q380.1598,618.3289 379.3161,618.3289 Q378.3473,618.3289 377.5661,617.9382 Q376.9254,617.6101 376.4723,616.9226 Q376.0348,616.2195 376.0348,615.3914 L376.0348,614.6414 Q376.0348,613.782 376.4254,613.0476 Q376.8317,612.2976 377.5348,611.907 Q378.2536,611.5007 379.0504,611.5007 Q379.5192,611.5007 379.9411,611.6101 Q380.3629,611.7195 380.7223,611.9382 Z " fill="#000000"/><text fill="#000000" font-family="Arial" font-size="11" font-style="italic" lengthAdjust="spacing" textLength="61.7676" x="400.1224" y="602.9165">&#171;Personnel&#187;</text><text fill="#111827" font-family="Arial" font-size="10" lengthAdjust="spacing" textLength="21.1133" x="420.4496" y="634.6274">User</text><line style="stroke:#1D4ED8;stroke-width:1.5;" x1="363" x2="476.0811" y1="651.7466" y2="651.7466"/><text fill="#000000" font-family="Arial" font-size="10" lengthAdjust="spacing" textLength="43.0811" x="378" y="675.1265">+id : Guid</text><text fill="#000000" font-family="Arial" font-size="10" lengthAdjust="spacing" textLength="83.0811" x="378" y="706.6255">+firstName : String</text><text fill="#000000" font-family="Arial" font-size="10" lengthAdjust="spacing" textLength="82.5342" x="378" y="738.1245">+lastName : String</text><text fill="#000000" font-family="Arial" font-size="10" lengthAdjust="spacing" textLength="64.1943" x="378" y="769.6235">+email : String</text><text fill="#000000" font-family="Arial" font-size="10" lengthAdjust="spacing" textLength="72.5293" x="378" y="801.1226">+role : UserRole</text><text fill="#000000" font-family="Arial" font-size="10" lengthAdjust="spacing" textLength="80.3369" x="378" y="832.6216">+garageId : Guid?</text><text fill="#000000" font-family="Arial" font-size="10" lengthAdjust="spacing" textLength="67.5342" x="378" y="864.1206">+isActive : bool</text><line style="stroke:#1D4ED8;stroke-width:1.5;" x1="363" x2="476.0811" y1="880.2397" y2="880.2397"/></g><polygon fill="none" points="330.0084,473.1921,328.188,480.1697,333.9287,484.5337,335.7491,477.5562,330.0084,473.1921" style="stroke:#374151;stroke-width:1;"/><polygon fill="#374151" points="366.0323,577.4123,366.8727,567.5994,364.3989,572.6866,359.3116,570.2129,366.0323,577.4123" style="stroke:#374151;stroke-width:1;"/><path d="M333.9287,484.5337 C346.0036,519.4674 352.5106,538.2927 364.0722,571.7415 " fill="none" style="stroke:#374151;stroke-width:1.5;"/><text fill="#B91C1C" font-family="Arial" font-size="13" font-weight="bold" lengthAdjust="spacing" textLength="49.1245" x="357.5" y="515.2925">emploie</text><text fill="#B91C1C" font-family="Arial" font-size="13" font-weight="bold" lengthAdjust="spacing" textLength="19.5127" x="377.0323" y="564.6062">0..*</text><text fill="#B91C1C" font-family="Arial" font-size="13" font-weight="bold" lengthAdjust="spacing" textLength="7.23" x="326.5084" y="496.386">1</text><polygon fill="none" points="183.4619,471.1859,177.5661,475.3381,179.1313,482.3773,185.027,478.2251,183.4619,471.1859" style="stroke:#374151;stroke-width:1;"/><polygon fill="#374151" points="154.1816,546.8542,161.1599,539.9042,155.986,542.1911,153.699,537.0171,154.1816,546.8542" style="stroke:#374151;stroke-width:1;"/><path d="M179.1313,482.3773 C169.4066,507.5085 165.9838,516.3541 156.3468,541.2585 " fill="none" style="stroke:#374151;stroke-width:1.5;"/><text fill="#B91C1C" font-family="Arial" font-size="13" font-weight="bold" lengthAdjust="spacing" textLength="54.9263" x="183.5" y="515.2925">accueille</text><text fill="#B91C1C" font-family="Arial" font-size="13" font-weight="bold" lengthAdjust="spacing" textLength="19.5127" x="124.1816" y="534.048">0..*</text><text fill="#B91C1C" font-family="Arial" font-size="13" font-weight="bold" lengthAdjust="spacing" textLength="7.23" x="165.4619" y="458.3798">1</text><polygon fill="none" points="260.5,473.1921,256.5,479.1921,260.5,485.1921,264.5,479.1921,260.5,473.1921" style="stroke:#374151;stroke-width:1;"/><polygon fill="#374151" points="260.5,547.0036,264.5,538.0036,260.5,542.0036,256.5,538.0036,260.5,547.0036" style="stroke:#374151;stroke-width:1;"/><path d="M260.5,485.1921 C260.5,509.7304 260.5,516.7146 260.5,541.0036 " fill="none" style="stroke:#374151;stroke-width:1.5;"/><text fill="#B91C1C" font-family="Arial" font-size="13" font-weight="bold" lengthAdjust="spacing" textLength="41.1899" x="272.5" y="515.2925">stocke</text><text fill="#B91C1C" font-family="Arial" font-size="13" font-weight="bold" lengthAdjust="spacing" textLength="19.5127" x="230.5" y="534.1974">0..*</text><text fill="#B91C1C" font-family="Arial" font-size="13" font-weight="bold" lengthAdjust="spacing" textLength="7.23" x="242.5" y="496.386">1</text><!--SRC=[XLHRRjim4FpNALZtfm_4YEoyQWG9R2LE0nI56xlzfyYrGfWY1P9ou1O5UeXU8kV8JNgIKfGV4ast-f9cHyEPtPLU5GfdEKOShsHfaCx1O84ZlM2Ym0hdACLaaIbP2ff8BXLwFNPNWq5XZajknbAOppW7D5GCyt1zohu3YkD6CU5Owv5K5DHQFxuvkRsv25DcZumi16YDukwfJ_a8s596lj_UwLd_TXGcLvuEnV9eKxFYW5B9wJyuBbvlpxjlwNOyFji_gs4cZkEBtdc8SA23GsCKIqi3EyvnWpDKIZwjjVld9_5fx1SFTTOLTwBzO2dKccrrVUpeGvp4IOCmOuOtx9u4Io7b0bFAHDPEI5fTk2TIEDdZA3AL69eMYWc3UkZFhzzroq2Z0RgHGhmysriAwE7bUVxoh40GY2AdX-wiTWReHuJGUyIeVU6kPDGz6H1OcFiM9ghr7w2fTI4oXrYhgcfg2oJChDf8yIY5zoR7rdX9AvJACkLmNSDIP24Sqvo9hPiQOtf835jMr5HARh5krnKI1TX07IwHUOu5VVCs-hb9_GtiCl1mRC8P-B5JPGNQxdD9WRUX5M1b4Jk5EWWZ83HCR4ul-Rm4FbiL7fep3jKiTWfB9hQKQp_SEaCWtTGk34omCi5ycMjAEn-Hr3EpFsXYpyoaykPQ2cOcoYQjfWM4vPWxN1j95b_S5cpIA71_k4-mT8tRmF-PuJPC8EXN3GfTNav0QRlbmA-kWeddJEdwn-tjNmY573DlhahoYbITzc1lGrqChwCrklw-Ed47oQEZAzGvxdRVTMhd0tjOmIM3GwpDcWuG9gG4nlb1wcxcWxht4Fq5]--></g></svg>