<svg xmlns="http://www.w3.org/2000/svg" xmlns:xlink="http://www.w3.org/1999/xlink" contentStyleType="text/css" height="927px" preserveAspectRatio="none" style="width:438px;height:927px;background:#FFFFFF;" version="1.1" viewBox="0 0 438 927" width="438px" zoomAndPan="magnify"><title>Sprint 1 &#8212; Classes : Authentification</title><defs/><g><text fill="#000000" font-family="Arial" font-size="14" font-weight="bold" lengthAdjust="spacing" textLength="245.8135" x="92.5933" y="33.1318">Sprint 1 &#8212; Classes : Authentification</text><!--class User--><g id="elem_User"><rect codeLine="27" fill="#EFF6FF" height="466.9863" id="User" rx="2.5" ry="2.5" style="stroke:#1D4ED8;stroke-width:1.5;" width="181.7803" x="151" y="69.0986"/><ellipse cx="217.5835" cy="89.8481" fill="#ADD1B2" rx="9" ry="9" style="stroke:#181818;stroke-width:1;"/><path d="M219.1147,87.1138 Q219.2085,86.9731 219.3335,86.9106 Q219.4585,86.8325 219.5991,86.8325 Q219.8335,86.8325 219.9897,87.0044 Q220.146,87.1763 220.146,87.5669 L220.146,88.5044 Q220.146,88.895 219.9897,89.0669 Q219.8335,89.2388 219.5991,89.2388 Q219.3804,89.2388 219.2397,89.1138 Q219.0991,88.9888 219.0366,88.6606 Q219.0054,88.4263 218.896,88.3013 Q218.6772,88.0669 218.271,87.9263 Q217.8804,87.77 217.4897,87.77 Q216.9897,87.77 216.5679,87.9888 Q216.1616,88.2075 215.8335,88.6919 Q215.521,89.1763 215.521,89.8325 L215.521,90.5513 Q215.521,91.3481 216.0991,91.8794 Q216.6772,92.4106 217.7085,92.4106 Q218.3179,92.4106 218.7397,92.2388 Q218.9897,92.145 219.271,91.8638 Q219.4429,91.6919 219.5366,91.645 Q219.6304,91.5825 219.7554,91.5825 Q219.9741,91.5825 220.146,91.7544 Q220.3179,91.9263 220.3179,92.145 Q220.3179,92.3638 220.0835,92.6294 Q219.7554,93.0044 219.2397,93.2231 Q218.5522,93.5044 217.7085,93.5044 Q216.7397,93.5044 215.9585,93.1138 Q215.3179,92.7856 214.8647,92.0981 Q214.4272,91.395 214.4272,90.5669 L214.4272,89.8169 Q214.4272,88.9575 214.8179,88.2231 Q215.2241,87.4731 215.9272,87.0825 Q216.646,86.6763 217.4429,86.6763 Q217.9116,86.6763 218.3335,86.7856 Q218.7554,86.895 219.1147,87.1138 Z " fill="#000000"/><text fill="#111827" font-family="Arial" font-size="10" lengthAdjust="spacing" textLength="21.1133" x="245.0835" y="93.4785">User</text><line style="stroke:#1D4ED8;stroke-width:1.5;" x1="152" x2="331.7803" y1="110.5977" y2="110.5977"/><text fill="#000000" font-family="Arial" font-size="10" lengthAdjust="spacing" textLength="43.0811" x="167" y="133.9775">+id : Guid</text><text fill="#000000" font-family="Arial" font-size="10" lengthAdjust="spacing" textLength="83.0811" x="167" y="165.4766">+firstName : String</text><text fill="#000000" font-family="Arial" font-size="10" lengthAdjust="spacing" textLength="82.5342" x="167" y="196.9756">+lastName : String</text><text fill="#000000" font-family="Arial" font-size="10" lengthAdjust="spacing" textLength="64.1943" x="167" y="228.4746">+email : String</text><text fill="#000000" font-family="Arial" font-size="10" lengthAdjust="spacing" textLength="106.4404" x="167" y="259.9736">+passwordHash : String</text><text fill="#000000" font-family="Arial" font-size="10" lengthAdjust="spacing" textLength="72.5293" x="167" y="291.4727">+role : UserRole</text><text fill="#000000" font-family="Arial" font-size="10" lengthAdjust="spacing" textLength="77.002" x="167" y="322.9717">+tenantId : Guid?</text><text fill="#000000" font-family="Arial" font-size="10" lengthAdjust="spacing" textLength="80.3369" x="167" y="354.4707">+garageId : Guid?</text><text fill="#000000" font-family="Arial" font-size="10" lengthAdjust="spacing" textLength="104.7754" x="167" y="385.9697">+refreshToken : String?</text><text fill="#000000" font-family="Arial" font-size="10" lengthAdjust="spacing" textLength="149.7803" x="167" y="417.4688">+refreshTokenExpiry : DateTime?</text><text fill="#000000" font-family="Arial" font-size="10" lengthAdjust="spacing" textLength="67.5342" x="167" y="448.9678">+isActive : bool</text><line style="stroke:#1D4ED8;stroke-width:1;stroke-dasharray:1.0,2.0;" x1="152" x2="331.7803" y1="465.0869" y2="465.0869"/><text fill="#000000" font-family="Arial" font-size="10" lengthAdjust="spacing" textLength="95.8643" x="167" y="488.4668">+RegisterCommand()</text><text fill="#000000" font-family="Arial" font-size="10" lengthAdjust="spacing" textLength="83.0957" x="167" y="519.9658">+LoginCommand()</text></g><!--class Tenant--><g id="elem_Tenant"><rect codeLine="44" fill="#EFF6FF" height="277.9922" id="Tenant" rx="2.5" ry="2.5" style="stroke:#1D4ED8;stroke-width:1.5;" width="151.7754" x="6" y="626.5986"/><ellipse cx="52.5713" cy="647.3481" fill="#ADD1B2" rx="9" ry="9" style="stroke:#181818;stroke-width:1;"/><path d="M54.1025,644.6138 Q54.1963,644.4731 54.3213,644.4106 Q54.4463,644.3325 54.5869,644.3325 Q54.8213,644.3325 54.9775,644.5044 Q55.1338,644.6763 55.1338,645.0669 L55.1338,646.0044 Q55.1338,646.395 54.9775,646.5669 Q54.8213,646.7388 54.5869,646.7388 Q54.3682,646.7388 54.2275,646.6138 Q54.0869,646.4888 54.0244,646.1606 Q53.9932,645.9263 53.8838,645.8013 Q53.665,645.5669 53.2588,645.4263 Q52.8682,645.27 52.4775,645.27 Q51.9775,645.27 51.5557,645.4888 Q51.1494,645.7075 50.8213,646.1919 Q50.5088,646.6763 50.5088,647.3325 L50.5088,648.0513 Q50.5088,648.8481 51.0869,649.3794 Q51.665,649.9106 52.6963,649.9106 Q53.3057,649.9106 53.7275,649.7388 Q53.9775,649.645 54.2588,649.3638 Q54.4307,649.1919 54.5244,649.145 Q54.6182,649.0825 54.7432,649.0825 Q54.9619,649.0825 55.1338,649.2544 Q55.3057,649.4263 55.3057,649.645 Q55.3057,649.8638 55.0713,650.1294 Q54.7432,650.5044 54.2275,650.7231 Q53.54,651.0044 52.6963,651.0044 Q51.7275,651.0044 50.9463,650.6138 Q50.3057,650.2856 49.8525,649.5981 Q49.415,648.895 49.415,648.0669 L49.415,647.3169 Q49.415,646.4575 49.8057,645.7231 Q50.2119,644.9731 50.915,644.5825 Q51.6338,644.1763 52.4307,644.1763 Q52.8994,644.1763 53.3213,644.2856 Q53.7432,644.395 54.1025,644.6138 Z " fill="#000000"/><text fill="#111827" font-family="Arial" font-size="10" lengthAdjust="spacing" textLength="31.1328" x="80.0713" y="650.9785">Tenant</text><line style="stroke:#1D4ED8;stroke-width:1.5;" x1="7" x2="156.7754" y1="668.0977" y2="668.0977"/><text fill="#000000" font-family="Arial" font-size="10" lengthAdjust="spacing" textLength="43.0811" x="22" y="691.4775">+id : Guid</text><text fill="#000000" font-family="Arial" font-size="10" lengthAdjust="spacing" textLength="65.3125" x="22" y="722.9766">+name : String</text><text fill="#000000" font-family="Arial" font-size="10" lengthAdjust="spacing" textLength="58.6426" x="22" y="754.4756">+slug : String</text><text fill="#000000" font-family="Arial" font-size="10" lengthAdjust="spacing" textLength="64.1943" x="22" y="785.9746">+email : String</text><text fill="#000000" font-family="Arial" font-size="10" lengthAdjust="spacing" textLength="68.1055" x="22" y="817.4736">+phone : String</text><text fill="#000000" font-family="Arial" font-size="10" lengthAdjust="spacing" textLength="67.5342" x="22" y="848.9727">+isActive : bool</text><line style="stroke:#1D4ED8;stroke-width:1;stroke-dasharray:1.0,2.0;" x1="7" x2="156.7754" y1="865.0918" y2="865.0918"/><text fill="#000000" font-family="Arial" font-size="10" lengthAdjust="spacing" textLength="119.7754" x="22" y="888.4717">+CreateTenantCommand()</text></g><!--class LoginResponse--><g id="elem_LoginResponse"><rect codeLine="55" fill="#EFF6FF" height="310.6411" id="LoginResponse" rx="2.5" ry="2.5" style="stroke:#1D4ED8;stroke-width:1.5;" width="131.2139" x="176.5" y="610.0986"/><ellipse cx="195.6726" cy="647.1726" fill="#ADD1B2" rx="9" ry="9" style="stroke:#181818;stroke-width:1;"/><path d="M197.2038,644.4382 Q197.2976,644.2976 197.4226,644.2351 Q197.5476,644.157 197.6882,644.157 Q197.9226,644.157 198.0788,644.3289 Q198.2351,644.5007 198.2351,644.8914 L198.2351,645.8289 Q198.2351,646.2195 198.0788,646.3914 Q197.9226,646.5632 197.6882,646.5632 Q197.4694,646.5632 197.3288,646.4382 Q197.1882,646.3132 197.1257,645.9851 Q197.0944,645.7507 196.9851,645.6257 Q196.7663,645.3914 196.3601,645.2507 Q195.9694,645.0945 195.5788,645.0945 Q195.0788,645.0945 194.6569,645.3132 Q194.2507,645.532 193.9226,646.0164 Q193.6101,646.5007 193.6101,647.157 L193.6101,647.8757 Q193.6101,648.6726 194.1882,649.2039 Q194.7663,649.7351 195.7976,649.7351 Q196.4069,649.7351 196.8288,649.5632 Q197.0788,649.4695 197.3601,649.1882 Q197.5319,649.0164 197.6257,648.9695 Q197.7194,648.907 197.8444,648.907 Q198.0632,648.907 198.2351,649.0789 Q198.4069,649.2507 198.4069,649.4695 Q198.4069,649.6882 198.1726,649.9539 Q197.8444,650.3289 197.3288,650.5476 Q196.6413,650.8289 195.7976,650.8289 Q194.8288,650.8289 194.0476,650.4382 Q193.4069,650.1101 192.9538,649.4226 Q192.5163,648.7195 192.5163,647.8914 L192.5163,647.1414 Q192.5163,646.282 192.9069,645.5476 Q193.3132,644.7976 194.0163,644.407 Q194.7351,644.0007 195.5319,644.0007 Q196.0007,644.0007 196.4226,644.1101 Q196.8444,644.2195 197.2038,644.4382 Z " fill="#000000"/><text fill="#000000" font-family="Arial" font-size="11" font-style="italic" lengthAdjust="spacing" textLength="35.4546" x="236.0655" y="635.4165">&#171;DTO&#187;</text><text fill="#111827" font-family="Arial" font-size="10" lengthAdjust="spacing" textLength="69.4971" x="219.0442" y="667.1274">LoginResponse</text><line style="stroke:#1D4ED8;stroke-width:1.5;" x1="177.5" x2="306.7139" y1="684.2466" y2="684.2466"/><text fill="#000000" font-family="Arial" font-size="10" lengthAdjust="spacing" textLength="69.2041" x="192.5" y="707.6265">+success : bool</text><text fill="#000000" font-family="Arial" font-size="10" lengthAdjust="spacing" textLength="99.2139" x="192.5" y="739.1255">+accessToken : String</text><text fill="#000000" font-family="Arial" font-size="10" lengthAdjust="spacing" textLength="99.2139" x="192.5" y="770.6245">+refreshToken : String</text><text fill="#000000" font-family="Arial" font-size="10" lengthAdjust="spacing" textLength="99.2041" x="192.5" y="802.1235">+expiresAt : DateTime</text><text fill="#000000" font-family="Arial" font-size="10" lengthAdjust="spacing" textLength="63.0908" x="192.5" y="833.6226">+userId : Guid</text><text fill="#000000" font-family="Arial" font-size="10" lengthAdjust="spacing" textLength="56.9727" x="192.5" y="865.1216">+role : String</text><text fill="#000000" font-family="Arial" font-size="10" lengthAdjust="spacing" textLength="83.0811" x="192.5" y="896.6206">+firstName : String</text><line style="stroke:#1D4ED8;stroke-width:1.5;" x1="177.5" x2="306.7139" y1="912.7397" y2="912.7397"/></g><!--class UserRole--><g id="elem_UserRole"><rect codeLine="65" fill="#EFF6FF" height="214.9941" id="UserRole" rx="2.5" ry="2.5" style="stroke:#1D4ED8;stroke-width:1.5;" width="105.9209" x="326" y="658.0986"/><ellipse cx="346.3085" cy="678.8481" fill="#EB937F" rx="9" ry="9" style="stroke:#181818;stroke-width:1;"/><path d="M345.4804,679.6294 L345.4804,681.2544 L348.2929,681.2544 L348.2929,680.645 Q348.2929,680.2544 348.4335,680.0825 Q348.5898,679.9106 348.8398,679.9106 Q349.0898,679.9106 349.2304,680.0825 Q349.3867,680.2544 349.3867,680.645 L349.3867,682.3481 L344.1992,682.3481 Q343.8085,682.3481 343.6367,682.1919 Q343.4648,682.0356 343.4648,681.8013 Q343.4648,681.5513 343.6367,681.4106 Q343.8085,681.2544 344.1992,681.2544 L344.371,681.2544 L344.371,676.9419 L344.1992,676.9419 Q343.8085,676.9419 343.6367,676.7856 Q343.4648,676.6294 343.4648,676.3794 Q343.4648,676.145 343.6367,675.9888 Q343.8085,675.8325 344.1992,675.8325 L349.1523,675.8325 L349.1523,677.52 Q349.1523,677.9106 348.996,678.0825 Q348.8398,678.2388 348.6054,678.2388 Q348.3554,678.2388 348.1992,678.0825 Q348.0429,677.9106 348.0429,677.52 L348.0429,676.9419 L345.4804,676.9419 L345.4804,678.5356 L346.4492,678.5356 Q346.4492,678.0981 346.5273,677.9731 Q346.6992,677.7075 346.996,677.7075 Q347.246,677.7075 347.3867,677.8794 Q347.5429,678.0513 347.5429,678.4419 L347.5429,679.7231 Q347.5429,680.0825 347.4648,680.1919 Q347.2929,680.4575 346.996,680.4575 Q346.6992,680.4575 346.5273,680.1919 Q346.4492,680.0669 346.4492,679.6294 L345.4804,679.6294 Z " fill="#000000"/><text fill="#111827" font-family="Arial" font-size="10" lengthAdjust="spacing" textLength="41.6797" x="369.9327" y="682.4785">UserRole</text><line style="stroke:#1D4ED8;stroke-width:1.5;" x1="327" x2="430.9209" y1="699.5977" y2="699.5977"/><text fill="#000000" font-family="Arial" font-size="10" lengthAdjust="spacing" textLength="55.0293" x="342" y="722.9775">SuperAdmin</text><text fill="#000000" font-family="Arial" font-size="10" lengthAdjust="spacing" textLength="73.9209" x="342" y="754.4766">AdminEntreprise</text><text fill="#000000" font-family="Arial" font-size="10" lengthAdjust="spacing" textLength="49.4678" x="342" y="785.9756">ChefAtelier</text><text fill="#000000" font-family="Arial" font-size="10" lengthAdjust="spacing" textLength="50.5811" x="342" y="817.4746">Mecanicien</text><text fill="#000000" font-family="Arial" font-size="10" lengthAdjust="spacing" textLength="25.5664" x="342" y="848.9736">Client</text><line style="stroke:#1D4ED8;stroke-width:1.5;" x1="327" x2="430.9209" y1="865.0928" y2="865.0928"/></g><polygon fill="#374151" points="118.4022,626.3538,124.7563,618.8288,119.7984,621.5527,117.0746,616.5948,118.4022,626.3538" style="stroke:#374151;stroke-width:1;"/><path d="M150.9532,525.7537 C147.5083,535.2995 144.1747,544.7772 141,554.0986 C133.1076,577.2715 127.1224,596.3687 120.0777,620.5925 " fill="none" style="stroke:#374151;stroke-width:1.5;"/><text fill="#B91C1C" font-family="Arial" font-size="13" font-weight="bold" lengthAdjust="spacing" textLength="73.6836" x="153" y="578.2925">appartient &#224;</text><text fill="#B91C1C" font-family="Arial" font-size="13" font-weight="bold" lengthAdjust="spacing" textLength="7.23" x="100.4022" y="613.5476">1</text><text fill="#B91C1C" font-family="Arial" font-size="13" font-weight="bold" lengthAdjust="spacing" textLength="9.3882" x="130.9532" y="512.9476">N</text><polygon fill="#374151" points="242,610.0304,246,601.0304,242,605.0304,238,601.0304,242,610.0304" style="stroke:#374151;stroke-width:1;"/><path d="M242,536.1245 C242,561.1868 242,580.2173 242,604.0304 " fill="none" style="stroke:#374151;stroke-width:1.5;stroke-dasharray:7.0,7.0;"/><text fill="#B91C1C" font-family="Arial" font-size="13" font-weight="bold" lengthAdjust="spacing" textLength="65.7427" x="254" y="578.2925">&#171;produce&#187;</text><polygon fill="#374151" points="359.9031,657.8314,362.0188,648.2124,358.9014,652.9328,354.1811,649.8153,359.9031,657.8314" style="stroke:#374151;stroke-width:1;"/><path d="M329.6839,536.2236 C331.5207,542.227 333.2968,548.1927 335,554.0986 C344.6213,587.4605 351.8568,618.4849 358.701,651.953 " fill="none" style="stroke:#374151;stroke-width:1.5;stroke-dasharray:7.0,7.0;"/><text fill="#B91C1C" font-family="Arial" font-size="13" font-weight="bold" lengthAdjust="spacing" textLength="36.8608" x="357" y="578.2925">&#171;use&#187;</text><!--SRC=[XLDjZjCm4FtVKmpb3sYrrRhxIRKgIjEMNGaMQLiEu2RJT5J7Zco7PK587883S1TkmacmtQyqJQ5_KizxVlFcPVAYq3pBEGZ-h4eB9aVB9M-P9Sc2Qvx3Z2VBJAjIfh4IIiFBSVXL62dEUIdiM4dxm7E4I1CNpVY4lY8mLW5ZmOqPA9sYNkkpuSLeUDDCcIueMKeq1bZdiawvG-ueWxhVxkNL-MZGJFQUZerLeqtiiq2OAP7-WnF6wnvuhriQZSTNXxqgPXXZDzth9iAH12DhDSrAYplEMOKJQQsUrjhdrnViajN1Oya6S2TwtWWrHRD5rsq7RrZCuWfXIbPKx5uqGatA1KzJajd-XCbU2lU9aa7shDMoNWmcXIPfWS6V7pzNaQ617aIbNQ2qDAU4MrAorGf2yCcWXcyjW1EWrF7UbPI6qvoqMQrv3oQkcyn2sLrgg6BEIUoN2gV-v7RvZfl5FgALyDTzvqVtDzGiIYxj_SR1sr3CtC0PreeQvnhDOggMABUwXz3eIq7wsH66tEAKSbnHo4I9fS- -_qmfuMgTJW0UCIDZ_RUPvrochrw7wdkLaToLlczIcmQxZRd9Wt2CABF_nxLGidRlgDTOenygU6Wm5qm_eYcKD0YtjyFfntv_xTMKIU9tVojv0ZnKzlCydlJAlmyNtHPMyWr0wTxf_LuSwvTTkTomMCuwoZBVhaGmEoaBr56QatI7y1n9gz6jj_7DuWNE8uk2KBlJ1qouf8JGasDNbDQhXkrkFxJXzBGFRTRUlBWUyC9zJjRpuFUl5Q_JwTUowxdq2gtICi5-VqVQslIu6zbXVm40]--></g></svg>