<svg xmlns="http://www.w3.org/2000/svg" xmlns:xlink="http://www.w3.org/1999/xlink" contentStyleType="text/css" height="1466px" preserveAspectRatio="none" style="width:395px;height:1466px;background:#FFFFFF;" version="1.1" viewBox="0 0 395 1466" width="395px" zoomAndPan="magnify"><title>Sprint 3 &#8212; Classes : Sympt&#244;mes, IA et Rendez-vous</title><defs/><g><text fill="#000000" font-family="Arial" font-size="14" font-weight="bold" lengthAdjust="spacing" textLength="347.7578" x="20" y="33.1318">Sprint 3 &#8212; Classes : Sympt&#244;mes, IA et Rendez-vous</text><!--class SymptomReport--><g id="elem_SymptomReport"><rect codeLine="27" fill="#EFF6FF" height="561.4834" id="SymptomReport" rx="2.5" ry="2.5" style="stroke:#1D4ED8;stroke-width:1.5;" width="192.8887" x="155.1289" y="69.0986"/><ellipse cx="201.7002" cy="89.8481" fill="#ADD1B2" rx="9" ry="9" style="stroke:#181818;stroke-width:1;"/><path d="M203.2314,87.1138 Q203.3252,86.9731 203.4502,86.9106 Q203.5752,86.8325 203.7158,86.8325 Q203.9502,86.8325 204.1064,87.0044 Q204.2627,87.1763 204.2627,87.5669 L204.2627,88.5044 Q204.2627,88.895 204.1064,89.0669 Q203.9502,89.2388 203.7158,89.2388 Q203.4971,89.2388 203.3564,89.1138 Q203.2158,88.9888 203.1533,88.6606 Q203.1221,88.4263 203.0127,88.3013 Q202.7939,88.0669 202.3877,87.9263 Q201.9971,87.77 201.6064,87.77 Q201.1064,87.77 200.6846,87.9888 Q200.2783,88.2075 199.9502,88.6919 Q199.6377,89.1763 199.6377,89.8325 L199.6377,90.5513 Q199.6377,91.3481 200.2158,91.8794 Q200.7939,92.4106 201.8252,92.4106 Q202.4346,92.4106 202.8564,92.2388 Q203.1064,92.145 203.3877,91.8638 Q203.5596,91.6919 203.6533,91.645 Q203.7471,91.5825 203.8721,91.5825 Q204.0908,91.5825 204.2627,91.7544 Q204.4346,91.9263 204.4346,92.145 Q204.4346,92.3638 204.2002,92.6294 Q203.8721,93.0044 203.3564,93.2231 Q202.6689,93.5044 201.8252,93.5044 Q200.8564,93.5044 200.0752,93.1138 Q199.4346,92.7856 198.9814,92.0981 Q198.5439,91.395 198.5439,90.5669 L198.5439,89.8169 Q198.5439,88.9575 198.9346,88.2231 Q199.3408,87.4731 200.0439,87.0825 Q200.7627,86.6763 201.5596,86.6763 Q202.0283,86.6763 202.4502,86.7856 Q202.8721,86.895 203.2314,87.1138 Z " fill="#000000"/><text fill="#111827" font-family="Arial" font-size="10" lengthAdjust="spacing" textLength="72.2461" x="229.2002" y="93.4785">SymptomReport</text><line style="stroke:#1D4ED8;stroke-width:1.5;" x1="156.1289" x2="347.0176" y1="110.5977" y2="110.5977"/><text fill="#000000" font-family="Arial" font-size="10" lengthAdjust="spacing" textLength="43.0811" x="171.1289" y="133.9775">+id : Guid</text><text fill="#000000" font-family="Arial" font-size="10" lengthAdjust="spacing" textLength="66.9824" x="171.1289" y="165.4766">+clientId : Guid</text><text fill="#000000" font-family="Arial" font-size="10" lengthAdjust="spacing" textLength="74.7656" x="171.1289" y="196.9756">+vehicleId : Guid</text><text fill="#000000" font-family="Arial" font-size="10" lengthAdjust="spacing" textLength="80.3369" x="171.1289" y="228.4746">+garageId : Guid?</text><text fill="#000000" font-family="Arial" font-size="10" lengthAdjust="spacing" textLength="135.8789" x="171.1289" y="259.9736">+symptomsDescription : String</text><text fill="#000000" font-family="Arial" font-size="10" lengthAdjust="spacing" textLength="119.79" x="171.1289" y="291.4727">+aiPredictedIssue : String?</text><text fill="#000000" font-family="Arial" font-size="10" lengthAdjust="spacing" textLength="123.1348" x="171.1289" y="322.9717">+aiConfidenceScore : float?</text><text fill="#000000" font-family="Arial" font-size="10" lengthAdjust="spacing" textLength="137.0166" x="171.1289" y="354.4707">+aiRecommendations : String?</text><text fill="#000000" font-family="Arial" font-size="10" lengthAdjust="spacing" textLength="108.6768" x="171.1289" y="385.9697">+chefFeedback : String?</text><text fill="#000000" font-family="Arial" font-size="10" lengthAdjust="spacing" textLength="122.0117" x="171.1289" y="417.4688">+reviewedByChefId : Guid?</text><text fill="#000000" font-family="Arial" font-size="10" lengthAdjust="spacing" textLength="152.5781" x="171.1289" y="448.9678">+availablePeriodStart : DateTime?</text><text fill="#000000" font-family="Arial" font-size="10" lengthAdjust="spacing" textLength="149.2529" x="171.1289" y="480.4668">+availablePeriodEnd : DateTime?</text><text fill="#000000" font-family="Arial" font-size="10" lengthAdjust="spacing" textLength="141.4502" x="171.1289" y="511.9658">+status : SymptomReportStatus</text><text fill="#000000" font-family="Arial" font-size="10" lengthAdjust="spacing" textLength="110.3223" x="171.1289" y="543.4648">+submittedAt : DateTime</text><line style="stroke:#1D4ED8;stroke-width:1;stroke-dasharray:1.0,2.0;" x1="156.1289" x2="347.0176" y1="559.584" y2="559.584"/><text fill="#000000" font-family="Arial" font-size="10" lengthAdjust="spacing" textLength="160.8887" x="171.1289" y="582.9639">+CreateSymptomReportCommand()</text><text fill="#000000" font-family="Arial" font-size="10" lengthAdjust="spacing" textLength="141.46" x="171.1289" y="614.4629">+AddChefFeedbackCommand()</text></g><!--class Appointment--><g id="elem_Appointment"><rect codeLine="47" fill="#EFF6FF" height="498.4854" id="Appointment" rx="2.5" ry="2.5" style="stroke:#1D4ED8;stroke-width:1.5;" width="184.0215" x="21.6289" y="704.0986"/><ellipse cx="71.8159" cy="724.8481" fill="#ADD1B2" rx="9" ry="9" style="stroke:#181818;stroke-width:1;"/><path d="M73.3472,722.1138 Q73.4409,721.9731 73.5659,721.9106 Q73.6909,721.8325 73.8315,721.8325 Q74.0659,721.8325 74.2222,722.0044 Q74.3784,722.1763 74.3784,722.5669 L74.3784,723.5044 Q74.3784,723.895 74.2222,724.0669 Q74.0659,724.2388 73.8315,724.2388 Q73.6128,724.2388 73.4722,724.1138 Q73.3315,723.9888 73.269,723.6606 Q73.2378,723.4263 73.1284,723.3013 Q72.9097,723.0669 72.5034,722.9263 Q72.1128,722.77 71.7222,722.77 Q71.2222,722.77 70.8003,722.9888 Q70.394,723.2075 70.0659,723.6919 Q69.7534,724.1763 69.7534,724.8325 L69.7534,725.5513 Q69.7534,726.3481 70.3315,726.8794 Q70.9097,727.4106 71.9409,727.4106 Q72.5503,727.4106 72.9722,727.2388 Q73.2222,727.145 73.5034,726.8638 Q73.6753,726.6919 73.769,726.645 Q73.8628,726.5825 73.9878,726.5825 Q74.2065,726.5825 74.3784,726.7544 Q74.5503,726.9263 74.5503,727.145 Q74.5503,727.3638 74.3159,727.6294 Q73.9878,728.0044 73.4722,728.2231 Q72.7847,728.5044 71.9409,728.5044 Q70.9722,728.5044 70.1909,728.1138 Q69.5503,727.7856 69.0972,727.0981 Q68.6597,726.395 68.6597,725.5669 L68.6597,724.8169 Q68.6597,723.9575 69.0503,723.2231 Q69.4565,722.4731 70.1597,722.0825 Q70.8784,721.6763 71.6753,721.6763 Q72.144,721.6763 72.5659,721.7856 Q72.9878,721.895 73.3472,722.1138 Z " fill="#000000"/><text fill="#111827" font-family="Arial" font-size="10" lengthAdjust="spacing" textLength="56.1475" x="99.3159" y="728.4785">Appointment</text><line style="stroke:#1D4ED8;stroke-width:1.5;" x1="22.6289" x2="204.6504" y1="745.5977" y2="745.5977"/><text fill="#000000" font-family="Arial" font-size="10" lengthAdjust="spacing" textLength="43.0811" x="37.6289" y="768.9775">+id : Guid</text><text fill="#000000" font-family="Arial" font-size="10" lengthAdjust="spacing" textLength="66.9824" x="37.6289" y="800.4766">+clientId : Guid</text><text fill="#000000" font-family="Arial" font-size="10" lengthAdjust="spacing" textLength="74.7656" x="37.6289" y="831.9756">+vehicleId : Guid</text><text fill="#000000" font-family="Arial" font-size="10" lengthAdjust="spacing" textLength="74.7754" x="37.6289" y="863.4746">+garageId : Guid</text><text fill="#000000" font-family="Arial" font-size="10" lengthAdjust="spacing" textLength="119.7754" x="37.6289" y="894.9736">+symptomReportId : Guid?</text><text fill="#000000" font-family="Arial" font-size="10" lengthAdjust="spacing" textLength="119.2188" x="37.6289" y="926.4727">+preferredDate : DateTime</text><text fill="#000000" font-family="Arial" font-size="10" lengthAdjust="spacing" textLength="122.5488" x="37.6289" y="957.9717">+preferredTime : TimeSpan</text><text fill="#000000" font-family="Arial" font-size="10" lengthAdjust="spacing" textLength="119.2334" x="37.6289" y="989.4707">+specialRequests : String?</text><text fill="#000000" font-family="Arial" font-size="10" lengthAdjust="spacing" textLength="125.3516" x="37.6289" y="1020.9697">+status : AppointmentStatus</text><text fill="#000000" font-family="Arial" font-size="10" lengthAdjust="spacing" textLength="123.6914" x="37.6289" y="1052.4688">+approvedByChefId : Guid?</text><text fill="#000000" font-family="Arial" font-size="10" lengthAdjust="spacing" textLength="114.2285" x="37.6289" y="1083.9678">+approvedAt : DateTime?</text><text fill="#000000" font-family="Arial" font-size="10" lengthAdjust="spacing" textLength="112.0166" x="37.6289" y="1115.4668">+declineReason : String?</text><line style="stroke:#1D4ED8;stroke-width:1;stroke-dasharray:1.0,2.0;" x1="22.6289" x2="204.6504" y1="1131.5859" y2="1131.5859"/><text fill="#000000" font-family="Arial" font-size="10" lengthAdjust="spacing" textLength="144.79" x="37.6289" y="1154.9658">+CreateAppointmentCommand()</text><text fill="#000000" font-family="Arial" font-size="10" lengthAdjust="spacing" textLength="152.0215" x="37.6289" y="1186.4648">+ApproveAppointmentCommand()</text></g><!--class SymptomReportStatus--><g id="elem_SymptomReportStatus"><rect codeLine="65" fill="#EFF6FF" height="183.4951" id="SymptomReportStatus" rx="2.5" ry="2.5" style="stroke:#1D4ED8;stroke-width:1.5;" width="148.5957" x="224.1289" y="861.5986"/><ellipse cx="237.1289" cy="882.3481" fill="#EB937F" rx="9" ry="9" style="stroke:#181818;stroke-width:1;"/><path d="M236.3008,883.1294 L236.3008,884.7544 L239.1133,884.7544 L239.1133,884.145 Q239.1133,883.7544 239.2539,883.5825 Q239.4102,883.4106 239.6602,883.4106 Q239.9102,883.4106 240.0508,883.5825 Q240.207,883.7544 240.207,884.145 L240.207,885.8481 L235.0195,885.8481 Q234.6289,885.8481 234.457,885.6919 Q234.2852,885.5356 234.2852,885.3013 Q234.2852,885.0513 234.457,884.9106 Q234.6289,884.7544 235.0195,884.7544 L235.1914,884.7544 L235.1914,880.4419 L235.0195,880.4419 Q234.6289,880.4419 234.457,880.2856 Q234.2852,880.1294 234.2852,879.8794 Q234.2852,879.645 234.457,879.4888 Q234.6289,879.3325 235.0195,879.3325 L239.9727,879.3325 L239.9727,881.02 Q239.9727,881.4106 239.8164,881.5825 Q239.6602,881.7388 239.4258,881.7388 Q239.1758,881.7388 239.0195,881.5825 Q238.8633,881.4106 238.8633,881.02 L238.8633,880.4419 L236.3008,880.4419 L236.3008,882.0356 L237.2695,882.0356 Q237.2695,881.5981 237.3477,881.4731 Q237.5195,881.2075 237.8164,881.2075 Q238.0664,881.2075 238.207,881.3794 Q238.3633,881.5513 238.3633,881.9419 L238.3633,883.2231 Q238.3633,883.5825 238.2852,883.6919 Q238.1133,883.9575 237.8164,883.9575 Q237.5195,883.9575 237.3477,883.6919 Q237.2695,883.5669 237.2695,883.1294 L236.3008,883.1294 Z " fill="#000000"/><text fill="#111827" font-family="Arial" font-size="10" lengthAdjust="spacing" textLength="100.5957" x="259.1289" y="885.9785">SymptomReportStatus</text><line style="stroke:#1D4ED8;stroke-width:1.5;" x1="225.1289" x2="371.7246" y1="903.0977" y2="903.0977"/><text fill="#000000" font-family="Arial" font-size="10" lengthAdjust="spacing" textLength="45.0244" x="240.1289" y="926.4775">Submitted</text><text fill="#000000" font-family="Arial" font-size="10" lengthAdjust="spacing" textLength="43.9111" x="240.1289" y="957.9766">Reviewed</text><text fill="#000000" font-family="Arial" font-size="10" lengthAdjust="spacing" textLength="42.8076" x="240.1289" y="989.4756">Approved</text><text fill="#000000" font-family="Arial" font-size="10" lengthAdjust="spacing" textLength="38.9111" x="240.1289" y="1020.9746">Declined</text><line style="stroke:#1D4ED8;stroke-width:1.5;" x1="225.1289" x2="371.7246" y1="1037.0938" y2="1037.0938"/></g><!--class AppointmentStatus--><g id="elem_AppointmentStatus"><rect codeLine="72" fill="#EFF6FF" height="183.4951" id="AppointmentStatus" rx="2.5" ry="2.5" style="stroke:#1D4ED8;stroke-width:1.5;" width="132.4971" x="47.6289" y="1276.0986"/><ellipse cx="60.6289" cy="1296.8481" fill="#EB937F" rx="9" ry="9" style="stroke:#181818;stroke-width:1;"/><path d="M59.8008,1297.6294 L59.8008,1299.2544 L62.6133,1299.2544 L62.6133,1298.645 Q62.6133,1298.2544 62.7539,1298.0825 Q62.9102,1297.9106 63.1602,1297.9106 Q63.4102,1297.9106 63.5508,1298.0825 Q63.707,1298.2544 63.707,1298.645 L63.707,1300.3481 L58.5195,1300.3481 Q58.1289,1300.3481 57.957,1300.1919 Q57.7852,1300.0356 57.7852,1299.8013 Q57.7852,1299.5513 57.957,1299.4106 Q58.1289,1299.2544 58.5195,1299.2544 L58.6914,1299.2544 L58.6914,1294.9419 L58.5195,1294.9419 Q58.1289,1294.9419 57.957,1294.7856 Q57.7852,1294.6294 57.7852,1294.3794 Q57.7852,1294.145 57.957,1293.9888 Q58.1289,1293.8325 58.5195,1293.8325 L63.4727,1293.8325 L63.4727,1295.52 Q63.4727,1295.9106 63.3164,1296.0825 Q63.1602,1296.2388 62.9258,1296.2388 Q62.6758,1296.2388 62.5195,1296.0825 Q62.3633,1295.9106 62.3633,1295.52 L62.3633,1294.9419 L59.8008,1294.9419 L59.8008,1296.5356 L60.7695,1296.5356 Q60.7695,1296.0981 60.8477,1295.9731 Q61.0195,1295.7075 61.3164,1295.7075 Q61.5664,1295.7075 61.707,1295.8794 Q61.8633,1296.0513 61.8633,1296.4419 L61.8633,1297.7231 Q61.8633,1298.0825 61.7852,1298.1919 Q61.6133,1298.4575 61.3164,1298.4575 Q61.0195,1298.4575 60.8477,1298.1919 Q60.7695,1298.0669 60.7695,1297.6294 L59.8008,1297.6294 Z " fill="#000000"/><text fill="#111827" font-family="Arial" font-size="10" lengthAdjust="spacing" textLength="84.4971" x="82.6289" y="1300.4785">AppointmentStatus</text><line style="stroke:#1D4ED8;stroke-width:1.5;" x1="48.6289" x2="179.126" y1="1317.5977" y2="1317.5977"/><text fill="#000000" font-family="Arial" font-size="10" lengthAdjust="spacing" textLength="36.6992" x="63.6289" y="1340.9775">Pending</text><text fill="#000000" font-family="Arial" font-size="10" lengthAdjust="spacing" textLength="42.8076" x="63.6289" y="1372.4766">Approved</text><text fill="#000000" font-family="Arial" font-size="10" lengthAdjust="spacing" textLength="38.9111" x="63.6289" y="1403.9756">Declined</text><text fill="#000000" font-family="Arial" font-size="10" lengthAdjust="spacing" textLength="48.3594" x="63.6289" y="1435.4746">Completed</text><line style="stroke:#1D4ED8;stroke-width:1.5;" x1="48.6289" x2="179.126" y1="1451.5938" y2="1451.5938"/></g><polygon fill="#374151" points="170.6054,703.7556,176.5166,695.878,171.7235,698.8822,168.7192,694.089,170.6054,703.7556" style="stroke:#374151;stroke-width:1;"/><path d="M187.4769,630.2176 C181.846,654.7611 177.5135,673.645 171.9471,697.9075 " fill="none" style="stroke:#374151;stroke-width:1.5;"/><text fill="#B91C1C" font-family="Arial" font-size="13" font-weight="bold" lengthAdjust="spacing" textLength="42.6309" x="194.6289" y="672.2925">g&#233;n&#232;re</text><text fill="#B91C1C" font-family="Arial" font-size="13" font-weight="bold" lengthAdjust="spacing" textLength="19.5127" x="140.6054" y="690.9494">0..*</text><text fill="#B91C1C" font-family="Arial" font-size="13" font-weight="bold" lengthAdjust="spacing" textLength="21.6836" x="155.4769" y="653.4115">0..1</text><polygon fill="#374151" points="291.5556,861.575,294.8423,852.2907,291.1661,856.5902,286.8666,852.914,291.5556,861.575" style="stroke:#374151;stroke-width:1;"/><path d="M273.4778,630.2176 C280.0102,713.8187 286.2462,793.6262 291.0882,855.5932 " fill="none" style="stroke:#374151;stroke-width:1.5;stroke-dasharray:7.0,7.0;"/><text fill="#B91C1C" font-family="Arial" font-size="13" font-weight="bold" lengthAdjust="spacing" textLength="36.8608" x="288.6289" y="672.2925">&#171;use&#187;</text><polygon fill="#374151" points="113.6289,1275.6749,117.6289,1266.6749,113.6289,1270.6749,109.6289,1266.6749,113.6289,1275.6749" style="stroke:#374151;stroke-width:1;"/><path d="M113.6289,1202.3825 C113.6289,1228.318 113.6289,1247.3275 113.6289,1269.6749 " fill="none" style="stroke:#374151;stroke-width:1.5;stroke-dasharray:7.0,7.0;"/><text fill="#B91C1C" font-family="Arial" font-size="13" font-weight="bold" lengthAdjust="spacing" textLength="36.8608" x="125.6289" y="1244.2925">&#171;use&#187;</text><!--SRC=[hLHRSjem5Frd5MhwqrSySSYhJ8QCCT3oqydWR41O5qSJML8bcGp9TAQBw2BQ_-uWE-bAAii6P6FwLNuGznmTdNkkn2kfS9PZnF1Q50Rf70pckASVA9TOuHmjSFgGAL5m4Wic57ezTH-FGM292sQcWfilE0SKAOfPDvxG9q1Xw84nmrgFX2AWQlrmV3OPNtLJxkvf-i11QnG6vstAPy2MCchxFJs_w4z6tUJIqw6sMhJ4h1cWXM3a7npNtkcUzxQboNHwiN-MPoOCmwlJoox2WGGZOnHT50Psd1EF4oab7clj_kLPU1wsmKF9Ed0dsk-4kgBPelMneuzX7COUuOuQvjazwuIwb2KcXFAisM7QI66M2kvaJtezKugXH2hA3UgZFzz_L961HWEKh7DfNdxde3-WMOJ0e3bm0a_7Ar7eNi-fLYIHpq4APT1p3w7tY1Ax-rD1YVkLCWhSp1gr5TX86JIBcJMRxMethgWhVJq6dIeg3HMyj6PxuPaZO7ghWD3K09bfNS0MlQdXMF0b9S1JI5AXIdp913ORU0wfo7FR62wrTMjxUW_BAG0fNteBKh2Yy0Xaj8ujgMKRhp1bUC7W5XGL937OfZD0OspWZkRGIPfmiaVH1fjYEunDpechLeHYaLDZcuzyVGi5WSDZ1RRMs1tRVZ4dRzuwGaH8x3Mv0xzjHXn9AUpzi1dztm7xywsSjKAK2fQWx7JBjfhTUM1PiM3vbKZCArK9gVsZdSFN0hHf3tKRgjUP5ocMKedLeS7MOBG_JW8s2GvpmDgxf3VjMNY7jYPHINVYTXZ0Yxph6hYP99jhODVp-cBQPIrPBiULExALsclU2TtQbr0zhQwz25bBae6fT9gF_-Wa2C8ZT7myTCjtHusRCq3Poo_-ybD1QriG33lR6g3hwqB3SDZpPKhsllCTzoy0]--></g></svg>