<svg xmlns="http://www.w3.org/2000/svg" xmlns:xlink="http://www.w3.org/1999/xlink" contentStyleType="text/css" height="1343px" preserveAspectRatio="none" style="width:578px;height:1343px;background:#FFFFFF;" version="1.1" viewBox="0 0 578 1343" width="578px" zoomAndPan="magnify"><title>Sprint 4 &#8212; Classes : Atelier et Cycle de Vie</title><defs/><g><text fill="#000000" font-family="Arial" font-size="14" font-weight="bold" lengthAdjust="spacing" textLength="285.5576" x="142.4712" y="33.1318">Sprint 4 &#8212; Classes : Atelier et Cycle de Vie</text><!--class RepairTask--><g id="elem_RepairTask"><rect codeLine="27" fill="#EFF6FF" height="403.9883" id="RepairTask" rx="2.5" ry="2.5" style="stroke:#1D4ED8;stroke-width:1.5;" width="201.79" x="30" y="517.0986"/><ellipse cx="91.5811" cy="537.8481" fill="#ADD1B2" rx="9" ry="9" style="stroke:#181818;stroke-width:1;"/><path d="M93.1123,535.1138 Q93.2061,534.9731 93.3311,534.9106 Q93.4561,534.8325 93.5967,534.8325 Q93.8311,534.8325 93.9873,535.0044 Q94.1436,535.1763 94.1436,535.5669 L94.1436,536.5044 Q94.1436,536.895 93.9873,537.0669 Q93.8311,537.2388 93.5967,537.2388 Q93.3779,537.2388 93.2373,537.1138 Q93.0967,536.9888 93.0342,536.6606 Q93.0029,536.4263 92.8936,536.3013 Q92.6748,536.0669 92.2686,535.9263 Q91.8779,535.77 91.4873,535.77 Q90.9873,535.77 90.5654,535.9888 Q90.1592,536.2075 89.8311,536.6919 Q89.5186,537.1763 89.5186,537.8325 L89.5186,538.5513 Q89.5186,539.3481 90.0967,539.8794 Q90.6748,540.4106 91.7061,540.4106 Q92.3154,540.4106 92.7373,540.2388 Q92.9873,540.145 93.2686,539.8638 Q93.4404,539.6919 93.5342,539.645 Q93.6279,539.5825 93.7529,539.5825 Q93.9717,539.5825 94.1436,539.7544 Q94.3154,539.9263 94.3154,540.145 Q94.3154,540.3638 94.0811,540.6294 Q93.7529,541.0044 93.2373,541.2231 Q92.5498,541.5044 91.7061,541.5044 Q90.7373,541.5044 89.9561,541.1138 Q89.3154,540.7856 88.8623,540.0981 Q88.4248,539.395 88.4248,538.5669 L88.4248,537.8169 Q88.4248,536.9575 88.8154,536.2231 Q89.2217,535.4731 89.9248,535.0825 Q90.6436,534.6763 91.4404,534.6763 Q91.9092,534.6763 92.3311,534.7856 Q92.7529,534.895 93.1123,535.1138 Z " fill="#000000"/><text fill="#111827" font-family="Arial" font-size="10" lengthAdjust="spacing" textLength="51.1279" x="119.0811" y="541.4785">RepairTask</text><line style="stroke:#1D4ED8;stroke-width:1.5;" x1="31" x2="230.79" y1="558.5977" y2="558.5977"/><text fill="#000000" font-family="Arial" font-size="10" lengthAdjust="spacing" textLength="43.0811" x="46" y="581.9775">+id : Guid</text><text fill="#000000" font-family="Arial" font-size="10" lengthAdjust="spacing" textLength="98.6768" x="46" y="613.4766">+appointmentId : Guid</text><text fill="#000000" font-family="Arial" font-size="10" lengthAdjust="spacing" textLength="74.7754" x="46" y="644.9756">+garageId : Guid</text><text fill="#000000" font-family="Arial" font-size="10" lengthAdjust="spacing" textLength="77.5293" x="46" y="676.4746">+taskTitle : String</text><text fill="#000000" font-family="Arial" font-size="10" lengthAdjust="spacing" textLength="88.6572" x="46" y="707.9736">+description : String</text><text fill="#000000" font-family="Arial" font-size="10" lengthAdjust="spacing" textLength="120.332" x="46" y="739.4727">+status : RepairTaskStatus</text><text fill="#000000" font-family="Arial" font-size="10" lengthAdjust="spacing" textLength="106.9971" x="46" y="770.9717">+assignedAt : DateTime</text><text fill="#000000" font-family="Arial" font-size="10" lengthAdjust="spacing" textLength="120.3418" x="46" y="802.4707">+completionNotes : String?</text><text fill="#000000" font-family="Arial" font-size="10" lengthAdjust="spacing" textLength="108.667" x="46" y="833.9697">+estimatedMinutes : int?</text><line style="stroke:#1D4ED8;stroke-width:1;stroke-dasharray:1.0,2.0;" x1="31" x2="230.79" y1="850.0889" y2="850.0889"/><text fill="#000000" font-family="Arial" font-size="10" lengthAdjust="spacing" textLength="139.7705" x="46" y="873.4688">+CreateRepairTaskCommand()</text><text fill="#000000" font-family="Arial" font-size="10" lengthAdjust="spacing" textLength="169.79" x="46" y="904.9678">+SubmitRepairCompletionCommand()</text></g><!--class RepairTaskAssignment--><g id="elem_RepairTaskAssignment"><rect codeLine="42" fill="#EFF6FF" height="340.9902" id="RepairTaskAssignment" rx="2.5" ry="2.5" style="stroke:#1D4ED8;stroke-width:1.5;" width="249.5928" x="6" y="995.0986"/><ellipse cx="65.3594" cy="1015.8481" fill="#ADD1B2" rx="9" ry="9" style="stroke:#181818;stroke-width:1;"/><path d="M66.8906,1013.1138 Q66.9844,1012.9731 67.1094,1012.9106 Q67.2344,1012.8325 67.375,1012.8325 Q67.6094,1012.8325 67.7656,1013.0044 Q67.9219,1013.1763 67.9219,1013.5669 L67.9219,1014.5044 Q67.9219,1014.895 67.7656,1015.0669 Q67.6094,1015.2388 67.375,1015.2388 Q67.1563,1015.2388 67.0156,1015.1138 Q66.875,1014.9888 66.8125,1014.6606 Q66.7813,1014.4263 66.6719,1014.3013 Q66.4531,1014.0669 66.0469,1013.9263 Q65.6563,1013.77 65.2656,1013.77 Q64.7656,1013.77 64.3438,1013.9888 Q63.9375,1014.2075 63.6094,1014.6919 Q63.2969,1015.1763 63.2969,1015.8325 L63.2969,1016.5513 Q63.2969,1017.3481 63.875,1017.8794 Q64.4531,1018.4106 65.4844,1018.4106 Q66.0938,1018.4106 66.5156,1018.2388 Q66.7656,1018.145 67.0469,1017.8638 Q67.2188,1017.6919 67.3125,1017.645 Q67.4063,1017.5825 67.5313,1017.5825 Q67.75,1017.5825 67.9219,1017.7544 Q68.0938,1017.9263 68.0938,1018.145 Q68.0938,1018.3638 67.8594,1018.6294 Q67.5313,1019.0044 67.0156,1019.2231 Q66.3281,1019.5044 65.4844,1019.5044 Q64.5156,1019.5044 63.7344,1019.1138 Q63.0938,1018.7856 62.6406,1018.0981 Q62.2031,1017.395 62.2031,1016.5669 L62.2031,1015.8169 Q62.2031,1014.9575 62.5938,1014.2231 Q63,1013.4731 63.7031,1013.0825 Q64.4219,1012.6763 65.2188,1012.6763 Q65.6875,1012.6763 66.1094,1012.7856 Q66.5313,1012.895 66.8906,1013.1138 Z " fill="#000000"/><text fill="#111827" font-family="Arial" font-size="10" lengthAdjust="spacing" textLength="103.374" x="92.8594" y="1019.4785">RepairTaskAssignment</text><line style="stroke:#1D4ED8;stroke-width:1.5;" x1="7" x2="254.5928" y1="1036.5977" y2="1036.5977"/><text fill="#000000" font-family="Arial" font-size="10" lengthAdjust="spacing" textLength="43.0811" x="22" y="1059.9775">+id : Guid</text><text fill="#000000" font-family="Arial" font-size="10" lengthAdjust="spacing" textLength="90.874" x="22" y="1091.4766">+repairTaskId : Guid</text><text fill="#000000" font-family="Arial" font-size="10" lengthAdjust="spacing" textLength="86.4355" x="22" y="1122.9756">+mechanicId : Guid</text><text fill="#000000" font-family="Arial" font-size="10" lengthAdjust="spacing" textLength="106.9971" x="22" y="1154.4746">+assignedAt : DateTime</text><text fill="#000000" font-family="Arial" font-size="10" lengthAdjust="spacing" textLength="158.6963" x="22" y="1185.9736">+examinationObservations : String?</text><text fill="#000000" font-family="Arial" font-size="10" lengthAdjust="spacing" textLength="103.1201" x="22" y="1217.4727">+partsNeeded : String?</text><text fill="#000000" font-family="Arial" font-size="10" lengthAdjust="spacing" textLength="122.5684" x="22" y="1248.9717">+examinationStatus : String</text><text fill="#000000" font-family="Arial" font-size="10" lengthAdjust="spacing" textLength="114.7803" x="22" y="1280.4707">+mechanicNotes : String?</text><line style="stroke:#1D4ED8;stroke-width:1;stroke-dasharray:1.0,2.0;" x1="7" x2="254.5928" y1="1296.5898" y2="1296.5898"/><text fill="#000000" font-family="Arial" font-size="10" lengthAdjust="spacing" textLength="217.5928" x="22" y="1319.9697">+SubmitMechanicExaminationReportCommand()</text></g><!--class Invoice--><g id="elem_Invoice"><rect codeLine="55" fill="#EFF6FF" height="403.9883" id="Invoice" rx="2.5" ry="2.5" style="stroke:#1D4ED8;stroke-width:1.5;" width="170.6816" x="251.5" y="517.0986"/><ellipse cx="307.2485" cy="537.8481" fill="#ADD1B2" rx="9" ry="9" style="stroke:#181818;stroke-width:1;"/><path d="M308.7798,535.1138 Q308.8735,534.9731 308.9985,534.9106 Q309.1235,534.8325 309.2642,534.8325 Q309.4985,534.8325 309.6548,535.0044 Q309.811,535.1763 309.811,535.5669 L309.811,536.5044 Q309.811,536.895 309.6548,537.0669 Q309.4985,537.2388 309.2642,537.2388 Q309.0454,537.2388 308.9048,537.1138 Q308.7642,536.9888 308.7017,536.6606 Q308.6704,536.4263 308.561,536.3013 Q308.3423,536.0669 307.936,535.9263 Q307.5454,535.77 307.1548,535.77 Q306.6548,535.77 306.2329,535.9888 Q305.8267,536.2075 305.4985,536.6919 Q305.186,537.1763 305.186,537.8325 L305.186,538.5513 Q305.186,539.3481 305.7642,539.8794 Q306.3423,540.4106 307.3735,540.4106 Q307.9829,540.4106 308.4048,540.2388 Q308.6548,540.145 308.936,539.8638 Q309.1079,539.6919 309.2017,539.645 Q309.2954,539.5825 309.4204,539.5825 Q309.6392,539.5825 309.811,539.7544 Q309.9829,539.9263 309.9829,540.145 Q309.9829,540.3638 309.7485,540.6294 Q309.4204,541.0044 308.9048,541.2231 Q308.2173,541.5044 307.3735,541.5044 Q306.4048,541.5044 305.6235,541.1138 Q304.9829,540.7856 304.5298,540.0981 Q304.0923,539.395 304.0923,538.5669 L304.0923,537.8169 Q304.0923,536.9575 304.4829,536.2231 Q304.8892,535.4731 305.5923,535.0825 Q306.311,534.6763 307.1079,534.6763 Q307.5767,534.6763 307.9985,534.7856 Q308.4204,534.895 308.7798,535.1138 Z " fill="#000000"/><text fill="#111827" font-family="Arial" font-size="10" lengthAdjust="spacing" textLength="31.6846" x="334.7485" y="541.4785">Invoice</text><line style="stroke:#1D4ED8;stroke-width:1.5;" x1="252.5" x2="421.1816" y1="558.5977" y2="558.5977"/><text fill="#000000" font-family="Arial" font-size="10" lengthAdjust="spacing" textLength="43.0811" x="267.5" y="581.9775">+id : Guid</text><text fill="#000000" font-family="Arial" font-size="10" lengthAdjust="spacing" textLength="98.6768" x="267.5" y="613.4766">+appointmentId : Guid</text><text fill="#000000" font-family="Arial" font-size="10" lengthAdjust="spacing" textLength="106.9922" x="267.5" y="644.9756">+invoiceNumber : String</text><text fill="#000000" font-family="Arial" font-size="10" lengthAdjust="spacing" textLength="97.5391" x="267.5" y="676.4746">+serviceFee : decimal</text><text fill="#000000" font-family="Arial" font-size="10" lengthAdjust="spacing" textLength="93.0957" x="267.5" y="707.9736">+partsTotal : decimal</text><text fill="#000000" font-family="Arial" font-size="10" lengthAdjust="spacing" textLength="101.9971" x="267.5" y="739.4727">+totalAmount : decimal</text><text fill="#000000" font-family="Arial" font-size="10" lengthAdjust="spacing" textLength="100.8887" x="267.5" y="770.9717">+status : InvoiceStatus</text><text fill="#000000" font-family="Arial" font-size="10" lengthAdjust="spacing" textLength="99.2334" x="267.5" y="802.4707">+clientApproved : bool</text><text fill="#000000" font-family="Arial" font-size="10" lengthAdjust="spacing" textLength="138.6816" x="267.5" y="833.9697">+clientApprovedAt : DateTime?</text><line style="stroke:#1D4ED8;stroke-width:1;stroke-dasharray:1.0,2.0;" x1="252.5" x2="421.1816" y1="850.0889" y2="850.0889"/><text fill="#000000" font-family="Arial" font-size="10" lengthAdjust="spacing" textLength="120.3271" x="267.5" y="873.4688">+CreateInvoiceCommand()</text><text fill="#000000" font-family="Arial" font-size="10" lengthAdjust="spacing" textLength="124.7705" x="267.5" y="904.9678">+FinalizeInvoiceCommand()</text></g><!--class InvoiceLineItem--><g id="elem_InvoiceLineItem"><rect codeLine="70" fill="#EFF6FF" height="277.9922" id="InvoiceLineItem" rx="2.5" ry="2.5" style="stroke:#1D4ED8;stroke-width:1.5;" width="124.5537" x="274.5" y="1026.5986"/><ellipse cx="290.4316" cy="1047.3481" fill="#ADD1B2" rx="9" ry="9" style="stroke:#181818;stroke-width:1;"/><path d="M291.9628,1044.6138 Q292.0566,1044.4731 292.1816,1044.4106 Q292.3066,1044.3325 292.4472,1044.3325 Q292.6816,1044.3325 292.8378,1044.5044 Q292.9941,1044.6763 292.9941,1045.0669 L292.9941,1046.0044 Q292.9941,1046.395 292.8378,1046.5669 Q292.6816,1046.7388 292.4472,1046.7388 Q292.2285,1046.7388 292.0878,1046.6138 Q291.9472,1046.4888 291.8847,1046.1606 Q291.8535,1045.9263 291.7441,1045.8013 Q291.5253,1045.5669 291.1191,1045.4263 Q290.7285,1045.27 290.3378,1045.27 Q289.8378,1045.27 289.416,1045.4888 Q289.0097,1045.7075 288.6816,1046.1919 Q288.3691,1046.6763 288.3691,1047.3325 L288.3691,1048.0513 Q288.3691,1048.8481 288.9472,1049.3794 Q289.5253,1049.9106 290.5566,1049.9106 Q291.166,1049.9106 291.5878,1049.7388 Q291.8378,1049.645 292.1191,1049.3638 Q292.291,1049.1919 292.3847,1049.145 Q292.4785,1049.0825 292.6035,1049.0825 Q292.8222,1049.0825 292.9941,1049.2544 Q293.166,1049.4263 293.166,1049.645 Q293.166,1049.8638 292.9316,1050.1294 Q292.6035,1050.5044 292.0878,1050.7231 Q291.4003,1051.0044 290.5566,1051.0044 Q289.5878,1051.0044 288.8066,1050.6138 Q288.166,1050.2856 287.7128,1049.5981 Q287.2753,1048.895 287.2753,1048.0669 L287.2753,1047.3169 Q287.2753,1046.4575 287.666,1045.7231 Q288.0722,1044.9731 288.7753,1044.5825 Q289.4941,1044.1763 290.291,1044.1763 Q290.7597,1044.1763 291.1816,1044.2856 Q291.6035,1044.395 291.9628,1044.6138 Z " fill="#000000"/><text fill="#111827" font-family="Arial" font-size="10" lengthAdjust="spacing" textLength="70.0391" x="313.0831" y="1050.9785">InvoiceLineItem</text><line style="stroke:#1D4ED8;stroke-width:1.5;" x1="275.5" x2="398.0537" y1="1068.0977" y2="1068.0977"/><text fill="#000000" font-family="Arial" font-size="10" lengthAdjust="spacing" textLength="43.0811" x="290.5" y="1091.4775">+id : Guid</text><text fill="#000000" font-family="Arial" font-size="10" lengthAdjust="spacing" textLength="74.7656" x="290.5" y="1122.9766">+invoiceId : Guid</text><text fill="#000000" font-family="Arial" font-size="10" lengthAdjust="spacing" textLength="92.5537" x="290.5" y="1154.4756">+sparePartId : Guid?</text><text fill="#000000" font-family="Arial" font-size="10" lengthAdjust="spacing" textLength="88.6572" x="290.5" y="1185.9746">+description : String</text><text fill="#000000" font-family="Arial" font-size="10" lengthAdjust="spacing" textLength="59.7607" x="290.5" y="1217.4736">+quantity : int</text><text fill="#000000" font-family="Arial" font-size="10" lengthAdjust="spacing" textLength="87.5391" x="290.5" y="1248.9727">+unitPrice : decimal</text><text fill="#000000" font-family="Arial" font-size="10" lengthAdjust="spacing" textLength="86.4307" x="290.5" y="1280.4717">+lineTotal : decimal</text><line style="stroke:#1D4ED8;stroke-width:1.5;" x1="275.5" x2="398.0537" y1="1296.5908" y2="1296.5908"/></g><!--class Intervention--><g id="elem_Intervention"><rect codeLine="80" fill="#EFF6FF" height="373.6392" id="Intervention" rx="2.5" ry="2.5" style="stroke:#1D4ED8;stroke-width:1.5;" width="159.0117" x="257.5" y="69.0986"/><ellipse cx="279.3392" cy="106.1726" fill="#ADD1B2" rx="9" ry="9" style="stroke:#181818;stroke-width:1;"/><path d="M280.8704,103.4382 Q280.9642,103.2976 281.0892,103.2351 Q281.2142,103.157 281.3548,103.157 Q281.5892,103.157 281.7454,103.3289 Q281.9017,103.5007 281.9017,103.8914 L281.9017,104.8289 Q281.9017,105.2195 281.7454,105.3914 Q281.5892,105.5632 281.3548,105.5632 Q281.136,105.5632 280.9954,105.4382 Q280.8548,105.3132 280.7923,104.9851 Q280.761,104.7507 280.6517,104.6257 Q280.4329,104.3914 280.0267,104.2507 Q279.636,104.0945 279.2454,104.0945 Q278.7454,104.0945 278.3235,104.3132 Q277.9173,104.532 277.5892,105.0164 Q277.2767,105.5007 277.2767,106.157 L277.2767,106.8757 Q277.2767,107.6726 277.8548,108.2039 Q278.4329,108.7351 279.4642,108.7351 Q280.0735,108.7351 280.4954,108.5632 Q280.7454,108.4695 281.0267,108.1882 Q281.1985,108.0164 281.2923,107.9695 Q281.386,107.907 281.511,107.907 Q281.7298,107.907 281.9017,108.0789 Q282.0735,108.2507 282.0735,108.4695 Q282.0735,108.6882 281.8392,108.9539 Q281.511,109.3289 280.9954,109.5476 Q280.3079,109.8289 279.4642,109.8289 Q278.4954,109.8289 277.7142,109.4382 Q277.0735,109.1101 276.6204,108.4226 Q276.1829,107.7195 276.1829,106.8914 L276.1829,106.1414 Q276.1829,105.282 276.5735,104.5476 Q276.9798,103.7976 277.6829,103.407 Q278.4017,103.0007 279.1985,103.0007 Q279.6673,103.0007 280.0892,103.1101 Q280.511,103.2195 280.8704,103.4382 Z " fill="#000000"/><text fill="#000000" font-family="Arial" font-size="11" font-style="italic" lengthAdjust="spacing" textLength="95.3691" x="301.3034" y="94.4165">&#171;Lifecycle Tracker&#187;</text><text fill="#111827" font-family="Arial" font-size="10" lengthAdjust="spacing" textLength="52.2559" x="322.8601" y="126.1274">Intervention</text><line style="stroke:#1D4ED8;stroke-width:1.5;" x1="258.5" x2="415.5117" y1="143.2466" y2="143.2466"/><text fill="#000000" font-family="Arial" font-size="10" lengthAdjust="spacing" textLength="43.0811" x="273.5" y="166.6265">+id : Guid</text><text fill="#000000" font-family="Arial" font-size="10" lengthAdjust="spacing" textLength="104.2383" x="273.5" y="198.1255">+appointmentId : Guid?</text><text fill="#000000" font-family="Arial" font-size="10" lengthAdjust="spacing" textLength="80.3271" x="273.5" y="229.6245">+invoiceId : Guid?</text><text fill="#000000" font-family="Arial" font-size="10" lengthAdjust="spacing" textLength="96.4355" x="273.5" y="261.1235">+repairTaskId : Guid?</text><text fill="#000000" font-family="Arial" font-size="10" lengthAdjust="spacing" textLength="108.1104" x="273.5" y="292.6226">+status : LifecycleStatus</text><text fill="#000000" font-family="Arial" font-size="10" lengthAdjust="spacing" textLength="127.0117" x="273.5" y="324.1216">+paymentAmount : decimal?</text><text fill="#000000" font-family="Arial" font-size="10" lengthAdjust="spacing" textLength="117.5684" x="273.5" y="355.6206">+paymentMethod : String?</text><text fill="#000000" font-family="Arial" font-size="10" lengthAdjust="spacing" textLength="122.5586" x="273.5" y="387.1196">+paymentDate : DateTime?</text><text fill="#000000" font-family="Arial" font-size="10" lengthAdjust="spacing" textLength="76.4355" x="273.5" y="418.6187">+paidBy : String?</text><line style="stroke:#1D4ED8;stroke-width:1.5;" x1="258.5" x2="415.5117" y1="434.7378" y2="434.7378"/></g><!--class LifecycleStatus--><g id="elem_LifecycleStatus"><rect codeLine="92" fill="#EFF6FF" height="340.9902" id="LifecycleStatus" rx="2.5" ry="2.5" style="stroke:#1D4ED8;stroke-width:1.5;" width="130.9404" x="440.5" y="548.5986"/><ellipse cx="460.5581" cy="569.3481" fill="#EB937F" rx="9" ry="9" style="stroke:#181818;stroke-width:1;"/><path d="M459.7299,570.1294 L459.7299,571.7544 L462.5424,571.7544 L462.5424,571.145 Q462.5424,570.7544 462.6831,570.5825 Q462.8393,570.4106 463.0893,570.4106 Q463.3393,570.4106 463.4799,570.5825 Q463.6362,570.7544 463.6362,571.145 L463.6362,572.8481 L458.4487,572.8481 Q458.0581,572.8481 457.8862,572.6919 Q457.7143,572.5356 457.7143,572.3013 Q457.7143,572.0513 457.8862,571.9106 Q458.0581,571.7544 458.4487,571.7544 L458.6206,571.7544 L458.6206,567.4419 L458.4487,567.4419 Q458.0581,567.4419 457.8862,567.2856 Q457.7143,567.1294 457.7143,566.8794 Q457.7143,566.645 457.8862,566.4888 Q458.0581,566.3325 458.4487,566.3325 L463.4018,566.3325 L463.4018,568.02 Q463.4018,568.4106 463.2456,568.5825 Q463.0893,568.7388 462.8549,568.7388 Q462.6049,568.7388 462.4487,568.5825 Q462.2924,568.4106 462.2924,568.02 L462.2924,567.4419 L459.7299,567.4419 L459.7299,569.0356 L460.6987,569.0356 Q460.6987,568.5981 460.7768,568.4731 Q460.9487,568.2075 461.2456,568.2075 Q461.4956,568.2075 461.6362,568.3794 Q461.7924,568.5513 461.7924,568.9419 L461.7924,570.2231 Q461.7924,570.5825 461.7143,570.6919 Q461.5424,570.9575 461.2456,570.9575 Q460.9487,570.9575 460.7768,570.6919 Q460.6987,570.5669 460.6987,570.1294 L459.7299,570.1294 Z " fill="#000000"/><text fill="#111827" font-family="Arial" font-size="10" lengthAdjust="spacing" textLength="67.2559" x="484.1265" y="572.9785">LifecycleStatus</text><line style="stroke:#1D4ED8;stroke-width:1.5;" x1="441.5" x2="570.4404" y1="590.0977" y2="590.0977"/><text fill="#000000" font-family="Arial" font-size="10" lengthAdjust="spacing" textLength="35.5762" x="456.5" y="613.4775">Created</text><text fill="#000000" font-family="Arial" font-size="10" lengthAdjust="spacing" textLength="82.2656" x="456.5" y="644.9766">UnderExamination</text><text fill="#000000" font-family="Arial" font-size="10" lengthAdjust="spacing" textLength="98.9404" x="456.5" y="676.4756">ExaminationReviewed</text><text fill="#000000" font-family="Arial" font-size="10" lengthAdjust="spacing" textLength="68.3838" x="456.5" y="707.9746">InvoicePending</text><text fill="#000000" font-family="Arial" font-size="10" lengthAdjust="spacing" textLength="77.8125" x="456.5" y="739.4736">RepairInProgress</text><text fill="#000000" font-family="Arial" font-size="10" lengthAdjust="spacing" textLength="39.4678" x="456.5" y="770.9727">Rejected</text><text fill="#000000" font-family="Arial" font-size="10" lengthAdjust="spacing" textLength="77.8174" x="456.5" y="802.4717">RepairCompleted</text><text fill="#000000" font-family="Arial" font-size="10" lengthAdjust="spacing" textLength="73.9209" x="456.5" y="833.9707">ReadyForPickup</text><text fill="#000000" font-family="Arial" font-size="10" lengthAdjust="spacing" textLength="31.1279" x="456.5" y="865.4697">Closed</text><line style="stroke:#1D4ED8;stroke-width:1.5;" x1="441.5" x2="570.4404" y1="881.5889" y2="881.5889"/></g><polygon fill="none" points="131,921.2156,127,927.2156,131,933.2156,135,927.2156,131,921.2156" style="stroke:#374151;stroke-width:1;"/><polygon fill="#374151" points="131,994.8349,135,985.8349,131,989.8349,127,985.8349,131,994.8349" style="stroke:#374151;stroke-width:1;"/><path d="M131,933.2156 C131,957.8136 131,964.76 131,988.8349 " fill="none" style="stroke:#374151;stroke-width:1.5;"/><text fill="#B91C1C" font-family="Arial" font-size="13" font-weight="bold" lengthAdjust="spacing" textLength="59.2554" x="143" y="963.2925">assign&#233; &#224;</text><text fill="#B91C1C" font-family="Arial" font-size="13" font-weight="bold" lengthAdjust="spacing" textLength="19.5127" x="101" y="982.0288">1..*</text><text fill="#B91C1C" font-family="Arial" font-size="13" font-weight="bold" lengthAdjust="spacing" textLength="7.23" x="113" y="944.4094">1</text><polygon fill="#374151" points="337,921.2156,333,927.2156,337,933.2156,341,927.2156,337,921.2156" style="stroke:#374151;stroke-width:1;"/><polygon fill="#374151" points="337,1026.5986,341,1017.5986,337,1021.5986,333,1017.5986,337,1026.5986" style="stroke:#374151;stroke-width:1;"/><path d="M337,933.2156 C337,968.8482 337,987.212 337,1020.5986 " fill="none" style="stroke:#374151;stroke-width:1.5;"/><text fill="#B91C1C" font-family="Arial" font-size="13" font-weight="bold" lengthAdjust="spacing" textLength="50.5527" x="349" y="963.2925">contient</text><text fill="#B91C1C" font-family="Arial" font-size="13" font-weight="bold" lengthAdjust="spacing" textLength="19.5127" x="307" y="1013.7924">1..*</text><text fill="#B91C1C" font-family="Arial" font-size="13" font-weight="bold" lengthAdjust="spacing" textLength="7.23" x="319" y="944.4094">1</text><polygon fill="#374151" points="220.8835,516.9516,228.2072,510.3666,222.9233,512.3867,220.9033,507.1028,220.8835,516.9516" style="stroke:#374151;stroke-width:1;"/><path d="M257.355,435.3333 C245.4104,462.0638 235.4712,484.3062 223.3313,511.4737 " fill="none" style="stroke:#374151;stroke-width:1.5;"/><text fill="#B91C1C" font-family="Arial" font-size="13" font-weight="bold" lengthAdjust="spacing" textLength="23.1118" x="253" y="485.2925">suit</text><polygon fill="#374151" points="337,516.9058,341,507.9058,337,511.9058,333,507.9058,337,516.9058" style="stroke:#374151;stroke-width:1;"/><path d="M337,443.2762 C337,467.5156 337,486.4347 337,510.9058 " fill="none" style="stroke:#374151;stroke-width:1.5;stroke-dasharray:7.0,7.0;"/><text fill="#B91C1C" font-family="Arial" font-size="13" font-weight="bold" lengthAdjust="spacing" textLength="52.7681" x="349" y="485.2925">&#171;tracks&#187;</text><polygon fill="#374151" points="448.3208,548.4065,449.1185,538.59,446.6669,543.688,441.5689,541.2363,448.3208,548.4065" style="stroke:#374151;stroke-width:1;"/><path d="M410.3393,443.203 C412.6012,449.2327 414.8267,455.2098 417,461.0986 C427.3812,489.2274 436.1035,513.5519 446.3361,542.7443 " fill="none" style="stroke:#374151;stroke-width:1.5;stroke-dasharray:7.0,7.0;"/><text fill="#B91C1C" font-family="Arial" font-size="13" font-weight="bold" lengthAdjust="spacing" textLength="36.8608" x="442" y="485.2925">&#171;use&#187;</text><!--SRC=[bLNRRXCn47tFLvZomaL4R2zS8fGeIHk8H4j40k_EUaXDr_PYpnO2Gk8Z-01U-Gx-X2zXxDqckyu6GP_IESVZCsV6ixToorUAiuolJO7CAK2kUSTTIPrponLRylHgPKsXnTXanhBRa_1NOmXunuiC9qRZ1LV0XbRoh1sVoy_0agG6ZZFktCXO0RRAdvmUdvq-QQSiBcLwfS4vbdHFOieBu4GPnNeFJnuTdOtQoLxJlh8YsXpN6R2boSHVEA6ymntjiQIpoUJHxbqrCKcIF3byt4ROu-0GqSfbWR3bFAnnXjQQZrNkeyV7oKaIW_kS3U0swL4hr6RD1gsk7JrDnicuHbX8p6foZrkXjimv5qBgLRF2jE72D3Kwf7tOwQ1FnkQvbHhPCVlzxNjf6JZMOqE4J89bW6oyJeadWBsLqEc4VEmrv5pQ1NTNx4k7iVjC2Zhql90Y_CVpt51M1Hgd3M15cbRGZ25b2OLHS4uwzIg41RZKoXobqKt08SV2QzoAc8TGURLpSgL1394OfnnX8HK493Kgpy3dkp0OYYoJ3W8A3gKYkZYNkYXXgi1ZtMuWZ2qGlBrpR9JYMjov6z1viLGIItIykMZB-Rhht30ezHwrUcWtnAPT2j9BhcNQZEul6pvn9JNtSbuj7TZhy3CkduO5tGM0014Ripq_lt6-reqRERkULhwLpfnNjBDjDdB2M6onQAglZKpX_oPBbeSk2hMaiMqE31LDq0JyX0b8gS_PjkY5GPv50FhOKD5cmWZP35ybiZPvAJqOZSCyj-OwkBWq9cj16YtQ6R0gRtEw9cHPHizs1umzUoarJ15KgtULHKtV79a0Cp9Y4nxy_VbzABYcrR4k7qW85LhYpFgMDStAI4riRqqnKb_85t_3isSlvJj8mwPPMFeiWEtt_ta01gtb3VOzeq6pavkRQxtC-ThV48_0e0wU0ruQiVEE0kRR6tNPOrACrhK3v0NeGiKAGjtbDFYQtsZwYjRU3OKQh-XQmiT0h6PW1bgKpIftpLJFh5bP-eI5q7j8oxoDPLL5k5XFZ9tH9w_8lOZCE498PstX7oG7p3nuqASVtUwzW_QDrgisqg-VxDUFpisBzaVlrOx6KzkZ9Kq3GGawZV7mHseAUimLCg9qk_tDukZHFA6V8jVlxx9YjpsxS43KFm00]--></g></svg>