<svg xmlns="http://www.w3.org/2000/svg" xmlns:xlink="http://www.w3.org/1999/xlink" contentStyleType="text/css" height="1529px" preserveAspectRatio="none" style="width:370px;height:1529px;background:#FFFFFF;" version="1.1" viewBox="0 0 370 1529" width="370px" zoomAndPan="magnify"><title>Machine d'&#201;tats &#8212; Intervention Lifecycle Tracker</title><defs/><g><text fill="#000000" font-family="Arial" font-size="14" font-weight="bold" lengthAdjust="spacing" textLength="326.2109" x="18" y="31.1318">Machine d'&#201;tats &#8212; Intervention Lifecycle Tracker</text><ellipse cx="183.0938" cy="69.0986" fill="#222222" rx="10" ry="10" style="stroke:#222222;stroke-width:1;"/><g id="Created"><rect fill="#EFF6FF" height="65.7988" rx="12.5" ry="12.5" style="stroke:#1D4ED8;stroke-width:1.5;" width="80.6836" x="142.5938" y="170.0986"/><line style="stroke:#1D4ED8;stroke-width:1.5;" x1="142.5938" x2="223.2773" y1="209.8975" y2="209.8975"/><text fill="#000000" font-family="Arial" font-size="12" font-weight="bold" lengthAdjust="spacing" textLength="44.6836" x="160.5938" y="194.3545">Created</text></g><g id="UnderExamination"><rect fill="#EFF6FF" height="65.7988" rx="12.5" ry="12.5" style="stroke:#1D4ED8;stroke-width:1.5;" width="142.0195" x="112.0938" y="341.0986"/><line style="stroke:#1D4ED8;stroke-width:1.5;" x1="112.0938" x2="254.1133" y1="380.8975" y2="380.8975"/><text fill="#000000" font-family="Arial" font-size="12" font-weight="bold" lengthAdjust="spacing" textLength="106.0195" x="130.0938" y="365.3545">UnderExamination</text></g><g id="ExaminationReviewed"><rect fill="#EFF6FF" height="65.7988" rx="12.5" ry="12.5" style="stroke:#1D4ED8;stroke-width:1.5;" width="162.709" x="101.5938" y="512.0986"/><line style="stroke:#1D4ED8;stroke-width:1.5;" x1="101.5938" x2="264.3027" y1="551.8975" y2="551.8975"/><text fill="#000000" font-family="Arial" font-size="12" font-weight="bold" lengthAdjust="spacing" textLength="126.709" x="119.5938" y="536.3545">ExaminationReviewed</text></g><g id="InvoicePending"><rect fill="#EFF6FF" height="65.7988" rx="12.5" ry="12.5" style="stroke:#1D4ED8;stroke-width:1.5;" width="124.6816" x="120.5938" y="683.0986"/><line style="stroke:#1D4ED8;stroke-width:1.5;" x1="120.5938" x2="245.2754" y1="722.8975" y2="722.8975"/><text fill="#000000" font-family="Arial" font-size="12" font-weight="bold" lengthAdjust="spacing" textLength="88.6816" x="138.5938" y="707.3545">InvoicePending</text></g><g id="RepairInProgress"><rect fill="#EFF6FF" height="65.7988" rx="12.5" ry="12.5" style="stroke:#1D4ED8;stroke-width:1.5;" width="136.0371" x="43.0938" y="840.0986"/><line style="stroke:#1D4ED8;stroke-width:1.5;" x1="43.0938" x2="179.1309" y1="879.8975" y2="879.8975"/><text fill="#000000" font-family="Arial" font-size="12" font-weight="bold" lengthAdjust="spacing" textLength="100.0371" x="61.0938" y="864.3545">RepairInProgress</text></g><g id="Rejected"><rect fill="#EFF6FF" height="65.7988" rx="12.5" ry="12.5" style="stroke:#1D4ED8;stroke-width:1.5;" width="86.0215" x="213.0938" y="936.0986"/><line style="stroke:#1D4ED8;stroke-width:1.5;" x1="213.0938" x2="299.1152" y1="975.8975" y2="975.8975"/><text fill="#000000" font-family="Arial" font-size="12" font-weight="bold" lengthAdjust="spacing" textLength="50.0215" x="231.0938" y="960.3545">Rejected</text></g><g id="RepairCompleted"><rect fill="#EFF6FF" height="65.7988" rx="12.5" ry="12.5" style="stroke:#1D4ED8;stroke-width:1.5;" width="135.3516" x="45.5938" y="1032.0986"/><line style="stroke:#1D4ED8;stroke-width:1.5;" x1="45.5938" x2="180.9453" y1="1071.8975" y2="1071.8975"/><text fill="#000000" font-family="Arial" font-size="12" font-weight="bold" lengthAdjust="spacing" textLength="99.3516" x="63.5938" y="1056.3545">RepairCompleted</text></g><g id="ReadyForPickup"><rect fill="#EFF6FF" height="65.7988" rx="12.5" ry="12.5" style="stroke:#1D4ED8;stroke-width:1.5;" width="130.6934" x="53.5938" y="1203.0986"/><line style="stroke:#1D4ED8;stroke-width:1.5;" x1="53.5938" x2="184.2871" y1="1242.8975" y2="1242.8975"/><text fill="#000000" font-family="Arial" font-size="12" font-weight="bold" lengthAdjust="spacing" textLength="94.6934" x="71.5938" y="1227.3545">ReadyForPickup</text></g><g id="Closed"><rect fill="#EFF6FF" height="65.7988" rx="12.5" ry="12.5" style="stroke:#1D4ED8;stroke-width:1.5;" width="76.0078" x="108.0938" y="1374.0986"/><line style="stroke:#1D4ED8;stroke-width:1.5;" x1="108.0938" x2="184.1016" y1="1413.8975" y2="1413.8975"/><text fill="#000000" font-family="Arial" font-size="12" font-weight="bold" lengthAdjust="spacing" textLength="40.0078" x="126.0938" y="1398.3545">Closed</text></g><ellipse cx="200.0938" cy="1512.0986" fill="none" rx="11" ry="11" style="stroke:#222222;stroke-width:1;"/><ellipse cx="200.0938" cy="1512.0986" fill="#222222" rx="6" ry="6" style="stroke:#222222;stroke-width:1;"/><!--link *start* to Created--><g id="link_*start*_Created"><path d="M183.0938,79.1686 C183.0938,97.5786 183.0938,134.0886 183.0938,163.9386 " fill="none" id="*start*-to-Created" style="stroke:#374151;stroke-width:1.5;"/><polygon fill="#374151" points="183.0938,169.9386,187.0938,160.9386,183.0938,164.9386,179.0938,160.9386,183.0938,169.9386" style="stroke:#374151;stroke-width:1.5;"/><text fill="#1E3A8A" font-family="Arial" font-size="12" font-weight="bold" lengthAdjust="spacing" textLength="132.0234" x="192.0938" y="129.3545">Rendez-vous approuv&#233;</text></g><!--link Created to UnderExamination--><g id="link_Created_UnderExamination"><path d="M183.0938,236.2886 C183.0938,266.3586 183.0938,304.9986 183.0938,335.0286 " fill="none" id="Created-to-UnderExamination" style="stroke:#374151;stroke-width:1.5;"/><polygon fill="#374151" points="183.0938,341.0286,187.0938,332.0286,183.0938,336.0286,179.0938,332.0286,183.0938,341.0286" style="stroke:#374151;stroke-width:1.5;"/><text fill="#1E3A8A" font-family="Arial" font-size="12" font-weight="bold" lengthAdjust="spacing" textLength="72.6855" x="192.0938" y="286.3545">ExamSubmit</text><text fill="#1E3A8A" font-family="Arial" font-size="12" font-weight="bold" lengthAdjust="spacing" textLength="72.6855" x="192.0938" y="300.1533">(M&#233;canicien)</text></g><!--link UnderExamination to ExaminationReviewed--><g id="link_UnderExamination_ExaminationReviewed"><path d="M183.0938,407.2886 C183.0938,437.3586 183.0938,475.9986 183.0938,506.0286 " fill="none" id="UnderExamination-to-ExaminationReviewed" style="stroke:#374151;stroke-width:1.5;"/><polygon fill="#374151" points="183.0938,512.0286,187.0938,503.0286,183.0938,507.0286,179.0938,503.0286,183.0938,512.0286" style="stroke:#374151;stroke-width:1.5;"/><text fill="#1E3A8A" font-family="Arial" font-size="12" font-weight="bold" lengthAdjust="spacing" textLength="68.0215" x="199.8486" y="457.3545">ChefReview</text><text fill="#1E3A8A" font-family="Arial" font-size="12" font-weight="bold" lengthAdjust="spacing" textLength="83.5313" x="192.0938" y="471.1533">(Chef d'atelier)</text></g><!--link ExaminationReviewed to InvoicePending--><g id="link_ExaminationReviewed_InvoicePending"><path d="M183.0938,578.2886 C183.0938,608.3586 183.0938,646.9986 183.0938,677.0286 " fill="none" id="ExaminationReviewed-to-InvoicePending" style="stroke:#374151;stroke-width:1.5;"/><polygon fill="#374151" points="183.0938,683.0286,187.0938,674.0286,183.0938,678.0286,179.0938,674.0286,183.0938,683.0286" style="stroke:#374151;stroke-width:1.5;"/><text fill="#1E3A8A" font-family="Arial" font-size="12" font-weight="bold" lengthAdjust="spacing" textLength="92.6895" x="192.0938" y="628.3545">InvoiceFinalized</text><text fill="#1E3A8A" font-family="Arial" font-size="12" font-weight="bold" lengthAdjust="spacing" textLength="83.5313" x="196.6729" y="642.1533">(Chef d'atelier)</text></g><!--link InvoicePending to RepairInProgress--><g id="link_InvoicePending_RepairInProgress"><path d="M130.6638,749.2886 C121.1238,757.7286 112.4938,767.7186 107.0938,779.0986 C98.1538,797.9286 98.1945,815.4893 101.4745,834.1393 " fill="none" id="InvoicePending-to-RepairInProgress" style="stroke:#374151;stroke-width:1.5;"/><polygon fill="#374151" points="102.5138,840.0486,104.8944,830.4918,101.6477,835.1242,97.0153,831.8775,102.5138,840.0486" style="stroke:#374151;stroke-width:1.5;"/><text fill="#1E3A8A" font-family="Arial" font-size="12" font-weight="bold" lengthAdjust="spacing" textLength="88.6816" x="116.0938" y="799.3545">ClientApproves</text></g><!--link InvoicePending to Rejected--><g id="link_InvoicePending_Rejected"><path d="M203.1638,749.3786 C208.2938,758.7086 213.4038,769.0786 217.0938,779.0986 C236.6438,832.2386 246.5903,891.64 251.6303,929.91 " fill="none" id="InvoicePending-to-Rejected" style="stroke:#374151;stroke-width:1.5;"/><polygon fill="#374151" points="252.4138,935.8586,255.2044,926.4134,251.7609,930.9014,247.2729,927.458,252.4138,935.8586" style="stroke:#374151;stroke-width:1.5;"/><text fill="#1E3A8A" font-family="Arial" font-size="12" font-weight="bold" lengthAdjust="spacing" textLength="76.0254" x="236.0938" y="799.3545">ClientRejects</text></g><!--link RepairInProgress to RepairCompleted--><g id="link_RepairInProgress_RepairCompleted"><path d="M103.6838,906.1086 C101.7938,915.6986 100.0338,926.2786 99.0938,936.0986 C96.2938,965.2986 95.8438,972.9486 99.0938,1002.0986 C100.1838,1011.8586 100.8618,1016.4806 103.0418,1025.9806 " fill="none" id="RepairInProgress-to-RepairCompleted" style="stroke:#374151;stroke-width:1.5;"/><polygon fill="#374151" points="104.3837,1031.8286,106.2695,1022.162,103.2654,1026.9553,98.4721,1023.9513,104.3837,1031.8286" style="stroke:#374151;stroke-width:1.5;"/><text fill="#1E3A8A" font-family="Arial" font-size="12" font-weight="bold" lengthAdjust="spacing" textLength="78.0117" x="108.0938" y="966.8545">RepairSubmit</text><text fill="#1E3A8A" font-family="Arial" font-size="12" font-weight="bold" lengthAdjust="spacing" textLength="72.6855" x="110.7568" y="980.6533">(M&#233;canicien)</text></g><!--link RepairCompleted to ReadyForPickup--><g id="link_RepairCompleted_ReadyForPickup"><path d="M114.2338,1098.2886 C115.3038,1128.3586 116.6821,1167.0024 117.7421,1197.0324 " fill="none" id="RepairCompleted-to-ReadyForPickup" style="stroke:#374151;stroke-width:1.5;"/><polygon fill="#374151" points="117.9538,1203.0286,121.6338,1193.8931,117.7774,1198.0317,113.6388,1194.1753,117.9538,1203.0286" style="stroke:#374151;stroke-width:1.5;"/><text fill="#1E3A8A" font-family="Arial" font-size="12" font-weight="bold" lengthAdjust="spacing" textLength="79.3594" x="128.1797" y="1148.3545">ChefValidates</text><text fill="#1E3A8A" font-family="Arial" font-size="12" font-weight="bold" lengthAdjust="spacing" textLength="83.5313" x="126.0938" y="1162.1533">(Chef d'atelier)</text></g><!--link ReadyForPickup to Closed--><g id="link_ReadyForPickup_Closed"><path d="M118.1438,1269.2286 C118.1138,1290.6386 119.2238,1319.2786 124.0938,1344.0986 C126.0338,1353.9586 127.2108,1358.7199 130.5808,1368.1299 " fill="none" id="ReadyForPickup-to-Closed" style="stroke:#374151;stroke-width:1.5;"/><polygon fill="#374151" points="132.6038,1373.7786,133.3351,1363.957,130.9179,1369.0714,125.8035,1366.6542,132.6038,1373.7786" style="stroke:#374151;stroke-width:1.5;"/><text fill="#1E3A8A" font-family="Arial" font-size="12" font-weight="bold" lengthAdjust="spacing" textLength="87.3516" x="133.0938" y="1319.3545">AdminPayment</text><text fill="#1E3A8A" font-family="Arial" font-size="12" font-weight="bold" lengthAdjust="spacing" textLength="45.3223" x="154.1084" y="1333.1533">(Admin)</text></g><!--link Rejected to *end*--><g id="link_Rejected_*end*"><path d="M255.8038,1002.1986 C255.5138,1038.1086 255.0938,1098.0186 255.0938,1149.5986 C255.0938,1149.5986 255.0938,1149.5986 255.0938,1408.0986 C255.0938,1447.8286 226.9422,1482.7072 211.8322,1498.9372 " fill="none" id="Rejected-to-*end*" style="stroke:#374151;stroke-width:1.5;"/><polygon fill="#374151" points="207.7438,1503.3286,216.804,1499.4671,211.1508,1499.6691,210.9487,1494.0158,207.7438,1503.3286" style="stroke:#374151;stroke-width:1.5;"/></g><!--link Closed to *end*--><g id="link_Closed_*end*"><path d="M162.8838,1440.1286 C174.1538,1461.6186 185.4185,1483.1143 192.5985,1496.8143 " fill="none" id="Closed-to-*end*" style="stroke:#374151;stroke-width:1.5;"/><polygon fill="#374151" points="195.3838,1502.1286,194.7489,1492.3003,193.0627,1497.7,187.663,1496.0139,195.3838,1502.1286" style="stroke:#374151;stroke-width:1.5;"/></g><!--SRC=[VP9DRjim48NtF0M1BbeNS04rJcju4K1rBC10KnYsqqtR1IsERTOKAP2KKcULRVUzHCxXc_Ga6UedSMGcsWtdcyStJxGxeN9cM4PNBDrjZ2uK7skf3NsJL1-nZmI7DIkaIxHotrW6D3Q2oN1_8Mw1HX-FcWl777pHXeDfzAFBmUHo64QMMv7k55XBem_d9qZNwIH9FZrpMc6L3xUNG5TQyc3tn6LiZBvfLCy-3wBpgDjyoLdLV4NqHJUFtJQMoLayZ8-0fN3ooEuWs0efvunpeJPqI8Zp8BrYwLOeeFpjuIzcOEd_ktzqgXoO4fGJMj6lOWtfFaLsQJ1bC8JyUF-BzliNT6m0O-DqHEUWEDpsIrrOol8S_qHvk2Ua1JnyZOIP_66PKAmI7b5VBOfL9jnFzUxgS9yo9L81gaTEOAzmLC-X571JNJtUmhekKSGNk0jUAWMO7WcDUAcfAhL8OOQsVHoZzY11M6AcFA15EaDUPmuv4sQgPaPlZ7y1w0TfvM8VGWasFFGRqZgt6guFB24dSaztZ7MMIsZJzYVXvBfqhS3uFj5cXk-qo9lClkEY79UpWLKx0zM_bjfMbySS4vsnVOR6SRGgUzvwivI7yO6GPg0j7m00]--></g></svg>