<svg xmlns="http://www.w3.org/2000/svg" xmlns:xlink="http://www.w3.org/1999/xlink" contentStyleType="text/css" height="1012px" preserveAspectRatio="none" style="width:342px;height:1012px;background:#FFFFFF;" version="1.1" viewBox="0 0 342 1012" width="342px" zoomAndPan="magnify"><title>Pipeline RAG &#8212; Service de Diagnostic IA</title><defs/><g><text fill="#000000" font-family="Arial" font-size="14" font-weight="bold" lengthAdjust="spacing" textLength="273.8545" x="27.1792" y="33.1318">Pipeline RAG &#8212; Service de Diagnostic IA</text><!--entity s1--><g id="elem_s1"><rect fill="#EFF6FF" height="77.5977" rx="2.5" ry="2.5" style="stroke:#1D4ED8;stroke-width:0.5;" width="128.7012" x="7" y="64.0986"/><rect fill="#EFF6FF" height="10" style="stroke:#1D4ED8;stroke-width:0.5;" width="15" x="115.7012" y="69.0986"/><rect fill="#EFF6FF" height="2" style="stroke:#1D4ED8;stroke-width:0.5;" width="4" x="113.7012" y="71.0986"/><rect fill="#EFF6FF" height="2" style="stroke:#1D4ED8;stroke-width:0.5;" width="4" x="113.7012" y="75.0986"/><text fill="#000000" font-family="Arial" font-size="12" font-weight="bold" lengthAdjust="spacing" textLength="68.7012" x="32" y="105.3545">1. Texte des</text><text fill="#000000" font-family="Arial" font-size="12" font-weight="bold" lengthAdjust="spacing" textLength="68.0215" x="32" y="119.1533">Sympt&#244;mes</text></g><!--entity s2--><g id="elem_s2"><rect fill="#EFF6FF" height="77.5977" rx="2.5" ry="2.5" style="stroke:#1D4ED8;stroke-width:0.5;" width="110.6953" x="102" y="237.0986"/><rect fill="#EFF6FF" height="10" style="stroke:#1D4ED8;stroke-width:0.5;" width="15" x="192.6953" y="242.0986"/><rect fill="#EFF6FF" height="2" style="stroke:#1D4ED8;stroke-width:0.5;" width="4" x="190.6953" y="244.0986"/><rect fill="#EFF6FF" height="2" style="stroke:#1D4ED8;stroke-width:0.5;" width="4" x="190.6953" y="248.0986"/><text fill="#000000" font-family="Arial" font-size="12" font-weight="bold" lengthAdjust="spacing" textLength="45.3516" x="127" y="278.3545">2. BM25</text><text fill="#000000" font-family="Arial" font-size="12" font-weight="bold" lengthAdjust="spacing" textLength="50.6953" x="127" y="292.1533">Retrieval</text></g><!--entity s3--><g id="elem_s3"><rect fill="#EFF6FF" height="77.5977" rx="2.5" ry="2.5" style="stroke:#1D4ED8;stroke-width:0.5;" width="124.6816" x="95" y="424.0986"/><rect fill="#EFF6FF" height="10" style="stroke:#1D4ED8;stroke-width:0.5;" width="15" x="199.6816" y="429.0986"/><rect fill="#EFF6FF" height="2" style="stroke:#1D4ED8;stroke-width:0.5;" width="4" x="197.6816" y="431.0986"/><rect fill="#EFF6FF" height="2" style="stroke:#1D4ED8;stroke-width:0.5;" width="4" x="197.6816" y="435.0986"/><text fill="#000000" font-family="Arial" font-size="12" font-weight="bold" lengthAdjust="spacing" textLength="64.6816" x="120" y="465.3545">3. Contexte</text><text fill="#000000" font-family="Arial" font-size="12" font-weight="bold" lengthAdjust="spacing" textLength="40.6758" x="120" y="479.1533">Enrichi</text></g><!--entity s4--><g id="elem_s4"><rect fill="#EFF6FF" height="77.5977" rx="2.5" ry="2.5" style="stroke:#1D4ED8;stroke-width:0.5;" width="127.3242" x="94" y="611.0986"/><rect fill="#EFF6FF" height="10" style="stroke:#1D4ED8;stroke-width:0.5;" width="15" x="201.3242" y="616.0986"/><rect fill="#EFF6FF" height="2" style="stroke:#1D4ED8;stroke-width:0.5;" width="4" x="199.3242" y="618.0986"/><rect fill="#EFF6FF" height="2" style="stroke:#1D4ED8;stroke-width:0.5;" width="4" x="199.3242" y="622.0986"/><text fill="#000000" font-family="Arial" font-size="12" font-weight="bold" lengthAdjust="spacing" textLength="53.3613" x="119" y="652.3545">4. Ollama</text><text fill="#000000" font-family="Arial" font-size="12" font-weight="bold" lengthAdjust="spacing" textLength="67.3242" x="119" y="666.1533">LLM (Local)</text></g><!--entity s5--><g id="elem_s5"><rect fill="#EFF6FF" height="77.5977" rx="2.5" ry="2.5" style="stroke:#1D4ED8;stroke-width:0.5;" width="149.3555" x="83" y="798.0986"/><rect fill="#EFF6FF" height="10" style="stroke:#1D4ED8;stroke-width:0.5;" width="15" x="212.3555" y="803.0986"/><rect fill="#EFF6FF" height="2" style="stroke:#1D4ED8;stroke-width:0.5;" width="4" x="210.3555" y="805.0986"/><rect fill="#EFF6FF" height="2" style="stroke:#1D4ED8;stroke-width:0.5;" width="4" x="210.3555" y="809.0986"/><text fill="#000000" font-family="Arial" font-size="12" font-weight="bold" lengthAdjust="spacing" textLength="74.6836" x="108" y="839.3545">5. Diagnostic</text><text fill="#000000" font-family="Arial" font-size="12" font-weight="bold" lengthAdjust="spacing" textLength="89.3555" x="108" y="853.1533">JSON Structur&#233;</text></g><!--entity kb--><g id="elem_kb"><path d="M171.5,74.5986 C171.5,64.5986 244.5361,64.5986 244.5361,64.5986 C244.5361,64.5986 317.5723,64.5986 317.5723,74.5986 L317.5723,131.1963 C317.5723,141.1963 244.5361,141.1963 244.5361,141.1963 C244.5361,141.1963 171.5,141.1963 171.5,131.1963 L171.5,74.5986 " fill="#DBEAFE" style="stroke:#1D4ED8;stroke-width:0.5;"/><path d="M171.5,74.5986 C171.5,84.5986 244.5361,84.5986 244.5361,84.5986 C244.5361,84.5986 317.5723,84.5986 317.5723,74.5986 " fill="none" style="stroke:#1D4ED8;stroke-width:0.5;"/><text fill="#000000" font-family="Arial" font-size="12" lengthAdjust="spacing" textLength="106.0723" x="191.5" y="109.8545">knowledge_base.txt</text><text fill="#000000" font-family="Arial" font-size="12" lengthAdjust="spacing" textLength="104.7129" x="191.5" y="123.6533">(Fiches techniques)</text></g><g id="elem_GMN13"><path d="M87,937.0986 L87,1005.0454 A0,0 0 0 0 87,1005.0454 L228.2729,1005.0454 A0,0 0 0 0 228.2729,1005.0454 L228.2729,947.0986 L218.2729,937.0986 L161.5,937.0986 L157.5,876.2786 L153.5,937.0986 L87,937.0986 A0,0 0 0 0 87,937.0986 " fill="#FFFBEB" style="stroke:#F59E0B;stroke-width:0.5;"/><path d="M218.2729,937.0986 L218.2729,947.0986 L228.2729,947.0986 L218.2729,937.0986 " fill="#FFFBEB" style="stroke:#F59E0B;stroke-width:0.5;"/><text fill="#000000" font-family="Arial" font-size="11" lengthAdjust="spacing" textLength="81.3237" x="103" y="962.4165">aiPredictedIssue</text><text fill="#000000" font-family="Arial" font-size="11" lengthAdjust="spacing" textLength="92.9468" x="103" y="975.0654">aiConfidenceScore</text><text fill="#000000" font-family="Arial" font-size="11" lengthAdjust="spacing" textLength="100.2729" x="103" y="987.7144">aiRecommendations</text></g><!--link s1 to s2--><g id="link_s1_s2"><path d="M90.8,142.4786 C104.96,170.6386 121.4253,203.3578 135.5653,231.4878 " fill="none" id="s1-to-s2" style="stroke:#374151;stroke-width:1.5;"/><polygon fill="#374151" points="138.26,236.8486,137.7918,227.0109,136.0144,232.3813,130.644,230.6039,138.26,236.8486" style="stroke:#374151;stroke-width:1.5;"/><text fill="#1E3A8A" font-family="Arial" font-size="12" font-weight="bold" lengthAdjust="spacing" textLength="54.6738" x="133.5" y="194.3545">texte brut</text></g><!--link s2 to s3--><g id="link_s2_s3"><path d="M157.5,315.4286 C157.5,347.1786 157.5,386.0786 157.5,417.8186 " fill="none" id="s2-to-s3" style="stroke:#374151;stroke-width:1.5;"/><polygon fill="#374151" points="157.5,423.8186,161.5,414.8186,157.5,418.8186,153.5,414.8186,157.5,423.8186" style="stroke:#374151;stroke-width:1.5;"/><text fill="#1E3A8A" font-family="Arial" font-size="12" font-weight="bold" lengthAdjust="spacing" textLength="54.7031" x="170.1523" y="367.3545">passages</text><text fill="#1E3A8A" font-family="Arial" font-size="12" font-weight="bold" lengthAdjust="spacing" textLength="58.0078" x="168.5" y="381.1533">pertinents</text></g><!--link s3 to s4--><g id="link_s3_s4"><path d="M157.5,502.4286 C157.5,534.1786 157.5,573.0786 157.5,604.8186 " fill="none" id="s3-to-s4" style="stroke:#374151;stroke-width:1.5;"/><polygon fill="#374151" points="157.5,610.8186,161.5,601.8186,157.5,605.8186,153.5,601.8186,157.5,610.8186" style="stroke:#374151;stroke-width:1.5;"/><text fill="#1E3A8A" font-family="Arial" font-size="12" font-weight="bold" lengthAdjust="spacing" textLength="41.3262" x="168.5" y="554.3545">prompt</text><text fill="#1E3A8A" font-family="Arial" font-size="12" font-weight="bold" lengthAdjust="spacing" textLength="39.3457" x="169.4902" y="568.1533">enrichi</text></g><!--link s4 to s5--><g id="link_s4_s5"><path d="M157.5,689.4286 C157.5,721.1786 157.5,760.0786 157.5,791.8186 " fill="none" id="s4-to-s5" style="stroke:#374151;stroke-width:1.5;"/><polygon fill="#374151" points="157.5,797.8186,161.5,788.8186,157.5,792.8186,153.5,788.8186,157.5,797.8186" style="stroke:#374151;stroke-width:1.5;"/><text fill="#1E3A8A" font-family="Arial" font-size="12" font-weight="bold" lengthAdjust="spacing" textLength="46.6816" x="174.5029" y="741.3545">r&#233;ponse</text><text fill="#1E3A8A" font-family="Arial" font-size="12" font-weight="bold" lengthAdjust="spacing" textLength="58.6875" x="168.5" y="755.1533">structur&#233;e</text></g><!--link kb to s2--><g id="link_kb_s2"><path d="M232.79,141.7986 C225.97,161.7386 216.53,186.3286 205.5,207.0986 C200.14,217.1786 196.9471,222.5937 190.3571,232.0637 " fill="none" id="kb-to-s2" style="stroke:#374151;stroke-width:1.5;"/><polygon fill="#374151" points="186.93,236.9886,195.354,231.886,189.786,232.8845,188.7875,227.3165,186.93,236.9886" style="stroke:#374151;stroke-width:1.5;"/><text fill="#1E3A8A" font-family="Arial" font-size="12" font-weight="bold" lengthAdjust="spacing" textLength="92.7129" x="231.5" y="194.3545">recherche BM25</text></g><!--SRC=[VLDBRjim5Dpp50_f9bb4Y6ofJRie8CTIaS9n0iixgoWewTacH94gIUNJLG_HItJV6-GcFKafsNLKHOa0BVXc-6RUaDG54nLLj8IKPiL6oLha5v9B1M-YzYFwmCXnJMjk8YdCd9O8WMAK3-Cn-uxWZZhWXImhAL2OYLGvghs6E_N2wVaWhMydZAAt_zavK5j1yy0HKidp5ndFB0LAoRjzz_4xp_NTFhZSigmGg3MuZjy7NsdwegC3-c_-S1oS1nt2b1gQKeslftHWzKEQJi8W2WUOmsRdqZplOGzz4axwhAwVo7yVdlKPJmhT69VCy0xa3K93ILKqpvdOW7j6Y6cOSCCgv4mWB89FyEV7JuXHtR8CxRs3AQCR8RLX6Lm6XAnS1vPuRnfC9o9-A2lp-Bj4_GMe1ksIrSY1oTN8JyG2ZM9uI_aE6f7LsB4NHvXcUo92eLYsPJjmJ5QU0zUSqv8cOZQxWkEPp2W_sS4UMVbEnqeYFiVNSuYDgZDJgyTVEvfFylsXm54Xv1t7V8DVcxLZxaqYZYEhY1eCPbl1ljMeJuwQZKLAY7RXzFIZjGaVe7K8gQeDiUksFBRbYcfDDytO5Ih3ckklYKLQWjSGb7qMLWTten5RR37VOjQaVJ7Q3guFhf4KwPEgigvGsR_DZn0X6nFI65c2NE-wK7QZC6UPmVnIwzfseyn6kcOvYWpZJAgsjC1CbYKA6mUpekGl]--></g></svg>