<svg xmlns="http://www.w3.org/2000/svg" xmlns:xlink="http://www.w3.org/1999/xlink" contentStyleType="text/css" height="674px" preserveAspectRatio="none" style="width:889px;height:674px;background:#FFFFFF;" version="1.1" viewBox="0 0 889 674" width="889px" zoomAndPan="magnify"><title>SC3 &#8212; Cr&#233;ation d'un Garage (US06) &#8212; Sprint 2</title><defs/><g><text fill="#000000" font-family="Arial" font-size="14" font-weight="bold" lengthAdjust="spacing" textLength="312.9424" x="290.7974" y="34.1318">SC3 &#8212; Cr&#233;ation d'un Garage (US06) &#8212; Sprint 2</text><rect fill="#FFFFFF" height="384.1895" style="stroke:#93C5FD;stroke-width:1;" width="10" x="417.1113" y="181.6963"/><rect fill="#FFFFFF" height="304.5918" style="stroke:#93C5FD;stroke-width:1;" width="10" x="643.4902" y="221.4951"/><rect fill="#FFFFFF" height="39.7988" style="stroke:#93C5FD;stroke-width:1;" width="10" x="849.1855" y="314.0928"/><rect fill="#FFFFFF" height="39.7988" style="stroke:#93C5FD;stroke-width:1;" width="10" x="849.1855" y="446.4893"/><line style="stroke:#93C5FD;stroke-width:0.5;stroke-dasharray:5.0,5.0;" x1="60" x2="60" y1="139.8975" y2="583.8857"/><line style="stroke:#93C5FD;stroke-width:0.5;stroke-dasharray:5.0,5.0;" x1="421.4316" x2="421.4316" y1="139.8975" y2="583.8857"/><line style="stroke:#93C5FD;stroke-width:0.5;stroke-dasharray:5.0,5.0;" x1="648.4658" x2="648.4658" y1="139.8975" y2="583.8857"/><line style="stroke:#93C5FD;stroke-width:0.5;stroke-dasharray:5.0,5.0;" x1="853.834" x2="853.834" y1="139.8975" y2="583.8857"/><text fill="#000000" font-family="Arial" font-size="12" lengthAdjust="spacing" textLength="92.0391" x="11" y="131.3545">:AdminEntreprise</text><ellipse cx="60.0195" cy="62.5986" fill="#DBEAFE" rx="8" ry="8" style="stroke:#1D4ED8;stroke-width:0.5;"/><path d="M60.0195,70.5986 L60.0195,97.5986 M47.0195,78.5986 L73.0195,78.5986 M60.0195,97.5986 L47.0195,112.5986 M60.0195,97.5986 L73.0195,112.5986 " fill="none" style="stroke:#1D4ED8;stroke-width:0.5;"/><text fill="#000000" font-family="Arial" font-size="12" lengthAdjust="spacing" textLength="92.0391" x="11" y="600.1416">:AdminEntreprise</text><ellipse cx="60.0195" cy="617.1846" fill="#DBEAFE" rx="8" ry="8" style="stroke:#1D4ED8;stroke-width:0.5;"/><path d="M60.0195,625.1846 L60.0195,652.1846 M47.0195,633.1846 L73.0195,633.1846 M60.0195,652.1846 L47.0195,667.1846 M60.0195,652.1846 L73.0195,667.1846 " fill="none" style="stroke:#1D4ED8;stroke-width:0.5;"/><rect fill="#2563EB" height="39.7988" rx="2.5" ry="2.5" style="stroke:#1D4ED8;stroke-width:0.5;" width="135.3594" x="354.4316" y="99.0986"/><text fill="#FFFFFF" font-family="Arial" font-size="12" font-weight="bold" lengthAdjust="spacing" textLength="109.3594" x="367.4316" y="123.3545">:GaragesController</text><rect fill="#2563EB" height="39.7988" rx="2.5" ry="2.5" style="stroke:#1D4ED8;stroke-width:0.5;" width="135.3594" x="354.4316" y="582.8857"/><text fill="#FFFFFF" font-family="Arial" font-size="12" font-weight="bold" lengthAdjust="spacing" textLength="109.3594" x="367.4316" y="607.1416">:GaragesController</text><rect fill="#2563EB" height="39.7988" rx="2.5" ry="2.5" style="stroke:#1D4ED8;stroke-width:0.5;" width="180.0488" x="558.4658" y="99.0986"/><text fill="#FFFFFF" font-family="Arial" font-size="12" font-weight="bold" lengthAdjust="spacing" textLength="154.0488" x="571.4658" y="123.3545">:CreateGarageCmdHandler</text><rect fill="#2563EB" height="39.7988" rx="2.5" ry="2.5" style="stroke:#1D4ED8;stroke-width:0.5;" width="180.0488" x="558.4658" y="582.8857"/><text fill="#FFFFFF" font-family="Arial" font-size="12" font-weight="bold" lengthAdjust="spacing" textLength="154.0488" x="571.4658" y="607.1416">:CreateGarageCmdHandler</text><text fill="#000000" font-family="Arial" font-size="12" lengthAdjust="spacing" textLength="54.7031" x="823.834" y="131.3545">:Database</text><path d="M836.1855,78.0986 C836.1855,68.0986 854.1855,68.0986 854.1855,68.0986 C854.1855,68.0986 872.1855,68.0986 872.1855,78.0986 L872.1855,104.0986 C872.1855,114.0986 854.1855,114.0986 854.1855,114.0986 C854.1855,114.0986 836.1855,114.0986 836.1855,104.0986 L836.1855,78.0986 " fill="#E2E2F0" style="stroke:#181818;stroke-width:1.5;"/><path d="M836.1855,78.0986 C836.1855,88.0986 854.1855,88.0986 854.1855,88.0986 C854.1855,88.0986 872.1855,88.0986 872.1855,78.0986 " fill="none" style="stroke:#181818;stroke-width:1.5;"/><text fill="#000000" font-family="Arial" font-size="12" lengthAdjust="spacing" textLength="54.7031" x="823.834" y="600.1416">:Database</text><path d="M836.1855,618.6846 C836.1855,608.6846 854.1855,608.6846 854.1855,608.6846 C854.1855,608.6846 872.1855,608.6846 872.1855,618.6846 L872.1855,644.6846 C872.1855,654.6846 854.1855,654.6846 854.1855,654.6846 C854.1855,654.6846 836.1855,654.6846 836.1855,644.6846 L836.1855,618.6846 " fill="#E2E2F0" style="stroke:#181818;stroke-width:1.5;"/><path d="M836.1855,618.6846 C836.1855,628.6846 854.1855,628.6846 854.1855,628.6846 C854.1855,628.6846 872.1855,628.6846 872.1855,618.6846 " fill="none" style="stroke:#181818;stroke-width:1.5;"/><rect fill="#FFFFFF" height="384.1895" style="stroke:#93C5FD;stroke-width:1;" width="10" x="417.1113" y="181.6963"/><rect fill="#FFFFFF" height="304.5918" style="stroke:#93C5FD;stroke-width:1;" width="10" x="643.4902" y="221.4951"/><rect fill="#FFFFFF" height="39.7988" style="stroke:#93C5FD;stroke-width:1;" width="10" x="849.1855" y="314.0928"/><rect fill="#FFFFFF" height="39.7988" style="stroke:#93C5FD;stroke-width:1;" width="10" x="849.1855" y="446.4893"/><polygon fill="#374151" points="405.1113,177.6963,415.1113,181.6963,405.1113,185.6963,409.1113,181.6963" style="stroke:#374151;stroke-width:1;"/><line style="stroke:#374151;stroke-width:1.5;" x1="60.0195" x2="411.1113" y1="181.6963" y2="181.6963"/><text fill="#1E3A8A" font-family="Arial" font-size="12" font-weight="bold" lengthAdjust="spacing" textLength="326.0918" x="73.0195" y="171.1533">POST /api/garages {name, address, city, phone, tenantId}</text><polygon fill="#374151" points="631.4902,217.4951,641.4902,221.4951,631.4902,225.4951,635.4902,221.4951" style="stroke:#374151;stroke-width:1;"/><line style="stroke:#374151;stroke-width:1.5;" x1="427.1113" x2="637.4902" y1="221.4951" y2="221.4951"/><text fill="#1E3A8A" font-family="Arial" font-size="12" font-weight="bold" lengthAdjust="spacing" textLength="185.3789" x="440.1113" y="210.9521">Handle(CreateGarageCommand)</text><line style="stroke:#374151;stroke-width:1.5;" x1="653.4902" x2="695.4902" y1="261.2939" y2="261.2939"/><line style="stroke:#374151;stroke-width:1.5;" x1="695.4902" x2="695.4902" y1="261.2939" y2="274.2939"/><line style="stroke:#374151;stroke-width:1.5;" x1="654.4902" x2="695.4902" y1="274.2939" y2="274.2939"/><polygon fill="#374151" points="664.4902,270.2939,654.4902,274.2939,664.4902,278.2939,660.4902,274.2939" style="stroke:#374151;stroke-width:1;"/><text fill="#1E3A8A" font-family="Arial" font-size="12" font-weight="bold" lengthAdjust="spacing" textLength="136.0371" x="666.4902" y="250.751">ExtractTenantId(claims)</text><polygon fill="#374151" points="837.1855,310.0928,847.1855,314.0928,837.1855,318.0928,841.1855,314.0928" style="stroke:#374151;stroke-width:1;"/><line style="stroke:#374151;stroke-width:1.5;" x1="653.4902" x2="843.1855" y1="314.0928" y2="314.0928"/><text fill="#1E3A8A" font-family="Arial" font-size="12" font-weight="bold" lengthAdjust="spacing" textLength="129.3457" x="666.4902" y="303.5498">TenantExists(tenantId)</text><polygon fill="#374151" points="664.4902,349.8916,654.4902,353.8916,664.4902,357.8916,660.4902,353.8916" style="stroke:#374151;stroke-width:1;"/><line style="stroke:#374151;stroke-width:1.5;stroke-dasharray:2.0,2.0;" x1="658.4902" x2="853.1855" y1="353.8916" y2="353.8916"/><text fill="#1E3A8A" font-family="Arial" font-size="12" font-weight="bold" lengthAdjust="spacing" textLength="25.3242" x="676.4902" y="343.3486">bool</text><line style="stroke:#374151;stroke-width:1.5;" x1="653.4902" x2="695.4902" y1="393.6904" y2="393.6904"/><line style="stroke:#374151;stroke-width:1.5;" x1="695.4902" x2="695.4902" y1="393.6904" y2="406.6904"/><line style="stroke:#374151;stroke-width:1.5;" x1="654.4902" x2="695.4902" y1="406.6904" y2="406.6904"/><polygon fill="#374151" points="664.4902,402.6904,654.4902,406.6904,664.4902,410.6904,660.4902,406.6904" style="stroke:#374151;stroke-width:1;"/><text fill="#1E3A8A" font-family="Arial" font-size="12" font-weight="bold" lengthAdjust="spacing" textLength="87.3691" x="666.4902" y="383.1475">new Garage{...}</text><polygon fill="#374151" points="837.1855,442.4893,847.1855,446.4893,837.1855,450.4893,841.1855,446.4893" style="stroke:#374151;stroke-width:1;"/><line style="stroke:#374151;stroke-width:1.5;" x1="653.4902" x2="843.1855" y1="446.4893" y2="446.4893"/><text fill="#1E3A8A" font-family="Arial" font-size="12" font-weight="bold" lengthAdjust="spacing" textLength="164.6953" x="666.4902" y="435.9463">Add(garage); SaveChanges()</text><polygon fill="#374151" points="664.4902,482.2881,654.4902,486.2881,664.4902,490.2881,660.4902,486.2881" style="stroke:#374151;stroke-width:1;"/><line style="stroke:#374151;stroke-width:1.5;stroke-dasharray:2.0,2.0;" x1="658.4902" x2="853.1855" y1="486.2881" y2="486.2881"/><text fill="#1E3A8A" font-family="Arial" font-size="12" font-weight="bold" lengthAdjust="spacing" textLength="50.0156" x="676.4902" y="475.7451">garageId</text><polygon fill="#374151" points="438.1113,522.0869,428.1113,526.0869,438.1113,530.0869,434.1113,526.0869" style="stroke:#374151;stroke-width:1;"/><line style="stroke:#374151;stroke-width:1.5;stroke-dasharray:2.0,2.0;" x1="432.1113" x2="647.4902" y1="526.0869" y2="526.0869"/><text fill="#1E3A8A" font-family="Arial" font-size="12" font-weight="bold" lengthAdjust="spacing" textLength="98.707" x="450.1113" y="515.5439">GarageResponse</text><polygon fill="#374151" points="71.0195,561.8857,61.0195,565.8857,71.0195,569.8857,67.0195,565.8857" style="stroke:#374151;stroke-width:1;"/><line style="stroke:#374151;stroke-width:1.5;stroke-dasharray:2.0,2.0;" x1="65.0195" x2="421.1113" y1="565.8857" y2="565.8857"/><text fill="#1E3A8A" font-family="Arial" font-size="12" font-weight="bold" lengthAdjust="spacing" textLength="156.7383" x="83.0195" y="555.3428">201 Created {id, name, city}</text><!--SRC=[ZPHjQjj048R_wnH3-gCoE8w_cxXGa6Mv2PGqLEu1Ljg9lLZQLNVN-QWnz12zHC_Hc_GaNMdz8HlPZa0WTfwPUUUTHMhEU4OaII4YyNmgnO9JNoH2mhjnyJXgIr1y98j4ZmNNzoH5y2GZINKyP3yHMkrICCGV2-GnFX2fMSmomlLGI8fotQqrwWQZwpC9XnBRlNud69vEokKSc-W87khN124I2Nq3UtHIBzP2lcr6YnvEDne6tZYemgKKpskeyw7RwhMEGPCPY-SSbO9MetSCEZF65ZdbofRQZ1fql6kl0lp27itBSS-OcuxV6u_EqiUckHSQXnNNTxXtDmggt7NSkmcQXyJEZBAf4wQJKgXR6Qho9oEKCZw5lkFe78JGxy2_Nx_1bt__4Cq41_f-mU6peQS8xlUmsQyLG9X9nZMq7OVajmCk1XvD6G-ubcX22Y-0A20qTRBTZJIKhQHyeqYA945PSB6MoG7eIoGQBUwdz9Pmkg5dvjkXH9E8A3JeQFrP16ba9D4KBZyLLM403r_32LoHZ5rDRNDOSlE3g1jrL9frrI5c-hKEsKnmSwgH6mLtT9LFnfwC22klg6QgvjrDLIl8tPCfqjISrdQ9XT8YOPSOl6XfWCcwZHidXAMgjiLeP20R3LwOqihTA2eLDbCQxd9NDH8YSIYMWOE-79_NUrms6etLVZ-FKjUwK_i88Nb2tuIDLUwfdZRXZbRstVblctv3bGcki0mNzbXV3PvlRG3jPWkigHIMZDR1xYfVqQgSM-paFm00]--></g></svg>