<svg xmlns="http://www.w3.org/2000/svg" xmlns:xlink="http://www.w3.org/1999/xlink" contentStyleType="text/css" height="890px" preserveAspectRatio="none" style="width:1453px;height:890px;background:#FFFFFF;" version="1.1" viewBox="0 0 1453 890" width="1453px" zoomAndPan="magnify"><title>SC5 &#8212; Soumission de Sympt&#244;mes et Diagnostic IA (US10+US11) &#8212; Sprint 3</title><defs/><g><text fill="#000000" font-family="Arial" font-size="14" font-weight="bold" lengthAdjust="spacing" textLength="506.8438" x="472.5498" y="34.1318">SC5 &#8212; Soumission de Sympt&#244;mes et Diagnostic IA (US10+US11) &#8212; Sprint 3</text><rect fill="#FFFFFF" height="530.3848" style="stroke:#93C5FD;stroke-width:1;" width="10" x="417.4307" y="181.6963"/><rect fill="#FFFFFF" height="450.7871" style="stroke:#93C5FD;stroke-width:1;" width="10" x="695.7939" y="221.4951"/><rect fill="#FFFFFF" height="39.7988" style="stroke:#93C5FD;stroke-width:1;" width="10" x="1027.8896" y="261.2939"/><rect fill="#FFFFFF" height="39.7988" style="stroke:#93C5FD;stroke-width:1;" width="10" x="1142.5947" y="393.6904"/><rect fill="#FFFFFF" height="39.7988" style="stroke:#93C5FD;stroke-width:1;" width="10" x="1142.5947" y="473.2881"/><rect fill="#FFFFFF" height="39.7988" style="stroke:#93C5FD;stroke-width:1;" width="10" x="1142.5947" y="592.6846"/><rect fill="#FFFFFF" height="79.5977" style="stroke:#93C5FD;stroke-width:1;" width="10" x="1373.5967" y="552.8857"/><line style="stroke:#93C5FD;stroke-width:0.5;stroke-dasharray:5.0,5.0;" x1="31" x2="31" y1="139.8975" y2="800.0278"/><line style="stroke:#93C5FD;stroke-width:0.5;stroke-dasharray:5.0,5.0;" x1="421.7588" x2="421.7588" y1="139.8975" y2="800.0278"/><line style="stroke:#93C5FD;stroke-width:0.5;stroke-dasharray:5.0,5.0;" x1="700.1104" x2="700.1104" y1="139.8975" y2="800.0278"/><line style="stroke:#93C5FD;stroke-width:0.5;stroke-dasharray:5.0,5.0;" x1="1032.5361" x2="1032.5361" y1="139.8975" y2="800.0278"/><line style="stroke:#93C5FD;stroke-width:0.5;stroke-dasharray:5.0,5.0;" x1="1147.2432" x2="1147.2432" y1="139.8975" y2="800.0278"/><line style="stroke:#93C5FD;stroke-width:0.5;stroke-dasharray:5.0,5.0;" x1="1378.25" x2="1378.25" y1="139.8975" y2="800.0278"/><text fill="#000000" font-family="Arial" font-size="12" lengthAdjust="spacing" textLength="34.0137" x="11" y="131.3545">:Client</text><ellipse cx="31.0068" cy="62.5986" fill="#DBEAFE" rx="8" ry="8" style="stroke:#1D4ED8;stroke-width:0.5;"/><path d="M31.0068,70.5986 L31.0068,97.5986 M18.0068,78.5986 L44.0068,78.5986 M31.0068,97.5986 L18.0068,112.5986 M31.0068,97.5986 L44.0068,112.5986 " fill="none" style="stroke:#1D4ED8;stroke-width:0.5;"/><text fill="#000000" font-family="Arial" font-size="12" lengthAdjust="spacing" textLength="34.0137" x="11" y="816.2837">:Client</text><ellipse cx="31.0068" cy="833.3267" fill="#DBEAFE" rx="8" ry="8" style="stroke:#1D4ED8;stroke-width:0.5;"/><path d="M31.0068,841.3267 L31.0068,868.3267 M18.0068,849.3267 L44.0068,849.3267 M31.0068,868.3267 L18.0068,883.3267 M31.0068,868.3267 L44.0068,883.3267 " fill="none" style="stroke:#1D4ED8;stroke-width:0.5;"/><rect fill="#2563EB" height="39.7988" rx="2.5" ry="2.5" style="stroke:#1D4ED8;stroke-width:0.5;" width="187.3438" x="328.7588" y="99.0986"/><text fill="#FFFFFF" font-family="Arial" font-size="12" font-weight="bold" lengthAdjust="spacing" textLength="161.3438" x="341.7588" y="123.3545">:SymptomReportsController</text><rect fill="#2563EB" height="39.7988" rx="2.5" ry="2.5" style="stroke:#1D4ED8;stroke-width:0.5;" width="187.3438" x="328.7588" y="799.0278"/><text fill="#FFFFFF" font-family="Arial" font-size="12" font-weight="bold" lengthAdjust="spacing" textLength="161.3438" x="341.7588" y="823.2837">:SymptomReportsController</text><rect fill="#2563EB" height="39.7988" rx="2.5" ry="2.5" style="stroke:#1D4ED8;stroke-width:0.5;" width="205.3672" x="598.1104" y="99.0986"/><text fill="#FFFFFF" font-family="Arial" font-size="12" font-weight="bold" lengthAdjust="spacing" textLength="179.3672" x="611.1104" y="123.3545">:CreateSymptomReportHandler</text><rect fill="#2563EB" height="39.7988" rx="2.5" ry="2.5" style="stroke:#1D4ED8;stroke-width:0.5;" width="205.3672" x="598.1104" y="799.0278"/><text fill="#FFFFFF" font-family="Arial" font-size="12" font-weight="bold" lengthAdjust="spacing" textLength="179.3672" x="611.1104" y="823.2837">:CreateSymptomReportHandler</text><rect fill="#2563EB" height="53.5977" rx="2.5" ry="2.5" style="stroke:#1D4ED8;stroke-width:0.5;" width="136.707" x="964.5361" y="85.2998"/><text fill="#FFFFFF" font-family="Arial" font-size="12" font-weight="bold" lengthAdjust="spacing" textLength="110.707" x="977.5361" y="109.5557">:IAService (FastAPI</text><text fill="#FFFFFF" font-family="Arial" font-size="12" font-weight="bold" lengthAdjust="spacing" textLength="54.3574" x="1005.7109" y="123.3545">+ Ollama)</text><rect fill="#2563EB" height="53.5977" rx="2.5" ry="2.5" style="stroke:#1D4ED8;stroke-width:0.5;" width="136.707" x="964.5361" y="799.0278"/><text fill="#FFFFFF" font-family="Arial" font-size="12" font-weight="bold" lengthAdjust="spacing" textLength="110.707" x="977.5361" y="823.2837">:IAService (FastAPI</text><text fill="#FFFFFF" font-family="Arial" font-size="12" font-weight="bold" lengthAdjust="spacing" textLength="54.3574" x="1005.7109" y="837.0825">+ Ollama)</text><text fill="#000000" font-family="Arial" font-size="12" lengthAdjust="spacing" textLength="54.7031" x="1117.2432" y="131.3545">:Database</text><path d="M1129.5947,78.0986 C1129.5947,68.0986 1147.5947,68.0986 1147.5947,68.0986 C1147.5947,68.0986 1165.5947,68.0986 1165.5947,78.0986 L1165.5947,104.0986 C1165.5947,114.0986 1147.5947,114.0986 1147.5947,114.0986 C1147.5947,114.0986 1129.5947,114.0986 1129.5947,104.0986 L1129.5947,78.0986 " fill="#E2E2F0" style="stroke:#181818;stroke-width:1.5;"/><path d="M1129.5947,78.0986 C1129.5947,88.0986 1147.5947,88.0986 1147.5947,88.0986 C1147.5947,88.0986 1165.5947,88.0986 1165.5947,78.0986 " fill="none" style="stroke:#181818;stroke-width:1.5;"/><text fill="#000000" font-family="Arial" font-size="12" lengthAdjust="spacing" textLength="54.7031" x="1117.2432" y="816.2837">:Database</text><path d="M1129.5947,834.8267 C1129.5947,824.8267 1147.5947,824.8267 1147.5947,824.8267 C1147.5947,824.8267 1165.5947,824.8267 1165.5947,834.8267 L1165.5947,860.8267 C1165.5947,870.8267 1147.5947,870.8267 1147.5947,870.8267 C1147.5947,870.8267 1129.5947,870.8267 1129.5947,860.8267 L1129.5947,834.8267 " fill="#E2E2F0" style="stroke:#181818;stroke-width:1.5;"/><path d="M1129.5947,834.8267 C1129.5947,844.8267 1147.5947,844.8267 1147.5947,844.8267 C1147.5947,844.8267 1165.5947,844.8267 1165.5947,834.8267 " fill="none" style="stroke:#181818;stroke-width:1.5;"/><rect fill="#2563EB" height="39.7988" rx="2.5" ry="2.5" style="stroke:#1D4ED8;stroke-width:0.5;" width="138.6934" x="1309.25" y="99.0986"/><text fill="#FFFFFF" font-family="Arial" font-size="12" font-weight="bold" lengthAdjust="spacing" textLength="112.6934" x="1322.25" y="123.3545">:NotificationService</text><rect fill="#2563EB" height="39.7988" rx="2.5" ry="2.5" style="stroke:#1D4ED8;stroke-width:0.5;" width="138.6934" x="1309.25" y="799.0278"/><text fill="#FFFFFF" font-family="Arial" font-size="12" font-weight="bold" lengthAdjust="spacing" textLength="112.6934" x="1322.25" y="823.2837">:NotificationService</text><rect fill="#FFFFFF" height="530.3848" style="stroke:#93C5FD;stroke-width:1;" width="10" x="417.4307" y="181.6963"/><rect fill="#FFFFFF" height="450.7871" style="stroke:#93C5FD;stroke-width:1;" width="10" x="695.7939" y="221.4951"/><rect fill="#FFFFFF" height="39.7988" style="stroke:#93C5FD;stroke-width:1;" width="10" x="1027.8896" y="261.2939"/><rect fill="#FFFFFF" height="39.7988" style="stroke:#93C5FD;stroke-width:1;" width="10" x="1142.5947" y="393.6904"/><rect fill="#FFFFFF" height="39.7988" style="stroke:#93C5FD;stroke-width:1;" width="10" x="1142.5947" y="473.2881"/><rect fill="#FFFFFF" height="39.7988" style="stroke:#93C5FD;stroke-width:1;" width="10" x="1142.5947" y="592.6846"/><rect fill="#FFFFFF" height="79.5977" style="stroke:#93C5FD;stroke-width:1;" width="10" x="1373.5967" y="552.8857"/><polygon fill="#374151" points="405.4307,177.6963,415.4307,181.6963,405.4307,185.6963,409.4307,181.6963" style="stroke:#374151;stroke-width:1;"/><line style="stroke:#374151;stroke-width:1.5;" x1="31.0068" x2="411.4307" y1="181.6963" y2="181.6963"/><text fill="#1E3A8A" font-family="Arial" font-size="12" font-weight="bold" lengthAdjust="spacing" textLength="355.4238" x="44.0068" y="171.1533">POST /api/symptom-reports {vehicleId, symptomsDescription}</text><polygon fill="#374151" points="683.7939,217.4951,693.7939,221.4951,683.7939,225.4951,687.7939,221.4951" style="stroke:#374151;stroke-width:1;"/><line style="stroke:#374151;stroke-width:1.5;" x1="427.4307" x2="689.7939" y1="221.4951" y2="221.4951"/><text fill="#1E3A8A" font-family="Arial" font-size="12" font-weight="bold" lengthAdjust="spacing" textLength="237.3633" x="440.4307" y="210.9521">Handle(CreateSymptomReportCommand)</text><polygon fill="#374151" points="1015.8896,257.2939,1025.8896,261.2939,1015.8896,265.2939,1019.8896,261.2939" style="stroke:#374151;stroke-width:1;"/><line style="stroke:#374151;stroke-width:1.5;" x1="705.7939" x2="1021.8896" y1="261.2939" y2="261.2939"/><text fill="#1E3A8A" font-family="Arial" font-size="12" font-weight="bold" lengthAdjust="spacing" textLength="259.3887" x="718.7939" y="250.751">POST /diagnose {text: symptomsDescription}</text><polygon fill="#374151" points="716.7939,297.0928,706.7939,301.0928,716.7939,305.0928,712.7939,301.0928" style="stroke:#374151;stroke-width:1;"/><line style="stroke:#374151;stroke-width:1.5;stroke-dasharray:2.0,2.0;" x1="710.7939" x2="1031.8896" y1="301.0928" y2="301.0928"/><text fill="#1E3A8A" font-family="Arial" font-size="12" font-weight="bold" lengthAdjust="spacing" textLength="286.0957" x="728.7939" y="290.5498">DiagnosisResult {issue, score, recommendations}</text><line style="stroke:#374151;stroke-width:1.5;" x1="705.7939" x2="747.7939" y1="340.8916" y2="340.8916"/><line style="stroke:#374151;stroke-width:1.5;" x1="747.7939" x2="747.7939" y1="340.8916" y2="353.8916"/><line style="stroke:#374151;stroke-width:1.5;" x1="706.7939" x2="747.7939" y1="353.8916" y2="353.8916"/><polygon fill="#374151" points="716.7939,349.8916,706.7939,353.8916,716.7939,357.8916,712.7939,353.8916" style="stroke:#374151;stroke-width:1;"/><text fill="#1E3A8A" font-family="Arial" font-size="12" font-weight="bold" lengthAdjust="spacing" textLength="156.6914" x="718.7939" y="330.3486">MapDiagnosisFields(result)</text><polygon fill="#374151" points="1130.5947,389.6904,1140.5947,393.6904,1130.5947,397.6904,1134.5947,393.6904" style="stroke:#374151;stroke-width:1;"/><line style="stroke:#374151;stroke-width:1.5;" x1="705.7939" x2="1136.5947" y1="393.6904" y2="393.6904"/><text fill="#1E3A8A" font-family="Arial" font-size="12" font-weight="bold" lengthAdjust="spacing" textLength="217.3535" x="718.7939" y="383.1475">Add(symptomReport); SaveChanges()</text><polygon fill="#374151" points="716.7939,429.4893,706.7939,433.4893,716.7939,437.4893,712.7939,433.4893" style="stroke:#374151;stroke-width:1;"/><line style="stroke:#374151;stroke-width:1.5;stroke-dasharray:2.0,2.0;" x1="710.7939" x2="1146.5947" y1="433.4893" y2="433.4893"/><text fill="#1E3A8A" font-family="Arial" font-size="12" font-weight="bold" lengthAdjust="spacing" textLength="45.334" x="728.7939" y="422.9463">reportId</text><polygon fill="#374151" points="1130.5947,469.2881,1140.5947,473.2881,1130.5947,477.2881,1134.5947,473.2881" style="stroke:#374151;stroke-width:1;"/><line style="stroke:#374151;stroke-width:1.5;" x1="705.7939" x2="1136.5947" y1="473.2881" y2="473.2881"/><text fill="#1E3A8A" font-family="Arial" font-size="12" font-weight="bold" lengthAdjust="spacing" textLength="159.3633" x="718.7939" y="462.7451">GetChefOfGarage(garageId)</text><polygon fill="#374151" points="716.7939,509.0869,706.7939,513.0869,716.7939,517.0869,712.7939,513.0869" style="stroke:#374151;stroke-width:1;"/><line style="stroke:#374151;stroke-width:1.5;stroke-dasharray:2.0,2.0;" x1="710.7939" x2="1146.5947" y1="513.0869" y2="513.0869"/><text fill="#1E3A8A" font-family="Arial" font-size="12" font-weight="bold" lengthAdjust="spacing" textLength="35.3379" x="728.7939" y="502.5439">chefId</text><polygon fill="#374151" points="1361.5967,548.8857,1371.5967,552.8857,1361.5967,556.8857,1365.5967,552.8857" style="stroke:#374151;stroke-width:1;"/><line style="stroke:#374151;stroke-width:1.5;" x1="705.7939" x2="1367.5967" y1="552.8857" y2="552.8857"/><text fill="#1E3A8A" font-family="Arial" font-size="12" font-weight="bold" lengthAdjust="spacing" textLength="198.6797" x="718.7939" y="542.3428">CreateNotification(chefId, reportId)</text><polygon fill="#374151" points="1163.5947,588.6846,1153.5947,592.6846,1163.5947,596.6846,1159.5947,592.6846" style="stroke:#374151;stroke-width:1;"/><line style="stroke:#374151;stroke-width:1.5;" x1="1157.5947" x2="1372.5967" y1="592.6846" y2="592.6846"/><text fill="#1E3A8A" font-family="Arial" font-size="12" font-weight="bold" lengthAdjust="spacing" textLength="190.002" x="1175.5947" y="582.1416">Add(notification); SaveChanges()</text><polygon fill="#374151" points="1366.5967,628.4834,1376.5967,632.4834,1366.5967,636.4834,1370.5967,632.4834" style="stroke:#374151;stroke-width:1;"/><line style="stroke:#374151;stroke-width:1.5;stroke-dasharray:2.0,2.0;" x1="1147.5947" x2="1372.5967" y1="632.4834" y2="632.4834"/><text fill="#1E3A8A" font-family="Arial" font-size="12" font-weight="bold" lengthAdjust="spacing" textLength="18" x="1160.5947" y="621.9404">OK</text><polygon fill="#374151" points="438.4307,668.2822,428.4307,672.2822,438.4307,676.2822,434.4307,672.2822" style="stroke:#374151;stroke-width:1;"/><line style="stroke:#374151;stroke-width:1.5;stroke-dasharray:2.0,2.0;" x1="432.4307" x2="699.7939" y1="672.2822" y2="672.2822"/><text fill="#1E3A8A" font-family="Arial" font-size="12" font-weight="bold" lengthAdjust="spacing" textLength="150.6914" x="450.4307" y="661.7393">SymptomReportResponse</text><polygon fill="#374151" points="42.0068,708.0811,32.0068,712.0811,42.0068,716.0811,38.0068,712.0811" style="stroke:#374151;stroke-width:1;"/><line style="stroke:#374151;stroke-width:1.5;stroke-dasharray:2.0,2.0;" x1="36.0068" x2="421.4307" y1="712.0811" y2="712.0811"/><text fill="#1E3A8A" font-family="Arial" font-size="12" font-weight="bold" lengthAdjust="spacing" textLength="343.459" x="54.0068" y="701.5381">201 Created {reportId, aiPredictedIssue, aiConfidenceScore}</text><path d="M970,725.0811 L970,784.0811 L1095,784.0811 L1095,735.0811 L1085,725.0811 L970,725.0811 " fill="#FFFBEB" style="stroke:#F59E0B;stroke-width:0.5;"/><path d="M1085,725.0811 L1085,735.0811 L1095,735.0811 L1085,725.0811 " fill="#FFFBEB" style="stroke:#F59E0B;stroke-width:0.5;"/><text fill="#000000" font-family="Arial" font-size="11" lengthAdjust="spacing" textLength="91.6953" x="982" y="746.3989">Architecture RAG :</text><text fill="#000000" font-family="Arial" font-size="11" lengthAdjust="spacing" textLength="80.3945" x="982" y="759.0479">BM25 retrieval +</text><text fill="#000000" font-family="Arial" font-size="11" lengthAdjust="spacing" textLength="92.3022" x="982" y="771.6968">Ollama LLM (local)</text><!--SRC=[ZLJjJjim5FsVfxXYVr81WrBAe9CcfMdBgl4bmlxnnurlYuLZPxRRZI6aFSGUPM-mDzcJx2OERLgrGAKsQUuvr-TS7yVU2vKpmp8OiVH-OlHKyLXBRU3TeFm4TexWE6PJwGPQkGkM8KH6CBc-deYV2Cs3MZ71RrDKALunuqGgSgPSLnkEfbgjsJlizuvV8QnAF6WVjVhTbqc5d4sEDi0Jzo0HHbhoDs0tEerIfytRF7heghjUjnyD-klWnkZl5QZruR3PRcu2tTo9z5wXjT1ytzu4UiN67FBILEQePwlzLdGShG6UYJ5z5IuDvgGLjmUzLz6Rt5neXzqryUqkPQD4rLSTj4_w-wk8nJ3gGxqHJjPAXsjBw-QJCyw5ci1H4BW224dSXd-_VaEYfvcmLcX5vmQIXontV_zaQ04Tz0IRA6qfPZ2C8FoQDFUtwQVPyCpS2EMW5GIiY0riTM8fKBajO1PIAO9yaL0gbgrrTesvDix69DHeAT5uk3Do1HyRP0wNM9-Pui-CExfVOGoZ1CrCf0ZXW5aNNGrlrJPSIiaorYX9WWMSEJPY5WdVgsxB4X-jTADD46EHCaUZgVgMG5Ky3m8o2BkVIk7GWQlBv0RsM2xsh1UyQxnFU9mXfKNYaEz0LRCzjAaHUT7vgHYUc95JFuEo7_Kjx55VxpXSCujOPnaL6mj-EP6W9583mUQokDz6X4U7Frpd5Haq8-BkBZHKAH3s6YszLk6HuZ95SfDgGnU3AKb1nSj9sQU0OxtNN53LxPpbyuO3WPBRq9Hz6tCa7n4kuZoqTSEDZv2m6SQ4cg0DQyPfwuXIK-ndF-HrAGHQNk0KNNo7uylnAHsG2OQJyZBaBpLEYR2vRPaCGldTgkSdzCITkRBQ8ZvFdbithshyjtX_Nltooug-shygkrxm8hrBmQ9TpcaViSuhe-MZMR0e-Xqus6zMJZayFllQ0IQk37AHqkEXpmaJTDZ7WXVlqQJ8p594ojGNzX7q38tFRMJIE-4mTLE3S1sTGkTMTSyFsZG_PmJEc8JjM-LFDfoTdKCeTSfa8_WF]--></g></svg>