<svg xmlns="http://www.w3.org/2000/svg" xmlns:xlink="http://www.w3.org/1999/xlink" contentStyleType="text/css" height="825px" preserveAspectRatio="none" style="width:995px;height:825px;background:#FFFFFF;" version="1.1" viewBox="0 0 995 825" width="995px" zoomAndPan="magnify"><title>SC1 &#8212; Connexion (Login) &#8212; Sprint 1</title><defs/><g><text fill="#000000" font-family="Arial" font-size="14" font-weight="bold" lengthAdjust="spacing" textLength="246.5518" x="377.3525" y="34.1318">SC1 &#8212; Connexion (Login) &#8212; Sprint 1</text><rect fill="#FFFFFF" height="490.5859" style="stroke:#93C5FD;stroke-width:1;" width="10" x="437.4893" y="181.6963"/><rect fill="#FFFFFF" height="410.9883" style="stroke:#93C5FD;stroke-width:1;" width="10" x="617.8135" y="221.4951"/><rect fill="#FFFFFF" height="39.7988" style="stroke:#93C5FD;stroke-width:1;" width="10" x="863.2021" y="393.6904"/><rect fill="#FFFFFF" height="39.7988" style="stroke:#93C5FD;stroke-width:1;" width="10" x="863.2021" y="473.2881"/><rect fill="#FFFFFF" height="39.7988" style="stroke:#93C5FD;stroke-width:1;" width="10" x="955.9053" y="261.2939"/><rect fill="#FFFFFF" height="39.7988" style="stroke:#93C5FD;stroke-width:1;" width="10" x="955.9053" y="552.8857"/><line style="stroke:#93C5FD;stroke-width:0.5;stroke-dasharray:5.0,5.0;" x1="99" x2="99" y1="139.8975" y2="734.9312"/><line style="stroke:#93C5FD;stroke-width:0.5;stroke-dasharray:5.0,5.0;" x1="442.1631" x2="442.1631" y1="139.8975" y2="734.9312"/><line style="stroke:#93C5FD;stroke-width:0.5;stroke-dasharray:5.0,5.0;" x1="621.8164" x2="621.8164" y1="139.8975" y2="734.9312"/><line style="stroke:#93C5FD;stroke-width:0.5;stroke-dasharray:5.0,5.0;" x1="867.8506" x2="867.8506" y1="139.8975" y2="734.9312"/><line style="stroke:#93C5FD;stroke-width:0.5;stroke-dasharray:5.0,5.0;" x1="960.5537" x2="960.5537" y1="139.8975" y2="734.9312"/><text fill="#000000" font-family="Arial" font-size="12" lengthAdjust="spacing" textLength="86.7012" x="53" y="131.3545">:Client (Angular)</text><ellipse cx="99.3506" cy="62.5986" fill="#DBEAFE" rx="8" ry="8" style="stroke:#1D4ED8;stroke-width:0.5;"/><path d="M99.3506,70.5986 L99.3506,97.5986 M86.3506,78.5986 L112.3506,78.5986 M99.3506,97.5986 L86.3506,112.5986 M99.3506,97.5986 L112.3506,112.5986 " fill="none" style="stroke:#1D4ED8;stroke-width:0.5;"/><text fill="#000000" font-family="Arial" font-size="12" lengthAdjust="spacing" textLength="86.7012" x="53" y="751.187">:Client (Angular)</text><ellipse cx="99.3506" cy="768.23" fill="#DBEAFE" rx="8" ry="8" style="stroke:#1D4ED8;stroke-width:0.5;"/><path d="M99.3506,776.23 L99.3506,803.23 M86.3506,784.23 L112.3506,784.23 M99.3506,803.23 L86.3506,818.23 M99.3506,803.23 L112.3506,818.23 " fill="none" style="stroke:#1D4ED8;stroke-width:0.5;"/><rect fill="#2563EB" height="39.7988" rx="2.5" ry="2.5" style="stroke:#1D4ED8;stroke-width:0.5;" width="114.6523" x="385.1631" y="99.0986"/><text fill="#FFFFFF" font-family="Arial" font-size="12" font-weight="bold" lengthAdjust="spacing" textLength="88.6523" x="398.1631" y="123.3545">:AuthController</text><rect fill="#2563EB" height="39.7988" rx="2.5" ry="2.5" style="stroke:#1D4ED8;stroke-width:0.5;" width="114.6523" x="385.1631" y="733.9312"/><text fill="#FFFFFF" font-family="Arial" font-size="12" font-weight="bold" lengthAdjust="spacing" textLength="88.6523" x="398.1631" y="758.187">:AuthController</text><rect fill="#2563EB" height="39.7988" rx="2.5" ry="2.5" style="stroke:#1D4ED8;stroke-width:0.5;" width="133.9941" x="555.8164" y="99.0986"/><text fill="#FFFFFF" font-family="Arial" font-size="12" font-weight="bold" lengthAdjust="spacing" textLength="107.9941" x="568.8164" y="123.3545">:LoginCmdHandler</text><rect fill="#2563EB" height="39.7988" rx="2.5" ry="2.5" style="stroke:#1D4ED8;stroke-width:0.5;" width="133.9941" x="555.8164" y="733.9312"/><text fill="#FFFFFF" font-family="Arial" font-size="12" font-weight="bold" lengthAdjust="spacing" textLength="107.9941" x="568.8164" y="758.187">:LoginCmdHandler</text><rect fill="#2563EB" height="39.7988" rx="2.5" ry="2.5" style="stroke:#1D4ED8;stroke-width:0.5;" width="92.7031" x="821.8506" y="99.0986"/><text fill="#FFFFFF" font-family="Arial" font-size="12" font-weight="bold" lengthAdjust="spacing" textLength="66.7031" x="834.8506" y="123.3545">:JwtService</text><rect fill="#2563EB" height="39.7988" rx="2.5" ry="2.5" style="stroke:#1D4ED8;stroke-width:0.5;" width="92.7031" x="821.8506" y="733.9312"/><text fill="#FFFFFF" font-family="Arial" font-size="12" font-weight="bold" lengthAdjust="spacing" textLength="66.7031" x="834.8506" y="758.187">:JwtService</text><text fill="#000000" font-family="Arial" font-size="12" lengthAdjust="spacing" textLength="54.7031" x="930.5537" y="131.3545">:Database</text><path d="M942.9053,78.0986 C942.9053,68.0986 960.9053,68.0986 960.9053,68.0986 C960.9053,68.0986 978.9053,68.0986 978.9053,78.0986 L978.9053,104.0986 C978.9053,114.0986 960.9053,114.0986 960.9053,114.0986 C960.9053,114.0986 942.9053,114.0986 942.9053,104.0986 L942.9053,78.0986 " fill="#E2E2F0" style="stroke:#181818;stroke-width:1.5;"/><path d="M942.9053,78.0986 C942.9053,88.0986 960.9053,88.0986 960.9053,88.0986 C960.9053,88.0986 978.9053,88.0986 978.9053,78.0986 " fill="none" style="stroke:#181818;stroke-width:1.5;"/><text fill="#000000" font-family="Arial" font-size="12" lengthAdjust="spacing" textLength="54.7031" x="930.5537" y="751.187">:Database</text><path d="M942.9053,769.73 C942.9053,759.73 960.9053,759.73 960.9053,759.73 C960.9053,759.73 978.9053,759.73 978.9053,769.73 L978.9053,795.73 C978.9053,805.73 960.9053,805.73 960.9053,805.73 C960.9053,805.73 942.9053,805.73 942.9053,795.73 L942.9053,769.73 " fill="#E2E2F0" style="stroke:#181818;stroke-width:1.5;"/><path d="M942.9053,769.73 C942.9053,779.73 960.9053,779.73 960.9053,779.73 C960.9053,779.73 978.9053,779.73 978.9053,769.73 " fill="none" style="stroke:#181818;stroke-width:1.5;"/><rect fill="#FFFFFF" height="490.5859" style="stroke:#93C5FD;stroke-width:1;" width="10" x="437.4893" y="181.6963"/><rect fill="#FFFFFF" height="410.9883" style="stroke:#93C5FD;stroke-width:1;" width="10" x="617.8135" y="221.4951"/><rect fill="#FFFFFF" height="39.7988" style="stroke:#93C5FD;stroke-width:1;" width="10" x="863.2021" y="393.6904"/><rect fill="#FFFFFF" height="39.7988" style="stroke:#93C5FD;stroke-width:1;" width="10" x="863.2021" y="473.2881"/><rect fill="#FFFFFF" height="39.7988" style="stroke:#93C5FD;stroke-width:1;" width="10" x="955.9053" y="261.2939"/><rect fill="#FFFFFF" height="39.7988" style="stroke:#93C5FD;stroke-width:1;" width="10" x="955.9053" y="552.8857"/><polygon fill="#374151" points="425.4893,177.6963,435.4893,181.6963,425.4893,185.6963,429.4893,181.6963" style="stroke:#374151;stroke-width:1;"/><line style="stroke:#374151;stroke-width:1.5;" x1="99.3506" x2="431.4893" y1="181.6963" y2="181.6963"/><text fill="#1E3A8A" font-family="Arial" font-size="12" font-weight="bold" lengthAdjust="spacing" textLength="223.377" x="112.3506" y="171.1533">POST /api/auth/login {email, password}</text><polygon fill="#374151" points="605.8135,217.4951,615.8135,221.4951,605.8135,225.4951,609.8135,221.4951" style="stroke:#374151;stroke-width:1;"/><line style="stroke:#374151;stroke-width:1.5;" x1="447.4893" x2="611.8135" y1="221.4951" y2="221.4951"/><text fill="#1E3A8A" font-family="Arial" font-size="12" font-weight="bold" lengthAdjust="spacing" textLength="139.3242" x="460.4893" y="210.9521">Handle(LoginCommand)</text><polygon fill="#374151" points="943.9053,257.2939,953.9053,261.2939,943.9053,265.2939,947.9053,261.2939" style="stroke:#374151;stroke-width:1;"/><line style="stroke:#374151;stroke-width:1.5;" x1="627.8135" x2="949.9053" y1="261.2939" y2="261.2939"/><text fill="#1E3A8A" font-family="Arial" font-size="12" font-weight="bold" lengthAdjust="spacing" textLength="111.3574" x="640.8135" y="250.751">FindByEmail(email)</text><polygon fill="#374151" points="638.8135,297.0928,628.8135,301.0928,638.8135,305.0928,634.8135,301.0928" style="stroke:#374151;stroke-width:1;"/><line style="stroke:#374151;stroke-width:1.5;stroke-dasharray:2.0,2.0;" x1="632.8135" x2="959.9053" y1="301.0928" y2="301.0928"/><text fill="#1E3A8A" font-family="Arial" font-size="12" font-weight="bold" lengthAdjust="spacing" textLength="58.0371" x="650.8135" y="290.5498">User | null</text><line style="stroke:#374151;stroke-width:1.5;" x1="627.8135" x2="669.8135" y1="340.8916" y2="340.8916"/><line style="stroke:#374151;stroke-width:1.5;" x1="669.8135" x2="669.8135" y1="340.8916" y2="353.8916"/><line style="stroke:#374151;stroke-width:1.5;" x1="628.8135" x2="669.8135" y1="353.8916" y2="353.8916"/><polygon fill="#374151" points="638.8135,349.8916,628.8135,353.8916,638.8135,357.8916,634.8135,353.8916" style="stroke:#374151;stroke-width:1;"/><text fill="#1E3A8A" font-family="Arial" font-size="12" font-weight="bold" lengthAdjust="spacing" textLength="199.3887" x="640.8135" y="330.3486">VerifyBcryptHash(password, hash)</text><polygon fill="#374151" points="851.2021,389.6904,861.2021,393.6904,851.2021,397.6904,855.2021,393.6904" style="stroke:#374151;stroke-width:1;"/><line style="stroke:#374151;stroke-width:1.5;" x1="627.8135" x2="857.2021" y1="393.6904" y2="393.6904"/><text fill="#1E3A8A" font-family="Arial" font-size="12" font-weight="bold" lengthAdjust="spacing" textLength="162.7383" x="640.8135" y="383.1475">GenerateAccessToken(user)</text><polygon fill="#374151" points="638.8135,429.4893,628.8135,433.4893,638.8135,437.4893,634.8135,433.4893" style="stroke:#374151;stroke-width:1;"/><line style="stroke:#374151;stroke-width:1.5;stroke-dasharray:2.0,2.0;" x1="632.8135" x2="867.2021" y1="433.4893" y2="433.4893"/><text fill="#1E3A8A" font-family="Arial" font-size="12" font-weight="bold" lengthAdjust="spacing" textLength="112.0371" x="650.8135" y="422.9463">accessToken (JWT)</text><polygon fill="#374151" points="851.2021,469.2881,861.2021,473.2881,851.2021,477.2881,855.2021,473.2881" style="stroke:#374151;stroke-width:1;"/><line style="stroke:#374151;stroke-width:1.5;" x1="627.8135" x2="857.2021" y1="473.2881" y2="473.2881"/><text fill="#1E3A8A" font-family="Arial" font-size="12" font-weight="bold" lengthAdjust="spacing" textLength="140.0391" x="640.8135" y="462.7451">GenerateRefreshToken()</text><polygon fill="#374151" points="638.8135,509.0869,628.8135,513.0869,638.8135,517.0869,634.8135,513.0869" style="stroke:#374151;stroke-width:1;"/><line style="stroke:#374151;stroke-width:1.5;stroke-dasharray:2.0,2.0;" x1="632.8135" x2="867.2021" y1="513.0869" y2="513.0869"/><text fill="#1E3A8A" font-family="Arial" font-size="12" font-weight="bold" lengthAdjust="spacing" textLength="76.0254" x="650.8135" y="502.5439">refreshToken</text><polygon fill="#374151" points="943.9053,548.8857,953.9053,552.8857,943.9053,556.8857,947.9053,552.8857" style="stroke:#374151;stroke-width:1;"/><line style="stroke:#374151;stroke-width:1.5;" x1="627.8135" x2="949.9053" y1="552.8857" y2="552.8857"/><text fill="#1E3A8A" font-family="Arial" font-size="12" font-weight="bold" lengthAdjust="spacing" textLength="232.7461" x="640.8135" y="542.3428">SaveRefreshToken(userId, token, expiry)</text><polygon fill="#374151" points="638.8135,588.6846,628.8135,592.6846,638.8135,596.6846,634.8135,592.6846" style="stroke:#374151;stroke-width:1;"/><line style="stroke:#374151;stroke-width:1.5;stroke-dasharray:2.0,2.0;" x1="632.8135" x2="959.9053" y1="592.6846" y2="592.6846"/><text fill="#1E3A8A" font-family="Arial" font-size="12" font-weight="bold" lengthAdjust="spacing" textLength="18" x="650.8135" y="582.1416">OK</text><polygon fill="#374151" points="458.4893,628.4834,448.4893,632.4834,458.4893,636.4834,454.4893,632.4834" style="stroke:#374151;stroke-width:1;"/><line style="stroke:#374151;stroke-width:1.5;stroke-dasharray:2.0,2.0;" x1="452.4893" x2="621.8135" y1="632.4834" y2="632.4834"/><text fill="#1E3A8A" font-family="Arial" font-size="12" font-weight="bold" lengthAdjust="spacing" textLength="90.0059" x="470.4893" y="621.9404">LoginResponse</text><polygon fill="#374151" points="110.3506,668.2822,100.3506,672.2822,110.3506,676.2822,106.3506,672.2822" style="stroke:#374151;stroke-width:1;"/><line style="stroke:#374151;stroke-width:1.5;stroke-dasharray:2.0,2.0;" x1="104.3506" x2="441.4893" y1="672.2822" y2="672.2822"/><text fill="#1E3A8A" font-family="Arial" font-size="12" font-weight="bold" lengthAdjust="spacing" textLength="302.1387" x="122.3506" y="661.7393">200 OK {accessToken, refreshToken, role, expiresAt}</text><path d="M5,685.2822 L5,719.2822 L194,719.2822 L194,695.2822 L184,685.2822 L5,685.2822 " fill="#FFFBEB" style="stroke:#F59E0B;stroke-width:0.5;"/><path d="M184,685.2822 L184,695.2822 L194,695.2822 L184,685.2822 " fill="#FFFBEB" style="stroke:#F59E0B;stroke-width:0.5;"/><text fill="#000000" font-family="Arial" font-size="11" lengthAdjust="spacing" textLength="156.5352" x="17" y="706.6001">Token stock&#233; dans localStorage</text><!--SRC=[ZPDTRjf04CVVVOfL-W8IQI24DCb39NysJQCaYcdxlDW3R5bstTq5GjD8FKGlqNFq9Zr9nsi-334XI4YsvpSp__dFhXunaL55nwH7az50oOb8VScb8cyY-tFqYaYXJoVSH5AO6pe6uYf6UNKyPZ-0j8vBmHY-Jq0aS4ULOGdBg32UL2ceHRTMS186PtiIjYKUTqxReVToKYvdrqGxyDZCEP2UvEahs9sJkecHwdKp5kZsT84Nkb5OXIibPmke_UwarMdjWhf3bem4Q4rQRpkxe3rZh92NN5bHor73jdlcLe3Nh8z_0Hl6dBVzJXJifVTDuyc7PoP6pUYySkSvNDRWHO5NwNR0fWonPvN3A3hTg7mZ3NWLjyZREAAMAZUEEkTXSvjOxwIysoupl1GwgGnLhIcZQSh4W9mwZib14lijyk_NR-9B8U21IK5grtB0HDr-ZJF5X24jnw7voIG75pvdW5zghXXCE5Nr0q8rIJXpilLrGCoTc26MD4fo3gg0ZE9RbEtaZzDBAj8bDiJdBUngPc9GKvQ09RxDZ7PIQcYFQi1mi7YqmRJdE2Y77Bwt3Sa5kRkDk-I8Pko8egWZdlSaZp2cZ3VG3wrdk8IdV40sfGOAdJONQ-Hgi4OXi736b-CnljRN6LQo9J4ZxI4VCP5wyp3lKRETIZGgHEPmNVop1aL-4Z7Xt4cXp2rhBi0le5X_xYLgdfbBgeUrfVe64dfON_6vGyX_004AIxb9WdUbAqSWQXDiLX9ZlRHuIH1TywHszRLRByko6JiQtKDVWHuMdVPrKILuPmFhPaodcwNp8JxYr2P_Qn1uo9YQlsJnxQTAPzU7n6xs7dGcXOOoQtTRd8QSnfDrGOwRJQn87ai-DJR6mJV9OI4Cj6kUoYNj0NC4NcuYfxZwecXXjpOo6VtzGr8gDE4oeJp6UqS7uFm7]--></g></svg>