<svg xmlns="http://www.w3.org/2000/svg" xmlns:xlink="http://www.w3.org/1999/xlink" contentStyleType="text/css" height="1155px" preserveAspectRatio="none" style="width:1308px;height:1155px;background:#FFFFFF;" version="1.1" viewBox="0 0 1308 1155" width="1308px" zoomAndPan="magnify"><title>SC6 &#8212; Finalisation Facture + Approbation Client (US19+US20) &#8212; Sprint 4</title><defs/><g><text fill="#000000" font-family="Arial" font-size="14" font-weight="bold" lengthAdjust="spacing" textLength="488.5303" x="411.6758" y="34.1318">SC6 &#8212; Finalisation Facture + Approbation Client (US19+US20) &#8212; Sprint 4</text><rect fill="#FFFFFF" height="450.7871" style="stroke:#93C5FD;stroke-width:1;" width="10" x="275.3906" y="216.4951"/><rect fill="#FFFFFF" height="251.793" style="stroke:#93C5FD;stroke-width:1;" width="10" x="275.3906" y="788.6787"/><rect fill="#FFFFFF" height="371.1895" style="stroke:#93C5FD;stroke-width:1;" width="10" x="513.084" y="256.2939"/><rect fill="#FFFFFF" height="172.1953" style="stroke:#93C5FD;stroke-width:1;" width="10" x="513.084" y="828.4775"/><rect fill="#FFFFFF" height="39.7988" style="stroke:#93C5FD;stroke-width:1;" width="10" x="865.4805" y="296.0928"/><rect fill="#FFFFFF" height="39.7988" style="stroke:#93C5FD;stroke-width:1;" width="10" x="865.4805" y="428.4893"/><rect fill="#FFFFFF" height="39.7988" style="stroke:#93C5FD;stroke-width:1;" width="10" x="865.4805" y="547.8857"/><rect fill="#FFFFFF" height="39.7988" style="stroke:#93C5FD;stroke-width:1;" width="10" x="865.4805" y="921.0752"/><rect fill="#FFFFFF" height="79.5977" style="stroke:#93C5FD;stroke-width:1;" width="10" x="1002.457" y="508.0869"/><rect fill="none" height="518.3848" style="stroke:#1D4ED8;stroke-width:1.5;" width="1076.8037" x="10" y="156.8975"/><rect fill="none" height="319.3906" style="stroke:#1D4ED8;stroke-width:1.5;" width="1100.168" x="202.7139" y="729.0811"/><line style="stroke:#93C5FD;stroke-width:0.5;stroke-dasharray:5.0,5.0;" x1="60" x2="60" y1="139.8975" y2="1065.4717"/><line style="stroke:#93C5FD;stroke-width:0.5;stroke-dasharray:5.0,5.0;" x1="279.7139" x2="279.7139" y1="139.8975" y2="1065.4717"/><line style="stroke:#93C5FD;stroke-width:0.5;stroke-dasharray:5.0,5.0;" x1="518.0674" x2="518.0674" y1="139.8975" y2="1065.4717"/><line style="stroke:#93C5FD;stroke-width:0.5;stroke-dasharray:5.0,5.0;" x1="870.1289" x2="870.1289" y1="139.8975" y2="1065.4717"/><line style="stroke:#93C5FD;stroke-width:0.5;stroke-dasharray:5.0,5.0;" x1="1007.1104" x2="1007.1104" y1="139.8975" y2="1065.4717"/><line style="stroke:#93C5FD;stroke-width:0.5;stroke-dasharray:5.0,5.0;" x1="1266.8682" x2="1266.8682" y1="139.8975" y2="1065.4717"/><text fill="#000000" font-family="Arial" font-size="12" lengthAdjust="spacing" textLength="62.6953" x="26" y="131.3545">:ChefAtelier</text><ellipse cx="60.3477" cy="62.5986" fill="#DBEAFE" rx="8" ry="8" style="stroke:#1D4ED8;stroke-width:0.5;"/><path d="M60.3477,70.5986 L60.3477,97.5986 M47.3477,78.5986 L73.3477,78.5986 M60.3477,97.5986 L47.3477,112.5986 M60.3477,97.5986 L73.3477,112.5986 " fill="none" style="stroke:#1D4ED8;stroke-width:0.5;"/><text fill="#000000" font-family="Arial" font-size="12" lengthAdjust="spacing" textLength="62.6953" x="26" y="1081.7275">:ChefAtelier</text><ellipse cx="60.3477" cy="1098.7705" fill="#DBEAFE" rx="8" ry="8" style="stroke:#1D4ED8;stroke-width:0.5;"/><path d="M60.3477,1106.7705 L60.3477,1133.7705 M47.3477,1114.7705 L73.3477,1114.7705 M60.3477,1133.7705 L47.3477,1148.7705 M60.3477,1133.7705 L73.3477,1148.7705 " fill="none" style="stroke:#1D4ED8;stroke-width:0.5;"/><rect fill="#2563EB" height="39.7988" rx="2.5" ry="2.5" style="stroke:#1D4ED8;stroke-width:0.5;" width="135.3535" x="212.7139" y="99.0986"/><text fill="#FFFFFF" font-family="Arial" font-size="12" font-weight="bold" lengthAdjust="spacing" textLength="109.3535" x="225.7139" y="123.3545">:InvoicesController</text><rect fill="#2563EB" height="39.7988" rx="2.5" ry="2.5" style="stroke:#1D4ED8;stroke-width:0.5;" width="135.3535" x="212.7139" y="1064.4717"/><text fill="#FFFFFF" font-family="Arial" font-size="12" font-weight="bold" lengthAdjust="spacing" textLength="109.3535" x="225.7139" y="1088.7275">:InvoicesController</text><rect fill="#2563EB" height="39.7988" rx="2.5" ry="2.5" style="stroke:#1D4ED8;stroke-width:0.5;" width="160.0332" x="438.0674" y="99.0986"/><text fill="#FFFFFF" font-family="Arial" font-size="12" font-weight="bold" lengthAdjust="spacing" textLength="134.0332" x="451.0674" y="123.3545">:FinalizeInvoiceHandler</text><rect fill="#2563EB" height="39.7988" rx="2.5" ry="2.5" style="stroke:#1D4ED8;stroke-width:0.5;" width="160.0332" x="438.0674" y="1064.4717"/><text fill="#FFFFFF" font-family="Arial" font-size="12" font-weight="bold" lengthAdjust="spacing" textLength="134.0332" x="451.0674" y="1088.7275">:FinalizeInvoiceHandler</text><text fill="#000000" font-family="Arial" font-size="12" lengthAdjust="spacing" textLength="54.7031" x="840.1289" y="131.3545">:Database</text><path d="M852.4805,78.0986 C852.4805,68.0986 870.4805,68.0986 870.4805,68.0986 C870.4805,68.0986 888.4805,68.0986 888.4805,78.0986 L888.4805,104.0986 C888.4805,114.0986 870.4805,114.0986 870.4805,114.0986 C870.4805,114.0986 852.4805,114.0986 852.4805,104.0986 L852.4805,78.0986 " fill="#E2E2F0" style="stroke:#181818;stroke-width:1.5;"/><path d="M852.4805,78.0986 C852.4805,88.0986 870.4805,88.0986 870.4805,88.0986 C870.4805,88.0986 888.4805,88.0986 888.4805,78.0986 " fill="none" style="stroke:#181818;stroke-width:1.5;"/><text fill="#000000" font-family="Arial" font-size="12" lengthAdjust="spacing" textLength="54.7031" x="840.1289" y="1081.7275">:Database</text><path d="M852.4805,1100.2705 C852.4805,1090.2705 870.4805,1090.2705 870.4805,1090.2705 C870.4805,1090.2705 888.4805,1090.2705 888.4805,1100.2705 L888.4805,1126.2705 C888.4805,1136.2705 870.4805,1136.2705 870.4805,1136.2705 C870.4805,1136.2705 852.4805,1136.2705 852.4805,1126.2705 L852.4805,1100.2705 " fill="#E2E2F0" style="stroke:#181818;stroke-width:1.5;"/><path d="M852.4805,1100.2705 C852.4805,1110.2705 870.4805,1110.2705 870.4805,1110.2705 C870.4805,1110.2705 888.4805,1110.2705 888.4805,1100.2705 " fill="none" style="stroke:#181818;stroke-width:1.5;"/><rect fill="#2563EB" height="39.7988" rx="2.5" ry="2.5" style="stroke:#1D4ED8;stroke-width:0.5;" width="138.6934" x="938.1104" y="99.0986"/><text fill="#FFFFFF" font-family="Arial" font-size="12" font-weight="bold" lengthAdjust="spacing" textLength="112.6934" x="951.1104" y="123.3545">:NotificationService</text><rect fill="#2563EB" height="39.7988" rx="2.5" ry="2.5" style="stroke:#1D4ED8;stroke-width:0.5;" width="138.6934" x="938.1104" y="1064.4717"/><text fill="#FFFFFF" font-family="Arial" font-size="12" font-weight="bold" lengthAdjust="spacing" textLength="112.6934" x="951.1104" y="1088.7275">:NotificationService</text><text fill="#000000" font-family="Arial" font-size="12" lengthAdjust="spacing" textLength="34.0137" x="1246.8682" y="131.3545">:Client</text><ellipse cx="1266.875" cy="62.5986" fill="#DBEAFE" rx="8" ry="8" style="stroke:#1D4ED8;stroke-width:0.5;"/><path d="M1266.875,70.5986 L1266.875,97.5986 M1253.875,78.5986 L1279.875,78.5986 M1266.875,97.5986 L1253.875,112.5986 M1266.875,97.5986 L1279.875,112.5986 " fill="none" style="stroke:#1D4ED8;stroke-width:0.5;"/><text fill="#000000" font-family="Arial" font-size="12" lengthAdjust="spacing" textLength="34.0137" x="1246.8682" y="1081.7275">:Client</text><ellipse cx="1266.875" cy="1098.7705" fill="#DBEAFE" rx="8" ry="8" style="stroke:#1D4ED8;stroke-width:0.5;"/><path d="M1266.875,1106.7705 L1266.875,1133.7705 M1253.875,1114.7705 L1279.875,1114.7705 M1266.875,1133.7705 L1253.875,1148.7705 M1266.875,1133.7705 L1279.875,1148.7705 " fill="none" style="stroke:#1D4ED8;stroke-width:0.5;"/><rect fill="#FFFFFF" height="450.7871" style="stroke:#93C5FD;stroke-width:1;" width="10" x="275.3906" y="216.4951"/><rect fill="#FFFFFF" height="251.793" style="stroke:#93C5FD;stroke-width:1;" width="10" x="275.3906" y="788.6787"/><rect fill="#FFFFFF" height="371.1895" style="stroke:#93C5FD;stroke-width:1;" width="10" x="513.084" y="256.2939"/><rect fill="#FFFFFF" height="172.1953" style="stroke:#93C5FD;stroke-width:1;" width="10" x="513.084" y="828.4775"/><rect fill="#FFFFFF" height="39.7988" style="stroke:#93C5FD;stroke-width:1;" width="10" x="865.4805" y="296.0928"/><rect fill="#FFFFFF" height="39.7988" style="stroke:#93C5FD;stroke-width:1;" width="10" x="865.4805" y="428.4893"/><rect fill="#FFFFFF" height="39.7988" style="stroke:#93C5FD;stroke-width:1;" width="10" x="865.4805" y="547.8857"/><rect fill="#FFFFFF" height="39.7988" style="stroke:#93C5FD;stroke-width:1;" width="10" x="865.4805" y="921.0752"/><rect fill="#FFFFFF" height="79.5977" style="stroke:#93C5FD;stroke-width:1;" width="10" x="1002.457" y="508.0869"/><path d="M10,156.8975 L241.7383,156.8975 L241.7383,174.6963 L231.7383,184.6963 L10,184.6963 L10,156.8975 " fill="#EFF6FF" style="stroke:#1D4ED8;stroke-width:1.5;"/><rect fill="none" height="518.3848" style="stroke:#1D4ED8;stroke-width:1.5;" width="1076.8037" x="10" y="156.8975"/><text fill="#000000" font-family="Arial" font-size="12" font-weight="bold" lengthAdjust="spacing" textLength="174.7383" x="31" y="175.1533">Phase 1 : Chef finalise le devis</text><polygon fill="#374151" points="263.3906,212.4951,273.3906,216.4951,263.3906,220.4951,267.3906,216.4951" style="stroke:#374151;stroke-width:1;"/><line style="stroke:#374151;stroke-width:1.5;" x1="60.3477" x2="269.3906" y1="216.4951" y2="216.4951"/><text fill="#1E3A8A" font-family="Arial" font-size="12" font-weight="bold" lengthAdjust="spacing" textLength="184.043" x="73.3477" y="205.9521">PATCH /api/invoices/{id}/finalize</text><polygon fill="#374151" points="501.084,252.2939,511.084,256.2939,501.084,260.2939,505.084,256.2939" style="stroke:#374151;stroke-width:1;"/><line style="stroke:#374151;stroke-width:1.5;" x1="285.3906" x2="507.084" y1="256.2939" y2="256.2939"/><text fill="#1E3A8A" font-family="Arial" font-size="12" font-weight="bold" lengthAdjust="spacing" textLength="192.0293" x="298.3906" y="245.751">Handle(FinalizeInvoiceCommand)</text><polygon fill="#374151" points="853.4805,292.0928,863.4805,296.0928,853.4805,300.0928,857.4805,296.0928" style="stroke:#374151;stroke-width:1;"/><line style="stroke:#374151;stroke-width:1.5;" x1="523.084" x2="859.4805" y1="296.0928" y2="296.0928"/><text fill="#1E3A8A" font-family="Arial" font-size="12" font-weight="bold" lengthAdjust="spacing" textLength="80.0098" x="536.084" y="285.5498">GetInvoice(id)</text><polygon fill="#374151" points="534.084,331.8916,524.084,335.8916,534.084,339.8916,530.084,335.8916" style="stroke:#374151;stroke-width:1;"/><line style="stroke:#374151;stroke-width:1.5;stroke-dasharray:2.0,2.0;" x1="528.084" x2="869.4805" y1="335.8916" y2="335.8916"/><text fill="#1E3A8A" font-family="Arial" font-size="12" font-weight="bold" lengthAdjust="spacing" textLength="41.3496" x="546.084" y="325.3486">Invoice</text><line style="stroke:#374151;stroke-width:1.5;" x1="523.084" x2="565.084" y1="375.6904" y2="375.6904"/><line style="stroke:#374151;stroke-width:1.5;" x1="565.084" x2="565.084" y1="375.6904" y2="388.6904"/><line style="stroke:#374151;stroke-width:1.5;" x1="524.084" x2="565.084" y1="388.6904" y2="388.6904"/><polygon fill="#374151" points="534.084,384.6904,524.084,388.6904,534.084,392.6904,530.084,388.6904" style="stroke:#374151;stroke-width:1;"/><text fill="#1E3A8A" font-family="Arial" font-size="12" font-weight="bold" lengthAdjust="spacing" textLength="152.3555" x="536.084" y="365.1475">Status = AwaitingApproval</text><polygon fill="#374151" points="853.4805,424.4893,863.4805,428.4893,853.4805,432.4893,857.4805,428.4893" style="stroke:#374151;stroke-width:1;"/><line style="stroke:#374151;stroke-width:1.5;" x1="523.084" x2="859.4805" y1="428.4893" y2="428.4893"/><text fill="#1E3A8A" font-family="Arial" font-size="12" font-weight="bold" lengthAdjust="spacing" textLength="206.0156" x="536.084" y="417.9463">UpdateIntervention(InvoicePending)</text><polygon fill="#374151" points="534.084,464.2881,524.084,468.2881,534.084,472.2881,530.084,468.2881" style="stroke:#374151;stroke-width:1;"/><line style="stroke:#374151;stroke-width:1.5;stroke-dasharray:2.0,2.0;" x1="528.084" x2="869.4805" y1="468.2881" y2="468.2881"/><text fill="#1E3A8A" font-family="Arial" font-size="12" font-weight="bold" lengthAdjust="spacing" textLength="18" x="546.084" y="457.7451">OK</text><polygon fill="#374151" points="990.457,504.0869,1000.457,508.0869,990.457,512.0869,994.457,508.0869" style="stroke:#374151;stroke-width:1;"/><line style="stroke:#374151;stroke-width:1.5;" x1="523.084" x2="996.457" y1="508.0869" y2="508.0869"/><text fill="#1E3A8A" font-family="Arial" font-size="12" font-weight="bold" lengthAdjust="spacing" textLength="197.3965" x="536.084" y="497.5439">Notify(clientId, "Devis disponible")</text><polygon fill="#374151" points="886.4805,543.8857,876.4805,547.8857,886.4805,551.8857,882.4805,547.8857" style="stroke:#374151;stroke-width:1;"/><line style="stroke:#374151;stroke-width:1.5;" x1="880.4805" x2="1001.457" y1="547.8857" y2="547.8857"/><text fill="#1E3A8A" font-family="Arial" font-size="12" font-weight="bold" lengthAdjust="spacing" textLength="95.9766" x="898.4805" y="537.3428">Add(notification)</text><polygon fill="#374151" points="995.457,583.6846,1005.457,587.6846,995.457,591.6846,999.457,587.6846" style="stroke:#374151;stroke-width:1;"/><line style="stroke:#374151;stroke-width:1.5;stroke-dasharray:2.0,2.0;" x1="870.4805" x2="1001.457" y1="587.6846" y2="587.6846"/><text fill="#1E3A8A" font-family="Arial" font-size="12" font-weight="bold" lengthAdjust="spacing" textLength="18" x="883.4805" y="577.1416">OK</text><polygon fill="#374151" points="296.3906,623.4834,286.3906,627.4834,296.3906,631.4834,292.3906,627.4834" style="stroke:#374151;stroke-width:1;"/><line style="stroke:#374151;stroke-width:1.5;stroke-dasharray:2.0,2.0;" x1="290.3906" x2="517.084" y1="627.4834" y2="627.4834"/><text fill="#1E3A8A" font-family="Arial" font-size="12" font-weight="bold" lengthAdjust="spacing" textLength="18" x="308.3906" y="616.9404">OK</text><polygon fill="#374151" points="71.3477,663.2822,61.3477,667.2822,71.3477,671.2822,67.3477,667.2822" style="stroke:#374151;stroke-width:1;"/><line style="stroke:#374151;stroke-width:1.5;stroke-dasharray:2.0,2.0;" x1="65.3477" x2="279.3906" y1="667.2822" y2="667.2822"/><text fill="#1E3A8A" font-family="Arial" font-size="12" font-weight="bold" lengthAdjust="spacing" textLength="41.3555" x="83.3477" y="656.7393">200 OK</text><polygon fill="#374151" points="1254.875,710.0811,1264.875,714.0811,1254.875,718.0811,1258.875,714.0811" style="stroke:#374151;stroke-width:1;"/><line style="stroke:#374151;stroke-width:1.5;" x1="1007.457" x2="1260.875" y1="714.0811" y2="714.0811"/><text fill="#1E3A8A" font-family="Arial" font-size="12" font-weight="bold" lengthAdjust="spacing" textLength="223.418" x="1020.457" y="703.5381">Push notification : "Devis &#224; approuver"</text><path d="M202.7139,729.0811 L406.4209,729.0811 L406.4209,746.8799 L396.4209,756.8799 L202.7139,756.8799 L202.7139,729.0811 " fill="#EFF6FF" style="stroke:#1D4ED8;stroke-width:1.5;"/><rect fill="none" height="319.3906" style="stroke:#1D4ED8;stroke-width:1.5;" width="1100.168" x="202.7139" y="729.0811"/><text fill="#000000" font-family="Arial" font-size="12" font-weight="bold" lengthAdjust="spacing" textLength="146.707" x="223.7139" y="747.3369">Phase 2 : Client approuve</text><polygon fill="#374151" points="296.3906,784.6787,286.3906,788.6787,296.3906,792.6787,292.3906,788.6787" style="stroke:#374151;stroke-width:1;"/><line style="stroke:#374151;stroke-width:1.5;" x1="290.3906" x2="1265.875" y1="788.6787" y2="788.6787"/><text fill="#1E3A8A" font-family="Arial" font-size="12" font-weight="bold" lengthAdjust="spacing" textLength="181.3887" x="308.3906" y="778.1357">POST /api/invoices/{id}/approve</text><polygon fill="#374151" points="501.084,824.4775,511.084,828.4775,501.084,832.4775,505.084,828.4775" style="stroke:#374151;stroke-width:1;"/><line style="stroke:#374151;stroke-width:1.5;" x1="285.3906" x2="507.084" y1="828.4775" y2="828.4775"/><text fill="#1E3A8A" font-family="Arial" font-size="12" font-weight="bold" lengthAdjust="spacing" textLength="196.6934" x="298.3906" y="817.9346">Handle(ApproveInvoiceCommand)</text><line style="stroke:#374151;stroke-width:1.5;" x1="523.084" x2="565.084" y1="868.2764" y2="868.2764"/><line style="stroke:#374151;stroke-width:1.5;" x1="565.084" x2="565.084" y1="868.2764" y2="881.2764"/><line style="stroke:#374151;stroke-width:1.5;" x1="524.084" x2="565.084" y1="881.2764" y2="881.2764"/><polygon fill="#374151" points="534.084,877.2764,524.084,881.2764,534.084,885.2764,530.084,881.2764" style="stroke:#374151;stroke-width:1;"/><text fill="#1E3A8A" font-family="Arial" font-size="12" font-weight="bold" lengthAdjust="spacing" textLength="123.6914" x="536.084" y="857.7334">clientApproved = true</text><polygon fill="#374151" points="853.4805,917.0752,863.4805,921.0752,853.4805,925.0752,857.4805,921.0752" style="stroke:#374151;stroke-width:1;"/><line style="stroke:#374151;stroke-width:1.5;" x1="523.084" x2="859.4805" y1="921.0752" y2="921.0752"/><text fill="#1E3A8A" font-family="Arial" font-size="12" font-weight="bold" lengthAdjust="spacing" textLength="311.3965" x="536.084" y="910.5322">UpdateIntervention(RepairInProgress); SaveChanges()</text><polygon fill="#374151" points="534.084,956.874,524.084,960.874,534.084,964.874,530.084,960.874" style="stroke:#374151;stroke-width:1;"/><line style="stroke:#374151;stroke-width:1.5;stroke-dasharray:2.0,2.0;" x1="528.084" x2="869.4805" y1="960.874" y2="960.874"/><text fill="#1E3A8A" font-family="Arial" font-size="12" font-weight="bold" lengthAdjust="spacing" textLength="18" x="546.084" y="950.3311">OK</text><polygon fill="#374151" points="296.3906,996.6729,286.3906,1000.6729,296.3906,1004.6729,292.3906,1000.6729" style="stroke:#374151;stroke-width:1;"/><line style="stroke:#374151;stroke-width:1.5;stroke-dasharray:2.0,2.0;" x1="290.3906" x2="517.084" y1="1000.6729" y2="1000.6729"/><text fill="#1E3A8A" font-family="Arial" font-size="12" font-weight="bold" lengthAdjust="spacing" textLength="18" x="308.3906" y="990.1299">OK</text><polygon fill="#374151" points="1254.875,1036.4717,1264.875,1040.4717,1254.875,1044.4717,1258.875,1040.4717" style="stroke:#374151;stroke-width:1;"/><line style="stroke:#374151;stroke-width:1.5;stroke-dasharray:2.0,2.0;" x1="280.3906" x2="1260.875" y1="1040.4717" y2="1040.4717"/><text fill="#1E3A8A" font-family="Arial" font-size="12" font-weight="bold" lengthAdjust="spacing" textLength="152.707" x="293.3906" y="1029.9287">200 OK {status: Approved}</text><!--SRC=[fPLjRjf048R_-nGZ-eSeJVa8q8IgbOp1ITGgGJKvmE9TO1MpTjTheYIAr4Fq0BrBRzAJTBnUWo5s82eI4lO-y_7El2lYEouY8iaIfiI_cyim4TG9Wr32ErT_h7XDK3OZIQ3SKAXhicHWIqw2ydEFFp9ejGk77lkHCE6pCP6A-pmYGWr2IPaqrLh3pcXujYTWjyLsjtSw6hmUbBPJfQW2zzH3m60Q1lG0jbAfxQjG7gOnGtVL3GSZsnsLuLA6zmOw_TXfTLjLq6J1_Jl1uXXQ7xfLq1uPQ-IrgQofNEher3wpIy1lV8PVmRO6StxgTDtXNdgVcWkSNdJOn3DqT-8Zr-sL6aJZXyXRWzK3tI1b0xqE5HkKNCN1biyrLHJgTiz7pLrYqqVH81EkWi9Hf_IehBM8KCh577gMfL8GFAS7Vt_-0fSB4l2OA1uAS8cl4idW6Emeak4qU-i4d0a5zLklTNvywxMRHphIYoJ7rntB8kaLW5hVMR2PhHZYiWOa1X-VhMXpvn2v4gkG-onsi54P1e4XkQzai8DcdJqo4t991CtnsG8VB4eKcPAO8JiqF_KfdUvamddo6VUr6e_95MRJe4ZVRxhNChF60svPwHOZ62_I2YteGweEPjcu6E08ALlns08j4qw-P28G7DiJvn8Q9E8DRkGsdZXzRioC8ep1edn553FAmGHZ5gqDisHwwpjJSCBb4W-EYYcoQO29n1HqYl4NJ9cOEj_cSJwGCYU5QWPD3zWskCwQevuYAedXCzZtX2iqbVRAYWGlMhYDS4NOkSAPusXn-dLJPyn4QiUzRTryVQqZlJ-az7uVwhvUu1Lz3xLXkXgWF8v2mQS1gsrLolOE9ZxlrgQqBWfEgMmkBrlQNE4vBsFwBJXaDpBVe341ajfJVMWtco_Wp34uGCjQ2q3fgV6IU0552VZEZEBFRo3fcf8LNg5jRxTJRsTNF4TIKsF6egTll4cPfNN4wasEpkpo9aFd6R8DcmGKBQXamWwntNSM4Iwln5Y6Sub_GaUVm2Chvc3SdCNr__BXs_Qg5vMj5PvYVPNwa2jwhjhqFm00]--></g></svg>