<svg xmlns="http://www.w3.org/2000/svg" xmlns:xlink="http://www.w3.org/1999/xlink" contentStyleType="text/css" height="1412px" preserveAspectRatio="none" style="width:761px;height:1412px;background:#FFFFFF;" version="1.1" viewBox="0 0 761 1412" width="761px" zoomAndPan="magnify"><title>Diagramme de Cas d'Utilisation Global &#8212; MecaRage</title><defs/><g><text fill="#000000" font-family="Arial" font-size="15" font-weight="bold" lengthAdjust="spacing" textLength="372.832" x="190.584" y="32.0698">Diagramme de Cas d'Utilisation Global &#8212; MecaRage</text><!--cluster Syst?me MecaRage--><g id="cluster_Syst&#232;me MecaRage"><rect fill="#FFFFFF" height="1239" rx="2.5" ry="2.5" style="stroke:#1D4ED8;stroke-width:2;" width="590" x="151" y="58.2485"/><text fill="#000000" font-family="Arial" font-size="13" font-weight="bold" lengthAdjust="spacing" textLength="121.3989" x="385.3005" y="80.4424">Syst&#232;me MecaRage</text></g><!--cluster iasys--><g id="cluster_iasys"><rect fill="#FFFFFF" height="101" rx="2.5" ry="2.5" style="stroke:#1D4ED8;stroke-width:2;" width="248" x="507" y="1305.2485"/><text fill="#000000" font-family="Arial" font-size="13" font-weight="bold" lengthAdjust="spacing" textLength="169.4189" x="546.2905" y="1327.4424">Syst&#232;me IA (Ollama + RAG)</text></g><!--entity cli--><g id="elem_cli"><ellipse cx="64.167" cy="320.7485" fill="#DBEAFE" rx="8" ry="8" style="stroke:#1D4ED8;stroke-width:0.5;"/><path d="M64.167,328.7485 L64.167,355.7485 M51.167,336.7485 L77.167,336.7485 M64.167,355.7485 L51.167,370.7485 M64.167,355.7485 L77.167,370.7485 " fill="none" style="stroke:#1D4ED8;stroke-width:0.5;"/><text fill="#000000" font-family="Arial" font-size="12" font-weight="bold" lengthAdjust="spacing" textLength="33.334" x="47.5" y="391.5044">Client</text></g><!--entity mec--><g id="elem_mec"><ellipse cx="63.8467" cy="620.7485" fill="#DBEAFE" rx="8" ry="8" style="stroke:#1D4ED8;stroke-width:0.5;"/><path d="M63.8467,628.7485 L63.8467,655.7485 M50.8467,636.7485 L76.8467,636.7485 M63.8467,655.7485 L50.8467,670.7485 M63.8467,655.7485 L76.8467,670.7485 " fill="none" style="stroke:#1D4ED8;stroke-width:0.5;"/><text fill="#000000" font-family="Arial" font-size="12" font-weight="bold" lengthAdjust="spacing" textLength="64.6934" x="31.5" y="691.5044">M&#233;canicien</text></g><!--entity che--><g id="elem_che"><ellipse cx="63.7656" cy="890.7485" fill="#DBEAFE" rx="8" ry="8" style="stroke:#1D4ED8;stroke-width:0.5;"/><path d="M63.7656,898.7485 L63.7656,925.7485 M50.7656,906.7485 L76.7656,906.7485 M63.7656,925.7485 L50.7656,940.7485 M63.7656,925.7485 L76.7656,940.7485 " fill="none" style="stroke:#1D4ED8;stroke-width:0.5;"/><text fill="#000000" font-family="Arial" font-size="12" font-weight="bold" lengthAdjust="spacing" textLength="77.5313" x="25" y="961.5044">Chef d'Atelier</text></g><!--entity adm--><g id="elem_adm"><ellipse cx="64.0098" cy="1122.7485" fill="#DBEAFE" rx="8" ry="8" style="stroke:#1D4ED8;stroke-width:0.5;"/><path d="M64.0098,1130.7485 L64.0098,1157.7485 M51.0098,1138.7485 L77.0098,1138.7485 M64.0098,1157.7485 L51.0098,1172.7485 M64.0098,1157.7485 L77.0098,1172.7485 " fill="none" style="stroke:#1D4ED8;stroke-width:0.5;"/><text fill="#000000" font-family="Arial" font-size="12" font-weight="bold" lengthAdjust="spacing" textLength="100.0195" x="14" y="1193.5044">Admin Entreprise</text></g><!--entity sad--><g id="elem_sad"><ellipse cx="63.8359" cy="86.7485" fill="#DBEAFE" rx="8" ry="8" style="stroke:#1D4ED8;stroke-width:0.5;"/><path d="M63.8359,94.7485 L63.8359,121.7485 M50.8359,102.7485 L76.8359,102.7485 M63.8359,121.7485 L50.8359,136.7485 M63.8359,121.7485 L76.8359,136.7485 " fill="none" style="stroke:#1D4ED8;stroke-width:0.5;"/><text fill="#000000" font-family="Arial" font-size="12" font-weight="bold" lengthAdjust="spacing" textLength="74.6719" x="26.5" y="157.5044">Super Admin</text></g><g id="elem_UC01"><ellipse cx="630.7643" cy="691.3195" fill="#EFF6FF" rx="101.7643" ry="24.071" style="stroke:#1D4ED8;stroke-width:1.5;"/><text fill="#000000" font-family="Arial" font-size="12" lengthAdjust="spacing" textLength="111.6738" x="574.9274" y="693.6759">S'authentifier (UC01)</text></g><g id="elem_UC02"><ellipse cx="279.6783" cy="257.3195" fill="#EFF6FF" rx="66.1783" ry="24.071" style="stroke:#1D4ED8;stroke-width:1.5;"/><text fill="#000000" font-family="Arial" font-size="12" lengthAdjust="spacing" textLength="61.3477" x="249.0045" y="259.6759">G&#233;rer Profil</text></g><g id="elem_UC03"><ellipse cx="279.7269" cy="525.3939" fill="#EFF6FF" rx="108.7269" ry="24.1454" style="stroke:#1D4ED8;stroke-width:1.5;"/><text fill="#000000" font-family="Arial" font-size="12" lengthAdjust="spacing" textLength="122.0449" x="218.7045" y="527.7504">Soumettre Sympt&#244;mes</text></g><g id="elem_UC04"><ellipse cx="279.4663" cy="323.4418" fill="#EFF6FF" rx="108.9663" ry="24.1933" style="stroke:#1D4ED8;stroke-width:1.5;"/><text fill="#000000" font-family="Arial" font-size="12" lengthAdjust="spacing" textLength="122.7188" x="218.1069" y="325.7982">R&#233;server Rendez-vous</text></g><g id="elem_UC05"><ellipse cx="279.5469" cy="391.2579" fill="#EFF6FF" rx="115.5469" ry="25.5094" style="stroke:#1D4ED8;stroke-width:1.5;"/><text fill="#000000" font-family="Arial" font-size="12" lengthAdjust="spacing" textLength="140.7246" x="209.1846" y="393.6144">Approuver / Refuser Devis</text></g><g id="elem_UC06"><ellipse cx="279.5483" cy="459.3195" fill="#EFF6FF" rx="93.5483" ry="24.071" style="stroke:#1D4ED8;stroke-width:1.5;"/><text fill="#000000" font-family="Arial" font-size="12" lengthAdjust="spacing" textLength="100.0547" x="229.521" y="461.6759">Suivre Intervention</text></g><g id="elem_UC07"><ellipse cx="279.5583" cy="190.3602" fill="#EFF6FF" rx="113.5583" ry="25.1117" style="stroke:#1D4ED8;stroke-width:1.5;"/><text fill="#000000" font-family="Arial" font-size="12" lengthAdjust="spacing" textLength="135.3809" x="211.8679" y="192.7166">T&#233;l&#233;charger Facture PDF</text></g><g id="elem_UC08"><ellipse cx="279.2974" cy="657.3195" fill="#EFF6FF" rx="89.2974" ry="24.071" style="stroke:#1D4ED8;stroke-width:1.5;"/><text fill="#000000" font-family="Arial" font-size="12" lengthAdjust="spacing" textLength="94.043" x="232.2759" y="659.6759">Consulter T&#226;ches</text></g><g id="elem_UC09"><ellipse cx="279.3108" cy="723.3195" fill="#EFF6FF" rx="92.8108" ry="24.071" style="stroke:#1D4ED8;stroke-width:1.5;"/><text fill="#000000" font-family="Arial" font-size="12" lengthAdjust="spacing" textLength="99.0117" x="229.805" y="725.6759">Rapport d'Examen</text></g><g id="elem_UC10"><ellipse cx="279.2503" cy="591.3195" fill="#EFF6FF" rx="90.2503" ry="24.071" style="stroke:#1D4ED8;stroke-width:1.5;"/><text fill="#000000" font-family="Arial" font-size="12" lengthAdjust="spacing" textLength="95.3906" x="231.555" y="593.6759">Fin de R&#233;paration</text></g><g id="elem_UC11"><ellipse cx="279.3674" cy="792.222" fill="#EFF6FF" rx="120.3674" ry="26.4735" style="stroke:#1D4ED8;stroke-width:1.5;"/><text fill="#000000" font-family="Arial" font-size="12" lengthAdjust="spacing" textLength="153.3867" x="202.674" y="794.5785">R&#233;viser Rapport Sympt&#244;mes</text></g><g id="elem_UC12"><ellipse cx="279.3422" cy="861.3195" fill="#EFF6FF" rx="96.8422" ry="24.071" style="stroke:#1D4ED8;stroke-width:1.5;"/><text fill="#000000" font-family="Arial" font-size="12" lengthAdjust="spacing" textLength="104.7129" x="226.9857" y="863.6759">G&#233;rer Rendez-vous</text></g><g id="elem_UC13"><ellipse cx="279.3316" cy="927.3195" fill="#EFF6FF" rx="105.3316" ry="24.071" style="stroke:#1D4ED8;stroke-width:1.5;"/><text fill="#000000" font-family="Arial" font-size="12" lengthAdjust="spacing" textLength="116.7188" x="220.9722" y="929.6759">Assigner M&#233;caniciens</text></g><g id="elem_UC14"><ellipse cx="279.4299" cy="1059.3195" fill="#EFF6FF" rx="103.4299" ry="24.071" style="stroke:#1D4ED8;stroke-width:1.5;"/><text fill="#000000" font-family="Arial" font-size="12" lengthAdjust="spacing" textLength="114.0293" x="222.4152" y="1061.6759">Cr&#233;er Facture / Devis</text></g><g id="elem_UC15"><ellipse cx="279.3804" cy="993.3195" fill="#EFF6FF" rx="87.8804" ry="24.071" style="stroke:#1D4ED8;stroke-width:1.5;"/><text fill="#000000" font-family="Arial" font-size="12" lengthAdjust="spacing" textLength="92.0391" x="233.3609" y="995.6759">Valider et Notifier</text></g><g id="elem_UC16"><ellipse cx="279.3494" cy="1262.0184" fill="#EFF6FF" rx="119.3494" ry="26.2699" style="stroke:#1D4ED8;stroke-width:1.5;"/><text fill="#000000" font-family="Arial" font-size="12" lengthAdjust="spacing" textLength="150.7441" x="203.9773" y="1264.3749">G&#233;rer Garages et Personnel</text></g><g id="elem_UC17"><ellipse cx="279.3508" cy="1126.0187" fill="#EFF6FF" rx="111.8508" ry="24.7702" style="stroke:#1D4ED8;stroke-width:1.5;"/><text fill="#000000" font-family="Arial" font-size="12" lengthAdjust="spacing" textLength="130.7285" x="213.9866" y="1128.3751">G&#233;rer Pi&#232;ces D&#233;tach&#233;es</text></g><g id="elem_UC18"><ellipse cx="279.5018" cy="1193.3195" fill="#EFF6FF" rx="102.5018" ry="24.071" style="stroke:#1D4ED8;stroke-width:1.5;"/><text fill="#000000" font-family="Arial" font-size="12" lengthAdjust="spacing" textLength="112.7168" x="223.1434" y="1195.6759">Enregistrer Paiement</text></g><g id="elem_UC19"><ellipse cx="279.5059" cy="123.3195" fill="#EFF6FF" rx="77.5059" ry="24.071" style="stroke:#1D4ED8;stroke-width:1.5;"/><text fill="#000000" font-family="Arial" font-size="12" lengthAdjust="spacing" textLength="77.3672" x="240.8223" y="125.6759">G&#233;rer Tenants</text></g><g id="elem_UC20"><ellipse cx="630.8041" cy="1372.3094" fill="#EFF6FF" rx="115.8041" ry="25.5608" style="stroke:#1D4ED8;stroke-width:1.5;"/><text fill="#000000" font-family="Arial" font-size="12" lengthAdjust="spacing" textLength="141.4102" x="560.099" y="1374.6658">Diagnostic IA Automatique</text></g><polygon fill="#4B5563" points="170.7046,503.8498,164.3114,496.358,166.194,501.6924,160.8596,503.575,170.7046,503.8498" style="stroke:#4B5563;stroke-width:1;"/><path d="M83.1977,402.4849 C97.4104,432.236 119.9774,469.7042 151,492.2485 C157.1039,496.6843 158.34,497.9359 165.2919,501.2609 " fill="none" style="stroke:#4B5563;stroke-width:1.5;"/><polygon fill="#4B5563" points="170.1814,340.4983,160.6644,337.9635,165.2437,341.2847,161.9225,345.864,170.1814,340.4983" style="stroke:#4B5563;stroke-width:1;"/><path d="M88.664,353.48 C108.8578,350.2642 133.5075,346.3387 164.2561,341.4419 " fill="none" style="stroke:#4B5563;stroke-width:1.5;"/><polygon fill="#4B5563" points="163.7402,372.973,155.4813,367.6073,158.8024,372.1866,154.2231,375.5078,163.7402,372.973" style="stroke:#4B5563;stroke-width:1;"/><path d="M88.664,361.017 C107.4464,364.0082 129.2843,367.4858 157.8149,372.0294 " fill="none" style="stroke:#4B5563;stroke-width:1.5;"/><polygon fill="#4B5563" points="185.9051,440.2607,178.5752,433.6825,181.1483,438.7203,176.1105,441.2934,185.9051,440.2607" style="stroke:#4B5563;stroke-width:1;"/><path d="M88.6332,380.8276 C104.9105,395.8369 127.7275,414.5813 151,426.2485 C161.9354,431.7308 168.1605,434.5144 180.1969,438.4122 " fill="none" style="stroke:#4B5563;stroke-width:1.5;"/><polygon fill="#4B5563" points="165.7251,215.1118,155.9003,215.7992,161.3089,217.4564,159.6517,222.8651,165.7251,215.1118" style="stroke:#4B5563;stroke-width:1;"/><path d="M83.7219,312.1118 C98.0447,282.9351 120.5322,246.4026 151,224.2485 C155.6321,220.8804 155.2761,220.6593 160.4257,217.9253 " fill="none" style="stroke:#4B5563;stroke-width:1.5;"/><polygon fill="#4B5563" points="213.4388,268.6817,203.7473,266.9285,208.5813,269.8666,205.6432,274.7006,213.4388,268.6817" style="stroke:#4B5563;stroke-width:1;"/><path d="M88.7518,334.3806 C105.0792,319.8181 127.9074,301.6196 151,290.2485 C170.3846,280.7034 187.0026,275.1304 207.6098,270.1036 " fill="none" style="stroke:#4B5563;stroke-width:1.5;"/><polygon fill="#4B5563" points="189.9334,657.2485,180.9334,653.2485,184.9334,657.2485,180.9334,661.2485,189.9334,657.2485" style="stroke:#4B5563;stroke-width:1;"/><path d="M104.6574,657.2485 C128.655,657.2485 154.2599,657.2485 183.9334,657.2485 " fill="none" style="stroke:#4B5563;stroke-width:1.5;"/><polygon fill="#4B5563" points="186.2165,700.6861,178.6107,694.4289,181.3979,699.3515,176.4753,702.1387,186.2165,700.6861" style="stroke:#4B5563;stroke-width:1;"/><path d="M104.9173,673.6444 C119.3152,679.2706 135.7694,685.3726 151,690.2485 C162.3236,693.8737 168.5253,695.7861 180.4342,699.0846 " fill="none" style="stroke:#4B5563;stroke-width:1.5;"/><polygon fill="#4B5563" points="188.963,613.0537,179.2252,611.5787,184.1414,614.3772,181.3429,619.2934,188.963,613.0537" style="stroke:#4B5563;stroke-width:1;"/><path d="M104.9173,640.8527 C119.3152,635.2265 135.7694,629.1245 151,624.2485 C163.1946,620.3445 170.3692,618.1577 183.1771,614.6419 " fill="none" style="stroke:#4B5563;stroke-width:1.5;"/><polygon fill="#4B5563" points="168.1828,818.8405,158.3369,819.0828,163.6651,820.983,161.7649,826.3111,168.1828,818.8405" style="stroke:#4B5563;stroke-width:1;"/><path d="M94.9932,882.2415 C109.8041,863.1204 129.1806,842.092 151,828.2485 C156.4381,824.7983 156.7906,824.2432 162.7615,821.4115 " fill="none" style="stroke:#4B5563;stroke-width:1.5;"/><polygon fill="#4B5563" points="182.4361,884.8647,172.6902,883.4442,177.6219,886.2152,174.8509,891.1469,182.4361,884.8647" style="stroke:#4B5563;stroke-width:1;"/><path d="M111.0763,908.4664 C123.8984,903.5419 137.9017,898.4418 151,894.2485 C161.1259,891.0068 166.0029,889.4746 176.6591,886.4853 " fill="none" style="stroke:#4B5563;stroke-width:1.5;"/><polygon fill="#4B5563" points="173.7699,927.2485,164.7699,923.2485,168.7699,927.2485,164.7699,931.2485,173.7699,927.2485" style="stroke:#4B5563;stroke-width:1;"/><path d="M111.0635,927.2485 C129.5737,927.2485 145.7292,927.2485 167.7699,927.2485 " fill="none" style="stroke:#4B5563;stroke-width:1.5;"/><polygon fill="#4B5563" points="175.9731,1038.6969,169.118,1031.6253,171.3348,1036.8297,166.1305,1039.0466,175.9731,1038.6969" style="stroke:#4B5563;stroke-width:1;"/><path d="M94.8534,972.4786 C109.6366,991.6439 129.0302,1012.6451 151,1026.2485 C158.776,1031.0633 161.6688,1032.9385 170.4072,1036.4563 " fill="none" style="stroke:#4B5563;stroke-width:1.5;"/><polygon fill="#4B5563" points="191.3625,972.0995,183.7303,965.8747,186.5383,970.7854,181.6276,973.5934,191.3625,972.0995" style="stroke:#4B5563;stroke-width:1;"/><path d="M111.0763,946.0307 C123.8984,950.9551 137.9017,956.0552 151,960.2485 C163.9568,964.3965 171.9892,966.822 185.5734,970.5225 " fill="none" style="stroke:#4B5563;stroke-width:1.5;"/><polygon fill="#4B5563" points="175.8857,1081.8127,166.0635,1081.0894,171.1799,1083.5024,168.7669,1088.6188,175.8857,1081.8127" style="stroke:#4B5563;stroke-width:1;"/><path d="M115.9364,1114.1512 C126.9606,1105.982 138.9443,1098.1849 151,1092.2485 C158.8974,1088.3598 161.6561,1086.9218 170.2387,1083.8403 " fill="none" style="stroke:#4B5563;stroke-width:1.5;"/><polygon fill="#4B5563" points="172.2264,1235.6913,165.3137,1228.676,167.573,1233.8621,162.3869,1236.1213,172.2264,1235.6913" style="stroke:#4B5563;stroke-width:1;"/><path d="M116.5055,1204.4851 C127.3925,1212.5455 139.179,1220.2659 151,1226.2485 C157.7723,1229.676 159.3333,1230.623 166.6423,1233.4962 " fill="none" style="stroke:#4B5563;stroke-width:1.5;"/><polygon fill="#4B5563" points="167.1212,1143.464,157.6158,1140.8857,162.1799,1144.2278,158.8378,1148.7918,167.1212,1143.464" style="stroke:#4B5563;stroke-width:1;"/><path d="M122.2141,1150.4051 C136.1716,1148.2478 145.6513,1146.7825 161.1916,1144.3805 " fill="none" style="stroke:#4B5563;stroke-width:1.5;"/><polygon fill="#4B5563" points="176.6156,1177.0234,168.3567,1171.6577,171.6778,1176.237,167.0985,1179.5582,176.6156,1177.0234" style="stroke:#4B5563;stroke-width:1;"/><path d="M122.2141,1168.3599 C139.0125,1171.0351 151.9885,1173.1015 170.6902,1176.0798 " fill="none" style="stroke:#4B5563;stroke-width:1.5;"/><polygon fill="#4B5563" points="201.8481,123.2485,192.8481,119.2485,196.8481,123.2485,192.8481,127.2485,201.8481,123.2485" style="stroke:#4B5563;stroke-width:1;"/><path d="M109.7566,123.2485 C136.4127,123.2485 164.9608,123.2485 195.8481,123.2485 " fill="none" style="stroke:#4B5563;stroke-width:1.5;"/><polygon fill="#4B5563" points="630.0718,667.1854,633.9176,658.1184,629.9864,662.1862,625.9187,658.2551,630.0718,667.1854" style="stroke:#4B5563;stroke-width:1;"/><path d="M345.5204,250.3661 C392.7628,248.9971 455.4472,255.185 497,290.2485 C614.999,389.8197 628.7665,590.7683 629.9694,661.1863 " fill="none" style="stroke:#4B5563;stroke-width:1.5;stroke-dasharray:7.0,7.0;"/><text fill="#1E40AF" font-family="Arial" font-size="13" font-weight="bold" lengthAdjust="spacing" textLength="59.9663" x="428" y="245.4424">&#171;include&#187;</text><polygon fill="#4B5563" points="609.5378,667.1249,606.4961,657.7575,606.1952,663.4064,600.5464,663.1055,609.5378,667.1249" style="stroke:#4B5563;stroke-width:1;"/><path d="M388.2235,538.692 C424.1565,545.9851 463.5348,557.1637 497,574.2485 C542.7417,597.6008 581.3922,635.813 605.5267,662.6627 " fill="none" style="stroke:#4B5563;stroke-width:1.5;stroke-dasharray:7.0,7.0;"/><text fill="#1E40AF" font-family="Arial" font-size="13" font-weight="bold" lengthAdjust="spacing" textLength="59.9663" x="428" y="534.4424">&#171;include&#187;</text><polygon fill="#4B5563" points="627.8908,666.8611,630.8923,657.4808,627.3491,661.8905,622.9394,658.3474,627.8908,666.8611" style="stroke:#4B5563;stroke-width:1;"/><path d="M388.7555,322.5434 C426.4774,327.3091 466.8601,338.6688 497,363.2485 C594.6211,442.8604 620.5322,599.3344 627.2408,660.8964 " fill="none" style="stroke:#4B5563;stroke-width:1.5;stroke-dasharray:7.0,7.0;"/><text fill="#1E40AF" font-family="Arial" font-size="13" font-weight="bold" lengthAdjust="spacing" textLength="59.9663" x="428" y="316.4424">&#171;include&#187;</text><polygon fill="#4B5563" points="624.7553,667.0946,626.5167,657.4046,623.5745,662.2361,618.7429,659.2939,624.7553,667.0946" style="stroke:#4B5563;stroke-width:1;"/><path d="M395.1687,396.1541 C430.5971,402.3815 467.911,414.25 497,436.2485 C575.853,495.881 610.8746,609.9816 623.3383,661.2644 " fill="none" style="stroke:#4B5563;stroke-width:1.5;stroke-dasharray:7.0,7.0;"/><text fill="#1E40AF" font-family="Arial" font-size="13" font-weight="bold" lengthAdjust="spacing" textLength="59.9663" x="428" y="389.4424">&#171;include&#187;</text><polygon fill="#4B5563" points="619.4403,667.0176,619.2427,657.1707,617.3183,662.4902,611.9989,660.5659,619.4403,667.0176" style="stroke:#4B5563;stroke-width:1;"/><path d="M373.1109,465.5287 C413.7772,471.831 460.472,484.1883 497,508.2485 C558.1709,548.5405 598.2553,621.8174 616.8939,661.5847 " fill="none" style="stroke:#4B5563;stroke-width:1.5;stroke-dasharray:7.0,7.0;"/><text fill="#1E40AF" font-family="Arial" font-size="13" font-weight="bold" lengthAdjust="spacing" textLength="59.9663" x="428" y="462.4424">&#171;include&#187;</text><polygon fill="#4B5563" points="626.6946,667.2171,629.3777,657.7408,625.9855,662.2677,621.4586,658.8754,626.6946,667.2171" style="stroke:#4B5563;stroke-width:1;"/><path d="M393.1455,194.7438 C437.1466,198.7369 480.9058,206.2283 497,220.2485 C566.8339,281.0834 613.3271,573.9193 625.8437,661.2778 " fill="none" style="stroke:#4B5563;stroke-width:1.5;stroke-dasharray:7.0,7.0;"/><text fill="#1E40AF" font-family="Arial" font-size="13" font-weight="bold" lengthAdjust="spacing" textLength="59.9663" x="428" y="186.4424">&#171;include&#187;</text><polygon fill="#4B5563" points="528.7703,681.4007,520.1999,676.5481,523.7938,680.9166,519.4253,684.5105,528.7703,681.4007" style="stroke:#4B5563;stroke-width:1;"/><path d="M369.1454,665.8721 C417.7823,670.6036 472.3111,675.9083 522.7985,680.8198 " fill="none" style="stroke:#4B5563;stroke-width:1.5;stroke-dasharray:7.0,7.0;"/><text fill="#1E40AF" font-family="Arial" font-size="13" font-weight="bold" lengthAdjust="spacing" textLength="59.9663" x="428" y="658.4424">&#171;include&#187;</text><polygon fill="#4B5563" points="528.9407,711.9147,519.4268,709.368,524.0019,712.6949,520.6751,717.27,528.9407,711.9147" style="stroke:#4B5563;stroke-width:1;"/><path d="M372.6345,723.3832 C411.1626,722.6327 456.346,720.7 497,716.2485 C507.393,715.1105 512.2651,714.549 523.0142,712.8509 " fill="none" style="stroke:#4B5563;stroke-width:1.5;stroke-dasharray:7.0,7.0;"/><text fill="#1E40AF" font-family="Arial" font-size="13" font-weight="bold" lengthAdjust="spacing" textLength="59.9663" x="428" y="704.4424">&#171;include&#187;</text><polygon fill="#4B5563" points="583.0095,667.2183,576.6173,659.7256,578.4991,665.0603,573.1645,666.9421,583.0095,667.2183" style="stroke:#4B5563;stroke-width:1;"/><path d="M370.1162,603.4625 C409.5458,610.0486 456.098,619.491 497,632.2485 C526.4197,641.4247 552.5922,652.6648 577.5971,664.6287 " fill="none" style="stroke:#4B5563;stroke-width:1.5;stroke-dasharray:7.0,7.0;"/><text fill="#1E40AF" font-family="Arial" font-size="13" font-weight="bold" lengthAdjust="spacing" textLength="59.9663" x="428" y="600.4424">&#171;include&#187;</text><polygon fill="#4B5563" points="591.2812,715.2609,581.4878,716.3043,586.953,717.7642,585.4931,723.2294,591.2812,715.2609" style="stroke:#4B5563;stroke-width:1;"/><path d="M400.0747,781.0235 C432.0411,776.1373 466.2419,769.1672 497,759.2485 C530.3202,748.5036 560.2903,733.185 586.0874,718.2649 " fill="none" style="stroke:#4B5563;stroke-width:1.5;stroke-dasharray:7.0,7.0;"/><text fill="#1E40AF" font-family="Arial" font-size="13" font-weight="bold" lengthAdjust="spacing" textLength="59.9663" x="428" y="747.4424">&#171;include&#187;</text><polygon fill="#4B5563" points="611.1733,715.4397,602.3566,719.8289,607.9881,719.2938,608.5232,724.9253,611.1733,715.4397" style="stroke:#4B5563;stroke-width:1;"/><path d="M376.7331,852.1577 C415.698,845.6401 460.1022,834.4521 497,815.2485 C544.6058,790.472 583.8131,748.5453 607.351,720.0646 " fill="none" style="stroke:#4B5563;stroke-width:1.5;stroke-dasharray:7.0,7.0;"/><text fill="#1E40AF" font-family="Arial" font-size="13" font-weight="bold" lengthAdjust="spacing" textLength="59.9663" x="428" y="803.4424">&#171;include&#187;</text><polygon fill="#4B5563" points="620.1385,715.3441,612.8453,721.9629,618.1197,719.9185,620.1642,725.193,620.1385,715.3441" style="stroke:#4B5563;stroke-width:1;"/><path d="M385.2348,920.3239 C422.894,913.9169 464.1467,902.0407 497,880.2485 C559.8589,838.5531 599.699,761.6581 617.716,720.8334 " fill="none" style="stroke:#4B5563;stroke-width:1.5;stroke-dasharray:7.0,7.0;"/><text fill="#1E40AF" font-family="Arial" font-size="13" font-weight="bold" lengthAdjust="spacing" textLength="59.9663" x="428" y="868.4424">&#171;include&#187;</text><polygon fill="#4B5563" points="628.0313,715.3806,623.1228,723.9191,627.5147,720.3538,631.08,724.7457,628.0313,715.3806" style="stroke:#4B5563;stroke-width:1;"/><path d="M383.1778,1061.7034 C422.4409,1057.7503 465.3421,1046.8865 497,1021.2485 C595.6454,941.361 621.0016,783.0521 627.4114,721.3485 " fill="none" style="stroke:#4B5563;stroke-width:1.5;stroke-dasharray:7.0,7.0;"/><text fill="#1E40AF" font-family="Arial" font-size="13" font-weight="bold" lengthAdjust="spacing" textLength="59.9663" x="428" y="1009.4424">&#171;include&#187;</text><polygon fill="#4B5563" points="625.0085,715.4335,619.0771,723.2959,623.8779,720.304,626.8698,725.1048,625.0085,715.4335" style="stroke:#4B5563;stroke-width:1;"/><path d="M367.535,993.2066 C410.2141,989.1654 460.2108,977.9976 497,950.2485 C577.1047,889.8278 611.5915,773.2323 623.6518,721.2781 " fill="none" style="stroke:#4B5563;stroke-width:1.5;stroke-dasharray:7.0,7.0;"/><text fill="#1E40AF" font-family="Arial" font-size="13" font-weight="bold" lengthAdjust="spacing" textLength="59.9663" x="428" y="938.4424">&#171;include&#187;</text><polygon fill="#4B5563" points="627.6879,715.2914,622.7996,723.8416,627.1831,720.2659,630.7588,724.6493,627.6879,715.2914" style="stroke:#4B5563;stroke-width:1;"/><path d="M399.2031,1271.918 C434.3493,1268.8044 470.4803,1258.8644 497,1235.2485 C577.1427,1163.8813 617.3595,817.0623 627.0821,721.2608 " fill="none" style="stroke:#4B5563;stroke-width:1.5;stroke-dasharray:7.0,7.0;"/><text fill="#1E40AF" font-family="Arial" font-size="13" font-weight="bold" lengthAdjust="spacing" textLength="59.9663" x="428" y="1223.4424">&#171;include&#187;</text><polygon fill="#4B5563" points="630.0935,715.3698,625.9482,724.3038,630.0125,720.3692,633.9472,724.4334,630.0935,715.3698" style="stroke:#4B5563;stroke-width:1;"/><path d="M391.6214,1131.7216 C428.7584,1128.1287 468.0238,1117.718 497,1093.2485 C615.227,993.4097 628.8529,791.9576 629.9963,721.369 " fill="none" style="stroke:#4B5563;stroke-width:1.5;stroke-dasharray:7.0,7.0;"/><text fill="#1E40AF" font-family="Arial" font-size="13" font-weight="bold" lengthAdjust="spacing" textLength="59.9663" x="428" y="1081.4424">&#171;include&#187;</text><polygon fill="#4B5563" points="626.7197,715.3912,621.4972,723.7414,626.0186,720.3418,629.4182,724.8632,626.7197,715.3912" style="stroke:#4B5563;stroke-width:1;"/><path d="M382.075,1202.3365 C422.1044,1200.5835 465.8573,1191.2843 497,1164.2485 C567.2131,1103.2947 613.4493,809.0935 625.8784,721.3319 " fill="none" style="stroke:#4B5563;stroke-width:1.5;stroke-dasharray:7.0,7.0;"/><text fill="#1E40AF" font-family="Arial" font-size="13" font-weight="bold" lengthAdjust="spacing" textLength="59.9663" x="428" y="1152.4424">&#171;include&#187;</text><polygon fill="#4B5563" points="627.4345,667.2362,630.4069,657.8466,626.8775,662.2674,622.4567,658.7379,627.4345,667.2362" style="stroke:#4B5563;stroke-width:1;"/><path d="M357.1685,116.7972 C403.2449,117.2037 459.9396,125.9082 497,160.2485 C573.7677,231.3817 616.2197,567.2019 626.7661,661.2736 " fill="none" style="stroke:#4B5563;stroke-width:1.5;stroke-dasharray:7.0,7.0;"/><text fill="#1E40AF" font-family="Arial" font-size="13" font-weight="bold" lengthAdjust="spacing" textLength="59.9663" x="428" y="111.4424">&#171;include&#187;</text><polygon fill="#4B5563" points="514.8493,1363.229,507.0486,1357.2167,509.9908,1362.0482,505.1593,1364.9904,514.8493,1363.229" style="stroke:#4B5563;stroke-width:1;"/><path d="M388.2153,546.6137 C392.5809,549.9812 396.5571,553.837 400,558.2485 C451.2167,623.8747 367.7094,1240.9101 418,1307.2485 C441.0821,1337.6962 472.3016,1352.888 509.0191,1361.812 " fill="none" style="stroke:#4B5563;stroke-width:1.5;stroke-dasharray:7.0,7.0;"/><text fill="#1E40AF" font-family="Arial" font-size="13" font-weight="bold" lengthAdjust="spacing" textLength="59.9663" x="428" y="1295.4424">&#171;include&#187;</text><!--SRC=[XLNDRkCs4BxhAQRf8LaKoPgsvTZ5De3Ydo27tGQEqpiZqJ8HYjIILBRUea0Vea_Gq_hUDz2Rz4awaYE5iXMjJnv-tmndlXcEVaWrZHCAWcvLPi4ap599FVF4PKerJU2HXa-nLfcCfaee3Jykof_3YDYQPi8kbBIVQC8Wq9oATloUVsL0-WuOX5RfQwKZfb_YazbmFXiVKGxJc5tFWyNya5PUOhU2mQCIKIjwbCA3OI4rh3k9YdIOndon63NKQ4HRRNZu99anG2xyOz8RacYjlho47rxx_cXm2BuLjWHVWmvQeLPrAhGgVpxi1MvLInRYNCJYEoeTq5xpxBUIlZjQDRMzg2RSLjYAMzVPRuNQ75CQHLp6CFOyMn1XnccC0Cvtn61A3KId3vOBRgZbIiADK8zKm7z__GqViRTB6ZFF4snjmIhGFDvOYBZ6V97iURIOHZYP2iwaFG6C5WfUdNxCTo6LF4IiX18MrWuRjiQB0ylGK-yTDwn2WoZX4kRIQfPgRbY9qoYfyFiiPHfALWaP6dcUhZH4V6ji_Wqhh2euWJyyW6m_h8YVqinkC6E-njlXx67Q8-_AICK_btcJxpGoxhHQSr4n-erOAiDLWvd2_JP9RVvlman57BZ4PRupJ3zZj2MJ4Vjw_goocZbqcK6QuZ0LpFV8NUEvXXbxvZNRRoIGyMUy_LRQ8hei-bBnHYvlbUy4DcH3TOpn5YXbXcvtiqN5ldJPKoKDxZfahl9_i3NrtUD6JJHDbSQ9E9t_ZXkpldZYaXROInmrhB-OI2S_qZlG1qiiv7a9UgGdQMlDiPYaqP_061vB93hJM3CR3PhgVESeyxwXEMbqw3SgEAu5O1O-gVqKLJo_9SSRh3jcfg3VCMsKbAmQ9Z9g6pUUVmkHFyjtbeORJAjEez6akTGiviQMFfIpf7g4I1otn5qnIQMjOqsyFzkVpMq0PxyAGV5p-XCiWvlzs-3KR4tp8HMxH2fZULZu19bL2JRuSyPUhkZtYYjEuHVyxRzSU6vKoCinCEMvXni3pi-lzW_6COQkuRl6o3KkNQFlURXbAcli6XF7mCdpSAWhYxX6tpK6hZ5q3H-NNvIyGeunSerBry0bZBkgiYQrDBSo51c-aM8jmPbcdpDk85MPngMRMPm4mGevt-q5A-g4YukoAW8_muSFVEz_TLLWWmvis87v7TYe0xlimCOTsEHjZFGwCDA1TUX2EdGX7RgG3br8XowaGnVIeGjvKvV3QS4d5-qV83VrP5HLzdi7tly3]--></g></svg>