<svg xmlns="http://www.w3.org/2000/svg" xmlns:xlink="http://www.w3.org/1999/xlink" contentStyleType="text/css" height="986px" preserveAspectRatio="none" style="width:460px;height:986px;background:#FFFFFF;" version="1.1" viewBox="0 0 460 986" width="460px" zoomAndPan="magnify"><title>Sprint 4 &#8212; Op&#233;rations d'Atelier et Cycle de Vie</title><defs/><g><text fill="#000000" font-family="Arial" font-size="14" font-weight="bold" lengthAdjust="spacing" textLength="309.8594" x="68.0703" y="31.1318">Sprint 4 &#8212; Op&#233;rations d'Atelier et Cycle de Vie</text><!--cluster Sprint 4 : Op?rations d'Atelier--><g id="cluster_Sprint 4 : Op&#233;rations d'Atelier"><rect fill="#FFFFFF" height="920" rx="2.5" ry="2.5" style="stroke:#1D4ED8;stroke-width:2;" width="296" x="158" y="60.0986"/><text fill="#000000" font-family="Arial" font-size="13" font-weight="bold" lengthAdjust="spacing" textLength="183.6758" x="214.1621" y="82.2925">Sprint 4 : Op&#233;rations d'Atelier</text></g><g id="elem_UC15"><ellipse cx="306.1832" cy="135.9353" fill="#EFF6FF" rx="122.1832" ry="26.8366" style="stroke:#1D4ED8;stroke-width:0.5;"/><text fill="#000000" font-family="Arial" font-size="12" lengthAdjust="spacing" textLength="158.0625" x="227.1519" y="138.2917">Assigner M&#233;caniciens (US15)</text></g><g id="elem_UC18"><ellipse cx="306.0664" cy="226.3119" fill="#EFF6FF" rx="129.0664" ry="28.2133" style="stroke:#1D4ED8;stroke-width:0.5;"/><text fill="#000000" font-family="Arial" font-size="12" lengthAdjust="spacing" textLength="175.4004" x="218.3662" y="228.6684">R&#233;viser Rapport Examen (US18)</text></g><g id="elem_UC19"><ellipse cx="306.1365" cy="316.2259" fill="#EFF6FF" rx="121.1365" ry="26.6273" style="stroke:#1D4ED8;stroke-width:0.5;"/><text fill="#000000" font-family="Arial" font-size="12" lengthAdjust="spacing" textLength="155.373" x="228.45" y="318.5824">Cr&#233;er Facture / Devis (US19)</text></g><g id="elem_UC22"><ellipse cx="306.1713" cy="404.9329" fill="#EFF6FF" rx="124.6713" ry="27.3343" style="stroke:#1D4ED8;stroke-width:0.5;"/><text fill="#000000" font-family="Arial" font-size="12" lengthAdjust="spacing" textLength="164.3965" x="223.9731" y="407.2893">Valider + Notifier Client (US22)</text></g><g id="elem_UC16"><ellipse cx="306.0605" cy="493.2107" fill="#EFF6FF" rx="113.5605" ry="25.1121" style="stroke:#1D4ED8;stroke-width:0.5;"/><text fill="#000000" font-family="Arial" font-size="12" lengthAdjust="spacing" textLength="135.3867" x="238.3671" y="495.5672">Consulter T&#226;ches (US16)</text></g><g id="elem_UC17"><ellipse cx="305.9086" cy="579.0804" fill="#EFF6FF" rx="115.4086" ry="25.4817" style="stroke:#1D4ED8;stroke-width:0.5;"/><text fill="#000000" font-family="Arial" font-size="12" lengthAdjust="spacing" textLength="140.3555" x="235.7309" y="581.4368">Rapport d'Examen (US17)</text></g><g id="elem_UC21"><ellipse cx="306.0593" cy="665.3105" fill="#EFF6FF" rx="114.0593" ry="25.2119" style="stroke:#1D4ED8;stroke-width:0.5;"/><text fill="#000000" font-family="Arial" font-size="12" lengthAdjust="spacing" textLength="136.7344" x="237.6921" y="667.6669">Fin de R&#233;paration (US21)</text></g><g id="elem_UC20"><ellipse cx="305.7711" cy="753.8528" fill="#EFF6FF" rx="131.7711" ry="28.7542" style="stroke:#1D4ED8;stroke-width:0.5;"/><text fill="#000000" font-family="Arial" font-size="12" lengthAdjust="spacing" textLength="182.0684" x="214.7369" y="756.2093">Approuver / Refuser Devis (US20)</text></g><g id="elem_UC26"><ellipse cx="306.1012" cy="846.9189" fill="#EFF6FF" rx="129.6012" ry="28.3202" style="stroke:#1D4ED8;stroke-width:0.5;"/><text fill="#000000" font-family="Arial" font-size="12" lengthAdjust="spacing" textLength="176.7246" x="217.7389" y="849.2753">T&#233;l&#233;charger Facture PDF (US26)</text></g><g id="elem_UC23"><ellipse cx="306.1279" cy="937.1242" fill="#EFF6FF" rx="120.6279" ry="26.5256" style="stroke:#1D4ED8;stroke-width:0.5;"/><text fill="#000000" font-family="Arial" font-size="12" lengthAdjust="spacing" textLength="154.0605" x="229.0976" y="939.4807">Enregistrer Paiement (US23)</text></g><!--entity che--><g id="elem_che"><ellipse cx="55.7656" cy="234.5986" fill="#DBEAFE" rx="8" ry="8" style="stroke:#1D4ED8;stroke-width:0.5;"/><path d="M55.7656,242.5986 L55.7656,269.5986 M42.7656,250.5986 L68.7656,250.5986 M55.7656,269.5986 L42.7656,284.5986 M55.7656,269.5986 L68.7656,284.5986 " fill="none" style="stroke:#1D4ED8;stroke-width:0.5;"/><text fill="#000000" font-family="Arial" font-size="12" font-weight="bold" lengthAdjust="spacing" textLength="77.5313" x="17" y="305.3545">Chef d'Atelier</text></g><!--entity mec--><g id="elem_mec"><ellipse cx="55.8467" cy="542.5986" fill="#DBEAFE" rx="8" ry="8" style="stroke:#1D4ED8;stroke-width:0.5;"/><path d="M55.8467,550.5986 L55.8467,577.5986 M42.8467,558.5986 L68.8467,558.5986 M55.8467,577.5986 L42.8467,592.5986 M55.8467,577.5986 L68.8467,592.5986 " fill="none" style="stroke:#1D4ED8;stroke-width:0.5;"/><text fill="#000000" font-family="Arial" font-size="12" font-weight="bold" lengthAdjust="spacing" textLength="64.6934" x="23.5" y="613.3545">M&#233;canicien</text></g><!--entity cli--><g id="elem_cli"><ellipse cx="56.167" cy="746.5986" fill="#DBEAFE" rx="8" ry="8" style="stroke:#1D4ED8;stroke-width:0.5;"/><path d="M56.167,754.5986 L56.167,781.5986 M43.167,762.5986 L69.167,762.5986 M56.167,781.5986 L43.167,796.5986 M56.167,781.5986 L69.167,796.5986 " fill="none" style="stroke:#1D4ED8;stroke-width:0.5;"/><text fill="#000000" font-family="Arial" font-size="12" font-weight="bold" lengthAdjust="spacing" textLength="33.334" x="39.5" y="817.3545">Client</text></g><!--entity adm--><g id="elem_adm"><ellipse cx="56.0098" cy="900.5986" fill="#DBEAFE" rx="8" ry="8" style="stroke:#1D4ED8;stroke-width:0.5;"/><path d="M56.0098,908.5986 L56.0098,935.5986 M43.0098,916.5986 L69.0098,916.5986 M56.0098,935.5986 L43.0098,950.5986 M56.0098,935.5986 L69.0098,950.5986 " fill="none" style="stroke:#1D4ED8;stroke-width:0.5;"/><text fill="#000000" font-family="Arial" font-size="12" font-weight="bold" lengthAdjust="spacing" textLength="100.0195" x="6" y="971.3545">Admin Entreprise</text></g><!--link che to UC15--><g id="link_che_UC15"><path d="M94.48,225.8886 C110.15,209.4486 129.48,191.9986 150,180.0986 C169.48,168.7986 186.2736,161.9509 208.0436,155.5509 " fill="none" id="che-to-UC15" style="stroke:#4B5563;stroke-width:1.5;"/><polygon fill="#4B5563" points="213.8,153.8586,204.0372,152.5595,209.003,155.2689,206.2936,160.2347,213.8,153.8586" style="stroke:#4B5563;stroke-width:1.5;"/></g><!--link che to UC18--><g id="link_che_UC18"><path d="M103.07,262.7386 C132.13,257.4686 164.9064,251.5196 200.6264,245.0396 " fill="none" id="che-to-UC18" style="stroke:#4B5563;stroke-width:1.5;"/><polygon fill="#4B5563" points="206.53,243.9686,196.9605,241.6393,201.6103,244.8611,198.3885,249.5109,206.53,243.9686" style="stroke:#4B5563;stroke-width:1.5;"/></g><!--link che to UC19--><g id="link_che_UC19"><path d="M103.07,279.4586 C133.67,285.0086 169.0264,291.4273 206.2764,298.1873 " fill="none" id="che-to-UC19" style="stroke:#4B5563;stroke-width:1.5;"/><polygon fill="#4B5563" points="212.18,299.2586,204.0389,293.7159,207.2604,298.3658,202.6104,301.5873,212.18,299.2586" style="stroke:#4B5563;stroke-width:1.5;"/></g><!--link che to UC22--><g id="link_che_UC22"><path d="M95.58,316.1486 C111.11,331.9486 130.06,348.5986 150,360.0986 C169.54,371.3686 186.3737,378.2724 208.1437,384.8124 " fill="none" id="che-to-UC22" style="stroke:#4B5563;stroke-width:1.5;"/><polygon fill="#4B5563" points="213.89,386.5386,206.4214,380.1184,209.1014,385.1001,204.1197,387.7801,213.89,386.5386" style="stroke:#4B5563;stroke-width:1.5;"/></g><!--link mec to UC16--><g id="link_mec_UC16"><path d="M96.68,559.0186 C112.95,551.2486 132.13,542.6586 150,536.0986 C175.3,526.8086 197.7579,519.9842 223.1379,513.1242 " fill="none" id="mec-to-UC16" style="stroke:#4B5563;stroke-width:1.5;"/><polygon fill="#4B5563" points="228.93,511.5586,219.1981,510.0456,224.1032,512.8633,221.2855,517.7684,228.93,511.5586" style="stroke:#4B5563;stroke-width:1.5;"/></g><!--link mec to UC17--><g id="link_mec_UC17"><path d="M96.57,579.0986 C122.07,579.0986 150.65,579.0986 184.31,579.0986 " fill="none" id="mec-to-UC17" style="stroke:#4B5563;stroke-width:1.5;"/><polygon fill="#4B5563" points="190.31,579.0986,181.31,575.0986,185.31,579.0986,181.31,583.0986,190.31,579.0986" style="stroke:#4B5563;stroke-width:1.5;"/></g><!--link mec to UC21--><g id="link_mec_UC21"><path d="M96.68,599.1786 C112.95,606.9486 132.13,615.5386 150,622.0986 C175.3,631.3886 197.7579,638.2131 223.1379,645.0731 " fill="none" id="mec-to-UC21" style="stroke:#4B5563;stroke-width:1.5;"/><polygon fill="#4B5563" points="228.93,646.6386,221.2855,640.4288,224.1032,645.334,219.1981,648.1517,228.93,646.6386" style="stroke:#4B5563;stroke-width:1.5;"/></g><!--link cli to UC20--><g id="link_cli_UC20"><path d="M80.78,780.3186 C106.12,777.3586 142.1705,773.1345 183.0205,768.3645 " fill="none" id="cli-to-UC20" style="stroke:#4B5563;stroke-width:1.5;"/><polygon fill="#4B5563" points="188.98,767.6686,179.5768,764.7395,184.0137,768.2485,180.5047,772.6855,188.98,767.6686" style="stroke:#4B5563;stroke-width:1.5;"/></g><!--link cli to UC26--><g id="link_cli_UC26"><path d="M80.78,789.2386 C112.91,797.5286 166.0302,811.24 215.4202,823.98 " fill="none" id="cli-to-UC26" style="stroke:#4B5563;stroke-width:1.5;"/><polygon fill="#4B5563" points="221.23,825.4786,213.5143,819.3575,216.3885,824.2298,211.5162,827.1039,221.23,825.4786" style="stroke:#4B5563;stroke-width:1.5;"/></g><!--link adm to UC23--><g id="link_adm_UC23"><path d="M114.21,937.0986 C135.52,937.0986 154.59,937.0986 179.42,937.0986 " fill="none" id="adm-to-UC23" style="stroke:#4B5563;stroke-width:1.5;"/><polygon fill="#4B5563" points="185.42,937.0986,176.42,933.0986,180.42,937.0986,176.42,941.0986,185.42,937.0986" style="stroke:#4B5563;stroke-width:1.5;"/></g><!--SRC=[XLHBRjim5Dpp50_k8YsAD9RyYTD50SUMTas3nCcU4PzbmX8ba7JQj0ZGG_G4tVaSlabFqYVPecb7RRnxdXboPlGaivIgv9hdyC2JPQgBbHAJ8Yiql8dh7pEE8N3ELvcD2sMlU8umrf9dxVYj_8uGX1uuJcoXBmijKE_E3wRzQ3fwGJcsCRsCnd5qJAiliKyPmaEHYLRqXOKxWmat-7yJ3UdOHXJ7muCsTiH_fDMw-BfJzYy7Ws7l69mjPB9KQ0m47mR7uFxGNYlK6hn1csHHlpls3TzWOhbAirSAEABjVOQjf5Utnb7RGnt2RS5cqlhYVYlK9Yov45AbC6BCLaIuBRLK5lhmv-Sl-59krffRMIW3ucHiCPEe0IrCdXBY2eHxYOnbEBTW2z0oNLWGKfDVqZ36gqM3pcI1yxs-0zn0ii06_RnP9rp9HAAgeHmJ9oI-ibj19fj_noAN2Y9bDP9PWpNEHSwOReg2ZilniJr51tumWDLsGUbCOsIgA9pdni3RkzjWyAu-_suI37p1pMRzI7ThkE5bMMWBqJTwtrKj6Jd9o9TCz6PDWfXYh3J26KoHZgWL5qvnuIlkUIPfl-0zN1LMpglojvLKeZ1iH65uS0tbf4yCSMURtzJpzeQXks5u46FdNfnu_iyTzzpdnjGwFN9ANkrErMTj8t0sWeD6ov9s_f5idD42prTLLovms7MYhY-QRTOPFO05rwdNrFKqhaKkGtYG8L8QKsbe7JHSSubvKr3FyNlicJ7g0avFFsqVfJUC_E726wXNHjlOG4D_EFS62iveFvkfwmz3UWj4tamzzXS0]--></g></svg>