<svg xmlns="http://www.w3.org/2000/svg" xmlns:xlink="http://www.w3.org/1999/xlink" contentStyleType="text/css" height="524px" preserveAspectRatio="none" style="width:774px;height:524px;background:#FFFFFF;" version="1.1" viewBox="0 0 774 524" width="774px" zoomAndPan="magnify"><title>Sprint 1 &#8212; Authentification et Gestion des Profils</title><defs/><g><text fill="#000000" font-family="Arial" font-size="14" font-weight="bold" lengthAdjust="spacing" textLength="328.2549" x="215.8726" y="31.1318">Sprint 1 &#8212; Authentification et Gestion des Profils</text><!--cluster Sprint 1 : Authentification--><g id="cluster_Sprint 1 : Authentification"><rect fill="#FFFFFF" height="368" rx="2.5" ry="2.5" style="stroke:#1D4ED8;stroke-width:2;" width="638" x="130" y="60.0986"/><text fill="#000000" font-family="Arial" font-size="13" font-weight="bold" lengthAdjust="spacing" textLength="158.8818" x="369.5591" y="82.2925">Sprint 1 : Authentification</text></g><g id="elem_UC01"><ellipse cx="269.1582" cy="133.1696" fill="#EFF6FF" rx="86.6582" ry="24.071" style="stroke:#1D4ED8;stroke-width:0.5;"/><text fill="#000000" font-family="Arial" font-size="12" lengthAdjust="spacing" textLength="90.3105" x="224.0029" y="135.526">S'inscrire (US01)</text></g><g id="elem_UC02"><ellipse cx="269.0336" cy="216.1696" fill="#EFF6FF" rx="102.0336" ry="24.071" style="stroke:#1D4ED8;stroke-width:0.5;"/><text fill="#000000" font-family="Arial" font-size="12" lengthAdjust="spacing" textLength="112.0547" x="213.0063" y="218.526">Se connecter (US02)</text></g><g id="elem_UC03"><ellipse cx="640.6011" cy="342.3189" fill="#EFF6FF" rx="111.6011" ry="24.7202" style="stroke:#1D4ED8;stroke-width:0.5;"/><text fill="#000000" font-family="Arial" font-size="12" lengthAdjust="spacing" textLength="130.043" x="575.5797" y="344.6753">Rafra&#238;chir Token (US03)</text></g><g id="elem_UC04"><ellipse cx="269.2266" cy="302.1439" fill="#EFF6FF" rx="123.2266" ry="27.0453" style="stroke:#1D4ED8;stroke-width:0.5;"/><text fill="#000000" font-family="Arial" font-size="12" lengthAdjust="spacing" textLength="160.7285" x="188.8623" y="304.5004">Modifier Mot de Passe (US04)</text></g><g id="elem_UC05"><ellipse cx="269.1783" cy="388.1696" fill="#EFF6FF" rx="66.1783" ry="24.071" style="stroke:#1D4ED8;stroke-width:0.5;"/><text fill="#000000" font-family="Arial" font-size="12" lengthAdjust="spacing" textLength="61.3477" x="238.5045" y="390.526">G&#233;rer Profil</text></g><!--entity usr--><g id="elem_usr"><ellipse cx="40.3359" cy="258.5986" fill="#DBEAFE" rx="8" ry="8" style="stroke:#1D4ED8;stroke-width:0.5;"/><path d="M40.3359,266.5986 L40.3359,293.5986 M27.3359,274.5986 L53.3359,274.5986 M40.3359,293.5986 L27.3359,308.5986 M40.3359,293.5986 L53.3359,308.5986 " fill="none" style="stroke:#1D4ED8;stroke-width:0.5;"/><text fill="#000000" font-family="Arial" font-size="12" font-weight="bold" lengthAdjust="spacing" textLength="58.6816" x="6" y="329.3545">Utilisateur</text><text fill="#000000" font-family="Arial" font-size="12" font-weight="bold" lengthAdjust="spacing" textLength="68.6719" x="6" y="343.1533">(Tous r&#244;les)</text></g><!--link usr to UC01--><g id="link_usr_UC01"><path d="M63.16,249.9886 C76.54,223.7186 96.13,193.4186 122,174.0986 C142.04,159.1286 161.4929,151.0888 185.3529,145.0588 " fill="none" id="usr-to-UC01" style="stroke:#4B5563;stroke-width:1.5;"/><polygon fill="#4B5563" points="191.17,143.5886,181.4643,141.9157,186.3224,144.8137,183.4244,149.6719,191.17,143.5886" style="stroke:#4B5563;stroke-width:1.5;"/></g><!--link usr to UC02--><g id="link_usr_UC02"><path d="M83.18,276.3386 C95.4,269.4686 108.98,262.4686 122,257.0986 C145.36,247.4486 165.9388,240.8379 189.7788,234.3779 " fill="none" id="usr-to-UC02" style="stroke:#4B5563;stroke-width:1.5;"/><polygon fill="#4B5563" points="195.57,232.8086,185.8371,231.3017,190.744,234.1163,187.9294,239.0233,195.57,232.8086" style="stroke:#4B5563;stroke-width:1.5;"/></g><!--link usr to UC03--><g id="link_usr_UC03"><path d="M60.09,354.1686 C72.91,381.7386 92.95,413.1186 122,429.0986 C282.05,517.1386 503.5472,416.7433 594.3572,367.8433 " fill="none" id="usr-to-UC03" style="stroke:#4B5563;stroke-width:1.5;"/><polygon fill="#4B5563" points="599.64,364.9986,589.8194,365.7438,595.2377,367.3692,593.6123,372.7875,599.64,364.9986" style="stroke:#4B5563;stroke-width:1.5;"/></g><!--link usr to UC04--><g id="link_usr_UC04"><path d="M83.04,302.0986 C101.05,302.0986 117.17,302.0986 139.76,302.0986 " fill="none" id="usr-to-UC04" style="stroke:#4B5563;stroke-width:1.5;"/><polygon fill="#4B5563" points="145.76,302.0986,136.76,298.0986,140.76,302.0986,136.76,306.0986,145.76,302.0986" style="stroke:#4B5563;stroke-width:1.5;"/></g><!--link usr to UC05--><g id="link_usr_UC05"><path d="M83.26,327.1786 C95.47,333.8986 109.04,340.7586 122,346.0986 C151.27,358.1286 179.3725,366.6008 207.1425,373.8108 " fill="none" id="usr-to-UC05" style="stroke:#4B5563;stroke-width:1.5;"/><polygon fill="#4B5563" points="212.95,375.3186,205.244,369.1853,208.1105,374.0621,203.2336,376.9286,212.95,375.3186" style="stroke:#4B5563;stroke-width:1.5;"/></g><!--link UC02 to UC03--><g id="link_UC02_UC03"><path d="M328.36,235.6186 C348.53,242.3886 371.27,250.0486 392,257.0986 C456.2,278.9086 523.9978,302.2226 574.1078,319.5026 " fill="none" id="UC02-to-UC03" style="stroke:#4B5563;stroke-width:1.5;stroke-dasharray:7.0,7.0;"/><polygon fill="#4B5563" points="579.78,321.4586,572.5757,314.7431,575.0532,319.8286,569.9677,322.3061,579.78,321.4586" style="stroke:#4B5563;stroke-width:1.5;"/><text fill="#1E40AF" font-family="Arial" font-size="13" font-weight="bold" lengthAdjust="spacing" textLength="59.9663" x="431" y="258.2925">&#171;include&#187;</text></g><!--SRC=[XP9DRjim48NtFCN0NJHTnB3-Wg083CYnb5MA8BPttJ3Io2RCaCQGGj4M1Ng8NgARhde3twGdAIrPYYohZLOQl6zctXlGR8NQSUBFyCIpxPfqgV9RBJN1cxJwc6c970jUIfjgPJ_mPuIO19V3-a9yGV3yZXXdLjDCKuvqdE_DmsH-VORqRSndIPmcVQnQOZzBX2Sjyq7rpCBAOCOD_jz40_Lj96bwTNAD8_YFj4Jwqx4pd4NHLT0NbnkHRHKQ0zuuweilGuD1QJ1uepR9ad0ITmq_OcQvMijN3j33NdpwWz2hhwP5XqEToaF1bi9scyD1QQXnn_DSg3LSCsOF82ns99G53_vy_m5nQJUeh2X4ngtG2j327PhgDqS33wGB8GrZ4WiBLWE9zSP2BiWvTX1Z_F3KOBIoGWh3BPRqKLqiTMc0zhybcdSZu0PAGunHan96hOdtPnP6y9M1QwWUbYFV2cKoSWlXOhMOUFMyrUt4Ew4GCgsKMu1KSNxB-LtkaHV4zx-oZI1OwYsg2WvQEEZ2zpfthjp0U-qY8pnmOseNOTiGTXlkzZ_9uVNH6Y9YtnXp-U7oSbhxxXH-jmYwHTWj8iOEC8p7DUZETdCZL2RB7ATJzXS0]--></g></svg>