<svg xmlns="http://www.w3.org/2000/svg" xmlns:xlink="http://www.w3.org/1999/xlink" contentStyleType="text/css" height="530px" preserveAspectRatio="none" style="width:448px;height:530px;background:#FFFFFF;" version="1.1" viewBox="0 0 448 530" width="448px" zoomAndPan="magnify"><title>Sprint 2 &#8212; Gestion des Donn&#233;es de R&#233;f&#233;rence</title><defs/><g><text fill="#000000" font-family="Arial" font-size="14" font-weight="bold" lengthAdjust="spacing" textLength="308.8613" x="62.5693" y="31.1318">Sprint 2 &#8212; Gestion des Donn&#233;es de R&#233;f&#233;rence</text><!--cluster Sprint 2 : Donn?es de R?f?rence--><g id="cluster_Sprint 2 : Donn&#233;es de R&#233;f&#233;rence"><rect fill="#FFFFFF" height="464" rx="2.5" ry="2.5" style="stroke:#1D4ED8;stroke-width:2;" width="284" x="158" y="60.0986"/><text fill="#000000" font-family="Arial" font-size="13" font-weight="bold" lengthAdjust="spacing" textLength="200.1099" x="199.9451" y="82.2925">Sprint 2 : Donn&#233;es de R&#233;f&#233;rence</text></g><g id="elem_UC05"><ellipse cx="300.2403" cy="133.1696" fill="#EFF6FF" rx="106.7403" ry="24.071" style="stroke:#1D4ED8;stroke-width:0.5;"/><text fill="#000000" font-family="Arial" font-size="12" lengthAdjust="spacing" textLength="118.7109" x="240.8848" y="135.526">G&#233;rer Tenants (US05)</text></g><g id="elem_UC06"><ellipse cx="299.9843" cy="219.1955" fill="#EFF6FF" rx="123.4843" ry="27.0969" style="stroke:#1D4ED8;stroke-width:0.5;"/><text fill="#000000" font-family="Arial" font-size="12" lengthAdjust="spacing" textLength="161.3848" x="219.2919" y="221.5519">Cr&#233;er / G&#233;rer Garages (US06)</text></g><g id="elem_UC07"><ellipse cx="299.8626" cy="306.2712" fill="#EFF6FF" rx="111.3626" ry="24.6725" style="stroke:#1D4ED8;stroke-width:0.5;"/><text fill="#000000" font-family="Arial" font-size="12" lengthAdjust="spacing" textLength="129.3867" x="235.1693" y="308.6276">G&#233;rer Personnel (US07)</text></g><g id="elem_UC09"><ellipse cx="299.8631" cy="393.1712" fill="#EFF6FF" rx="125.8631" ry="27.5726" style="stroke:#1D4ED8;stroke-width:0.5;"/><text fill="#000000" font-family="Arial" font-size="12" lengthAdjust="spacing" textLength="167.4023" x="216.1619" y="395.5277">G&#233;rer Inventaire Pi&#232;ces (US09)</text></g><g id="elem_UC08"><ellipse cx="299.8326" cy="482.2652" fill="#EFF6FF" rx="118.8326" ry="26.1665" style="stroke:#1D4ED8;stroke-width:0.5;"/><text fill="#000000" font-family="Arial" font-size="12" lengthAdjust="spacing" textLength="149.3965" x="225.1344" y="484.6216">Enregistrer V&#233;hicule (US08)</text></g><!--entity sad--><g id="elem_sad"><ellipse cx="55.8359" cy="96.5986" fill="#DBEAFE" rx="8" ry="8" style="stroke:#1D4ED8;stroke-width:0.5;"/><path d="M55.8359,104.5986 L55.8359,131.5986 M42.8359,112.5986 L68.8359,112.5986 M55.8359,131.5986 L42.8359,146.5986 M55.8359,131.5986 L68.8359,146.5986 " fill="none" style="stroke:#1D4ED8;stroke-width:0.5;"/><text fill="#000000" font-family="Arial" font-size="12" font-weight="bold" lengthAdjust="spacing" textLength="74.6719" x="18.5" y="167.3545">Super Admin</text></g><!--entity adm--><g id="elem_adm"><ellipse cx="56.0098" cy="269.5986" fill="#DBEAFE" rx="8" ry="8" style="stroke:#1D4ED8;stroke-width:0.5;"/><path d="M56.0098,277.5986 L56.0098,304.5986 M43.0098,285.5986 L69.0098,285.5986 M56.0098,304.5986 L43.0098,319.5986 M56.0098,304.5986 L69.0098,319.5986 " fill="none" style="stroke:#1D4ED8;stroke-width:0.5;"/><text fill="#000000" font-family="Arial" font-size="12" font-weight="bold" lengthAdjust="spacing" textLength="100.0195" x="6" y="340.3545">Admin Entreprise</text></g><!--entity cli--><g id="elem_cli"><ellipse cx="56.167" cy="445.5986" fill="#DBEAFE" rx="8" ry="8" style="stroke:#1D4ED8;stroke-width:0.5;"/><path d="M56.167,453.5986 L56.167,480.5986 M43.167,461.5986 L69.167,461.5986 M56.167,480.5986 L43.167,495.5986 M56.167,480.5986 L69.167,495.5986 " fill="none" style="stroke:#1D4ED8;stroke-width:0.5;"/><text fill="#000000" font-family="Arial" font-size="12" font-weight="bold" lengthAdjust="spacing" textLength="33.334" x="39.5" y="516.3545">Client</text></g><!--link sad to UC05--><g id="link_sad_UC05"><path d="M101.67,133.0986 C127.48,133.0986 155.13,133.0986 187.3,133.0986 " fill="none" id="sad-to-UC05" style="stroke:#4B5563;stroke-width:1.5;"/><polygon fill="#4B5563" points="193.3,133.0986,184.3,129.0986,188.3,133.0986,184.3,137.0986,193.3,133.0986" style="stroke:#4B5563;stroke-width:1.5;"/></g><!--link adm to UC06--><g id="link_adm_UC06"><path d="M114.06,278.9186 C125.82,273.7086 138.22,268.5186 150,264.0986 C173.15,255.4186 193.0405,248.9044 216.4305,241.9244 " fill="none" id="adm-to-UC06" style="stroke:#4B5563;stroke-width:1.5;"/><polygon fill="#4B5563" points="222.18,240.2086,212.412,238.9493,217.3888,241.6384,214.6996,246.6152,222.18,240.2086" style="stroke:#4B5563;stroke-width:1.5;"/></g><!--link adm to UC07--><g id="link_adm_UC07"><path d="M114.04,306.0986 C136.26,306.0986 156.52,306.0986 182.16,306.0986 " fill="none" id="adm-to-UC07" style="stroke:#4B5563;stroke-width:1.5;"/><polygon fill="#4B5563" points="188.16,306.0986,179.16,302.0986,183.16,306.0986,179.16,310.0986,188.16,306.0986" style="stroke:#4B5563;stroke-width:1.5;"/></g><!--link adm to UC09--><g id="link_adm_UC09"><path d="M114.06,333.2786 C125.82,338.4886 138.22,343.6786 150,348.0986 C172.77,356.6386 192.2023,363.0171 215.2723,369.9271 " fill="none" id="adm-to-UC09" style="stroke:#4B5563;stroke-width:1.5;"/><polygon fill="#4B5563" points="221.02,371.6486,213.5461,365.2345,216.2302,370.214,211.2507,372.8981,221.02,371.6486" style="stroke:#4B5563;stroke-width:1.5;"/></g><!--link cli to UC08--><g id="link_cli_UC08"><path d="M80.64,482.0986 C104.37,482.0986 136.76,482.0986 174.78,482.0986 " fill="none" id="cli-to-UC08" style="stroke:#4B5563;stroke-width:1.5;"/><polygon fill="#4B5563" points="180.78,482.0986,171.78,478.0986,175.78,482.0986,171.78,486.0986,180.78,482.0986" style="stroke:#4B5563;stroke-width:1.5;"/></g><!--SRC=[XL91Zjf04BpFArhaaXms0HQCoI6I0ODoYLOBv3xhQRmZp0pg6ITAeaXvH1uHti5FyfACZUtrUcUpFhcdghghIstsKXqvyGFSyMIVaiwLcEjC4xnQbXyp3KFWZkUPNMfbF_43GaIIPtvyBRyZ38OjC4giffacWLJr7on6yI9yGkdQMCpYQ1btQUKG-or3kDEPyA9FB6mD9jpW_qtKfAwDUBaC7gLH4P_PbaX_hPIZsNWSN7V1pRrCzWgDWS7RSHTyQ7hjXRoBrsYzMJpgHst3jvXOhjBiXG0wj0UVGo_fnQjfgFwb7iE-nJRIjiKZB-GJ7haGKgKGCcOB8goF99M58VpzzHjMQApKobsjWOLMwdnoFmBXzdpQdK-4Aa76CjnPi1f8flSMX2JdreaOuyMPGM-T7v4W4WUfUi0D62vgg7o4M5b2DzPWYNDngF5v9b7PyZN996DK1-6wrZxVF-Ui1pyOG7uvGUYjYcU23Igkh87NstL__APilPttnstcd5mtWdTGILOkgHGlag2H19xcDqZ6cS6iv4uQxiJ3_QY-kDsuYmjkvFbFKWsODg9fMnGhmbGQMoW_dq_ku7ANGY486q78VZBcqeMhgm-NfLoKTH6qYqcxc3ANRLs4x1y0]--></g></svg>