<svg xmlns="http://www.w3.org/2000/svg" xmlns:xlink="http://www.w3.org/1999/xlink" contentStyleType="text/css" height="529px" preserveAspectRatio="none" style="width:859px;height:529px;background:#FFFFFF;" version="1.1" viewBox="0 0 859 529" width="859px" zoomAndPan="magnify"><title>Sprint 3 &#8212; Sympt&#244;mes, Diagnostic IA et Rendez-vous</title><defs/><g><text fill="#000000" font-family="Arial" font-size="14" font-weight="bold" lengthAdjust="spacing" textLength="357.8408" x="243.5796" y="31.1318">Sprint 3 &#8212; Sympt&#244;mes, Diagnostic IA et Rendez-vous</text><!--cluster Sprint 3 : Diagnostic et RDV--><g id="cluster_Sprint 3 : Diagnostic et RDV"><rect fill="#FFFFFF" height="309" rx="2.5" ry="2.5" style="stroke:#1D4ED8;stroke-width:2;" width="706.5" x="139" y="67.5986"/><text fill="#000000" font-family="Arial" font-size="13" font-weight="bold" lengthAdjust="spacing" textLength="172.6309" x="405.9346" y="89.7925">Sprint 3 : Diagnostic et RDV</text></g><!--cluster iasys--><g id="cluster_iasys"><rect fill="#FFFFFF" height="123" rx="2.5" ry="2.5" style="stroke:#1D4ED8;stroke-width:2;" width="296" x="557" y="400.5986"/><text fill="#000000" font-family="Arial" font-size="13" font-weight="bold" lengthAdjust="spacing" textLength="169.4189" x="620.2905" y="422.7925">Syst&#232;me IA (Ollama + RAG)</text></g><g id="elem_UC10"><ellipse cx="294.2733" cy="144.3533" fill="#EFF6FF" rx="124.2733" ry="27.2547" style="stroke:#1D4ED8;stroke-width:0.5;"/><text fill="#000000" font-family="Arial" font-size="12" lengthAdjust="spacing" textLength="163.3887" x="212.579" y="146.7097">Soumettre Sympt&#244;mes (US10)</text></g><g id="elem_UC12"><ellipse cx="294.6362" cy="237.4259" fill="#EFF6FF" rx="139.6362" ry="30.3272" style="stroke:#1D4ED8;stroke-width:0.5;"/><text fill="#000000" font-family="Arial" font-size="12" lengthAdjust="spacing" textLength="201.082" x="194.0952" y="239.7823">R&#233;viser Rapport + Plage RDV (US12)</text></g><g id="elem_UC13"><ellipse cx="705.0394" cy="168.4065" fill="#EFF6FF" rx="124.5394" ry="27.3079" style="stroke:#1D4ED8;stroke-width:0.5;"/><text fill="#000000" font-family="Arial" font-size="12" lengthAdjust="spacing" textLength="164.0625" x="623.0081" y="170.7629">R&#233;server Rendez-vous (US13)</text></g><g id="elem_UC14"><ellipse cx="294.3737" cy="331.4734" fill="#EFF6FF" rx="129.8737" ry="28.3747" style="stroke:#1D4ED8;stroke-width:0.5;"/><text fill="#000000" font-family="Arial" font-size="12" lengthAdjust="spacing" textLength="177.3984" x="205.6745" y="333.8298">Approuver / Refuser RDV (US14)</text></g><g id="elem_UC11"><ellipse cx="705.0508" cy="478.4088" fill="#EFF6FF" rx="132.0508" ry="28.8102" style="stroke:#1D4ED8;stroke-width:0.5;"/><text fill="#000000" font-family="Arial" font-size="12" lengthAdjust="spacing" textLength="182.7539" x="613.6739" y="480.7652">Diagnostic IA Automatique (US11)</text></g><!--entity cli--><g id="elem_cli"><ellipse cx="45.167" cy="67.0986" fill="#DBEAFE" rx="8" ry="8" style="stroke:#1D4ED8;stroke-width:0.5;"/><path d="M45.167,75.0986 L45.167,102.0986 M32.167,83.0986 L58.167,83.0986 M45.167,102.0986 L32.167,117.0986 M45.167,102.0986 L58.167,117.0986 " fill="none" style="stroke:#1D4ED8;stroke-width:0.5;"/><text fill="#000000" font-family="Arial" font-size="12" font-weight="bold" lengthAdjust="spacing" textLength="33.334" x="28.5" y="137.8545">Client</text></g><!--entity che--><g id="elem_che"><ellipse cx="44.7656" cy="247.0986" fill="#DBEAFE" rx="8" ry="8" style="stroke:#1D4ED8;stroke-width:0.5;"/><path d="M44.7656,255.0986 L44.7656,282.0986 M31.7656,263.0986 L57.7656,263.0986 M44.7656,282.0986 L31.7656,297.0986 M44.7656,282.0986 L57.7656,297.0986 " fill="none" style="stroke:#1D4ED8;stroke-width:0.5;"/><text fill="#000000" font-family="Arial" font-size="12" font-weight="bold" lengthAdjust="spacing" textLength="77.5313" x="6" y="317.8545">Chef d'Atelier</text></g><!--link cli to UC10--><g id="link_cli_UC10"><path d="M69.73,107.5286 C98.47,112.2886 142.7706,119.6286 188.3706,127.1786 " fill="none" id="cli-to-UC10" style="stroke:#4B5563;stroke-width:1.5;"/><polygon fill="#4B5563" points="194.29,128.1586,186.0643,122.7422,189.3572,127.3419,184.7575,130.6348,194.29,128.1586" style="stroke:#4B5563;stroke-width:1.5;"/></g><!--link cli to UC13--><g id="link_cli_UC13"><path d="M69.76,97.2986 C84.89,93.8586 104.97,90.3386 123,90.5986 C261.27,92.5986 297.06,80.3586 434,99.5986 C502.87,109.2786 573.7825,128.1162 627.7725,144.2962 " fill="none" id="cli-to-UC13" style="stroke:#4B5563;stroke-width:1.5;"/><polygon fill="#4B5563" points="633.52,146.0186,626.0471,139.6034,628.7305,144.5833,623.7505,147.2666,633.52,146.0186" style="stroke:#4B5563;stroke-width:1.5;"/></g><!--link che to UC12--><g id="link_che_UC12"><path d="M92.26,274.9986 C119.2,269.9986 148.421,264.565 181.781,258.365 " fill="none" id="che-to-UC12" style="stroke:#4B5563;stroke-width:1.5;"/><polygon fill="#4B5563" points="187.68,257.2686,178.1006,254.9805,182.7642,258.1822,179.5624,262.8458,187.68,257.2686" style="stroke:#4B5563;stroke-width:1.5;"/></g><!--link che to UC14--><g id="link_che_UC14"><path d="M92.26,292.5686 C121.57,298.2586 154.6999,304.6757 190.5699,311.6357 " fill="none" id="che-to-UC14" style="stroke:#4B5563;stroke-width:1.5;"/><polygon fill="#4B5563" points="196.46,312.7786,188.3867,307.1375,191.5515,311.8262,186.8629,314.9911,196.46,312.7786" style="stroke:#4B5563;stroke-width:1.5;"/></g><!--link UC10 to UC11--><g id="link_UC10_UC11"><path d="M386.87,163.0686 C403.8,169.4686 420.41,178.0686 434,189.5986 C456.13,208.3786 449.33,222.5586 464,247.5986 C498.71,306.8386 500.44,328.0586 549,376.5986 C579.42,406.9986 615.0491,430.4542 647.1791,448.7942 " fill="none" id="UC10-to-UC11" style="stroke:#4B5563;stroke-width:1.5;stroke-dasharray:7.0,7.0;"/><polygon fill="#4B5563" points="652.39,451.7686,646.5566,443.8331,648.0476,449.29,642.5908,450.781,652.39,451.7686" style="stroke:#4B5563;stroke-width:1.5;"/><text fill="#1E40AF" font-family="Arial" font-size="13" font-weight="bold" lengthAdjust="spacing" textLength="59.9663" x="473" y="236.7925">&#171;include&#187;</text></g><!--link UC12 to UC13--><g id="link_UC12_UC13"><path d="M405.51,219.0186 C467.89,208.4786 539.3839,196.4084 599.7439,186.2084 " fill="none" id="UC12-to-UC13" style="stroke:#4B5563;stroke-width:1.5;stroke-dasharray:7.0,7.0;"/><polygon fill="#4B5563" points="605.66,185.2086,596.1193,182.7642,600.7299,186.0418,597.4523,190.6523,605.66,185.2086" style="stroke:#4B5563;stroke-width:1.5;"/><text fill="#1E40AF" font-family="Arial" font-size="13" font-weight="bold" lengthAdjust="spacing" textLength="56.3608" x="474.5" y="186.7925">&#171;extend&#187;</text></g><!--SRC=[XLHBZjD04DttAKfXmI18Y3yPZT0ealD3R00b4_OzTiLffTrjkjk1p0Y9GymXXZqto4qu2MqdTXoFORAhlFVglQfgMM-OIAcY2TpIS1ChcObeBBbKy69M_8Yk616kQCRDJ0hpaIO8WMAKj-CBTeVWk3Km28rK8waYLCV-piIVJgwUK9en9gDfC9isQOM9sN64MycZLlH9XAN6a6hyVuYIr8mndSqkpxPn9FvZMgNajwFI7mq6bruJl5cpS2DGQt1wWoPuQkgrGgs3bsWvsTJl1_N0SmmD5J5_PW4DsYcdsqfwzjLKrFQXpk6smMwOgOlzLgXDcD8eOYA6Aq9CJeH5gfWmuC6Vdm-ms2MfsVzEKB-12QEnaDgm43u4WCQc4X7UTRSoquHmN1am4XIBrmOYfcna9WKXD7zhq1bpXi9qW6e8EQl-NUCAefU1GGkh0xf6GbGvC7IgFE_g2NBxoPSEt1E0xF38B5Lc2HgZi9ORBfOBf_-gQBqSE_qwVxx_jMKQ5Snfcafbu3LyvZJ6l7MXSokTsz1PrJONdbPG2BnAuDK5GPhQy-U2jrQooWhFeuTVINpoutpodJRxH_iDiUk- -CGvJQXDE0_U7nICwfq-Ny3vYOBCo8GQzZN3micfd9pSoPu1kjtXOIkrmYFs16NXrWkVa9mClLvHElOarzTCX3oBS3ZCCRV4l0B3xyOko49_0G00]--></g></svg>